<?xml version="1.0" standalone="no"?>
<!DOCTYPE svg PUBLIC "-//W3C//DTD SVG 1.1//EN" "http://www.w3.org/Graphics/SVG/1.1/DTD/svg11.dtd" >
<svg xmlns="http://www.w3.org/2000/svg">
<metadata></metadata>
<defs>
<font id="bpdotsunicasebold" horiz-adv-x="1228" >
<font-face units-per-em="2048" ascent="1638" descent="-410" />
<missing-glyph horiz-adv-x="500" />
<glyph />
<glyph />
<glyph unicode="&#xd;" />
<glyph unicode=" " />
<glyph unicode="!" d="M379 76q0 45 30.5 76.5t75.5 31.5q44 0 76.5 -32t32.5 -76q0 -45 -32 -76t-77 -31q-46 0 -76 30.5t-30 76.5zM379 485q0 35 20 64t52 39q-33 11 -52.5 38.5t-19.5 63.5q0 35 20 64t52 39q-33 11 -52.5 38.5t-19.5 63.5q0 45 30.5 77t75.5 32q44 0 76.5 -32.5t32.5 -76.5 q0 -36 -21.5 -63.5t-54.5 -38.5q33 -11 54.5 -39.5t21.5 -63.5q0 -36 -21.5 -63.5t-54.5 -38.5q33 -11 54.5 -39.5t21.5 -63.5q0 -45 -32 -75.5t-77 -30.5q-46 0 -76 30t-30 76z" />
<glyph unicode="&#x22;" d="M174 690q0 45 31 77t76 32q44 0 76 -32.5t32 -76.5q0 -45 -31.5 -75.5t-76.5 -30.5q-46 0 -76.5 30t-30.5 76zM379 895q0 35 20 63t52 39q-32 11 -52 39t-20 64q0 45 30.5 76.5t75.5 31.5q44 0 76.5 -32t32.5 -76q0 -36 -21.5 -64t-54.5 -39q33 -11 54.5 -39t21.5 -63 q0 -45 -32 -76t-77 -31q-46 0 -76 30.5t-30 76.5zM584 690q0 45 30.5 77t75.5 32q44 0 76.5 -32.5t32.5 -76.5q0 -45 -32 -75.5t-77 -30.5q-46 0 -76 30t-30 76zM788 895q0 35 20 63t52 39q-32 11 -52 39t-20 64q0 45 31 76.5t76 31.5q44 0 76.5 -32t32.5 -76 q0 -36 -21.5 -64t-54.5 -39q33 -11 54.5 -39t21.5 -63q0 -45 -32 -76t-77 -31q-46 0 -76.5 30.5t-30.5 76.5z" />
<glyph unicode="#" d="M-31 281q0 45 31 76.5t76 31.5q35 0 63 -21.5t39 -54.5q16 54 68 70q-33 11 -52.5 38.5t-19.5 63.5q0 35 20 64t52 39q-53 16 -68 67q-10 -32 -38.5 -51.5t-63.5 -19.5q-46 0 -76.5 30t-30.5 76q0 45 31 77t76 32q35 0 63 -21.5t39 -54.5q16 54 68 70q-33 11 -52.5 38.5 t-19.5 63.5q0 45 31 77t76 32q44 0 76 -32.5t32 -76.5q0 -36 -21.5 -63.5t-54.5 -38.5q25 -8 43.5 -26.5t26.5 -43.5q11 33 38.5 54.5t63.5 21.5q35 0 63.5 -21.5t39.5 -54.5q17 55 67 70q-32 11 -51.5 38t-19.5 64q0 45 30.5 77t75.5 32q44 0 76.5 -32.5t32.5 -76.5 q0 -36 -21.5 -63.5t-54.5 -38.5q25 -8 43.5 -26.5t26.5 -43.5q11 33 38.5 54.5t63.5 21.5q44 0 76.5 -32.5t32.5 -76.5q0 -45 -32 -75.5t-77 -30.5q-37 0 -64 19.5t-38 51.5q-15 -50 -70 -67q33 -11 54.5 -39.5t21.5 -63.5q0 -36 -21.5 -63.5t-54.5 -38.5q25 -8 43.5 -26.5 t26.5 -43.5q11 33 38.5 54.5t63.5 21.5q44 0 76.5 -32t32.5 -76q0 -45 -32 -76t-77 -31q-36 0 -63.5 19.5t-38.5 52.5q-16 -52 -70 -68q33 -11 54.5 -39t21.5 -63q0 -45 -32 -76t-77 -31q-46 0 -76 30.5t-30 76.5q0 35 19.5 63.5t51.5 38.5q-51 15 -67 68q-10 -32 -39 -52 t-64 -20q-36 0 -63.5 19.5t-38.5 52.5q-16 -52 -70 -68q33 -11 54.5 -39t21.5 -63q0 -45 -31.5 -76t-76.5 -31q-46 0 -76.5 30.5t-30.5 76.5q0 35 20 63t52 39q-52 16 -68 68q-11 -32 -39 -52t-63 -20q-46 0 -76.5 30.5t-30.5 76.5zM313 383q25 -8 43.5 -26.5t26.5 -43.5 q11 33 38.5 54.5t63.5 21.5q35 0 63.5 -21.5t39.5 -54.5q17 55 67 70q-32 11 -51.5 38t-19.5 64q0 35 19.5 64t51.5 39q-51 16 -67 67q-10 -32 -39 -51.5t-64 -19.5q-37 0 -64 19.5t-38 51.5q-15 -50 -70 -67q33 -11 54.5 -39.5t21.5 -63.5q0 -36 -21.5 -63.5t-54.5 -38.5z " />
<glyph unicode="$" d="M-31 76q0 45 31 76.5t76 31.5q35 0 63 -21t39 -54q11 33 39 54t64 21q35 0 63 -21t39 -54q16 53 68 69q-32 11 -52 39t-20 64q0 35 20 63t52 39q-52 16 -68 68q-11 -32 -39 -52t-63 -20q-46 0 -76.5 30t-30.5 76q0 45 31 77t76 32q35 0 63 -21.5t39 -54.5q16 54 68 70 q-33 11 -52.5 38.5t-19.5 63.5q0 35 20 64t52 39q-53 16 -68 67q-11 -32 -39 -52t-63 -20q-46 0 -76.5 30.5t-30.5 76.5q0 45 31 77t76 32q35 0 63 -21.5t39 -54.5q16 53 68 69q-32 11 -52 39t-20 64q0 45 30.5 76.5t75.5 31.5q44 0 76.5 -32t32.5 -76q0 -36 -21.5 -64 t-54.5 -39q25 -8 44 -26t26 -43q11 33 38.5 54.5t63.5 21.5q35 0 63.5 -21.5t39.5 -54.5q11 33 38.5 54.5t63.5 21.5q44 0 76.5 -32.5t32.5 -76.5q0 -45 -32 -76t-77 -31q-36 0 -63.5 19.5t-38.5 52.5q-10 -32 -39 -52t-64 -20q-36 0 -63.5 19.5t-38.5 52.5q-15 -50 -70 -67 q33 -11 54.5 -39.5t21.5 -63.5q0 -36 -21.5 -63.5t-54.5 -38.5q25 -8 43.5 -26.5t26.5 -43.5q11 33 38.5 54.5t63.5 21.5q44 0 76.5 -32.5t32.5 -76.5q0 -45 -32 -75.5t-77 -30.5q-36 0 -63.5 19.5t-38.5 52.5q-16 -52 -70 -68q33 -11 54.5 -39t21.5 -63q0 -36 -21.5 -64 t-54.5 -39q25 -8 44 -26t26 -43q11 33 38.5 54t63.5 21q44 0 76.5 -32t32.5 -76q0 -45 -32 -76t-77 -31q-36 0 -63.5 19.5t-38.5 52.5q-15 -49 -70 -66q33 -11 54.5 -40t21.5 -64q0 -45 -32 -76t-77 -31q-46 0 -76 30.5t-30 76.5q0 35 20 64.5t52 39.5q-53 16 -68 66 q-11 -32 -39 -52t-63 -20q-36 0 -64 20t-39 52q-11 -32 -39 -52t-63 -20q-46 0 -76.5 30.5t-30.5 76.5zM-31 690q0 45 31 77t76 32q44 0 76 -32.5t32 -76.5q0 -45 -31.5 -75.5t-76.5 -30.5q-46 0 -76.5 30t-30.5 76zM788 281q0 45 31 76.5t76 31.5q44 0 76.5 -32t32.5 -76 q0 -45 -32 -76t-77 -31q-46 0 -76.5 30.5t-30.5 76.5z" />
<glyph unicode="%" d="M-31 76q0 45 31 76.5t76 31.5q44 0 76 -32t32 -76q0 -45 -31.5 -76t-76.5 -31q-46 0 -76.5 30.5t-30.5 76.5zM-31 690q0 35 20 64t52 39q-33 11 -52.5 38.5t-19.5 63.5q0 45 31 77t76 32q35 0 63 -21.5t39 -54.5q11 33 39 54.5t64 21.5q44 0 76 -32.5t32 -76.5 q0 -36 -21.5 -63.5t-54.5 -38.5q25 -8 43.5 -26.5t26.5 -43.5q11 33 38.5 54.5t63.5 21.5q44 0 76.5 -32.5t32.5 -76.5q0 -45 -32 -75.5t-77 -30.5q-37 0 -64 19.5t-38 51.5q-15 -50 -70 -67q33 -11 54.5 -39.5t21.5 -63.5q0 -36 -21.5 -63.5t-54.5 -38.5q25 -8 43.5 -26.5 t26.5 -43.5q11 33 38.5 54.5t63.5 21.5q35 0 63.5 -21.5t39.5 -54.5q11 33 38.5 54.5t63.5 21.5q44 0 76.5 -32t32.5 -76q0 -36 -21.5 -64t-54.5 -39q33 -11 54.5 -39t21.5 -63q0 -45 -32 -76t-77 -31q-36 0 -63.5 19.5t-38.5 52.5q-10 -32 -39 -52t-64 -20q-46 0 -76 30.5 t-30 76.5q0 35 20 63t52 39q-52 16 -68 68q-11 -32 -39 -52t-63 -20q-46 0 -76.5 30.5t-30.5 76.5q0 35 20 63t52 39q-33 11 -52.5 38.5t-19.5 63.5q0 35 20 64t52 39q-53 16 -68 67q-10 -32 -38.5 -51.5t-63.5 -19.5q-46 0 -76.5 30t-30.5 76zM109 793q25 -7 43 -26t26 -44 q16 54 68 70q-53 16 -68 67q-15 -51 -69 -67zM518 178q25 -8 44 -26t26 -43q16 54 67 69q-51 15 -67 68q-16 -52 -70 -68zM584 895q0 45 30.5 77t75.5 32q44 0 76.5 -32.5t32.5 -76.5q0 -45 -32 -76t-77 -31q-46 0 -76 30.5t-30 76.5z" />
<glyph unicode="&#x26;" d="M-31 281q0 45 31 76.5t76 31.5q44 0 76 -32t32 -76q0 -45 -31.5 -76t-76.5 -31q-46 0 -76.5 30.5t-30.5 76.5zM-31 690q0 45 31 77t76 32q44 0 76 -32.5t32 -76.5q0 -45 -31.5 -75.5t-76.5 -30.5q-46 0 -76.5 30t-30.5 76zM174 76q0 45 31 76.5t76 31.5q35 0 63 -21 t39 -54q11 33 38.5 54t63.5 21q44 0 76.5 -32t32.5 -76q0 -45 -32 -76t-77 -31q-36 0 -63.5 19.5t-38.5 52.5q-11 -32 -39 -52t-63 -20q-46 0 -76.5 30.5t-30.5 76.5zM174 485q0 45 31 77t76 32q35 0 63 -21.5t39 -54.5q11 33 38.5 54.5t63.5 21.5q35 0 63.5 -21.5 t39.5 -54.5q11 33 38.5 54.5t63.5 21.5q35 0 63.5 -21.5t39.5 -54.5q11 33 38.5 54.5t63.5 21.5q44 0 76.5 -32.5t32.5 -76.5q0 -45 -32 -75.5t-77 -30.5q-36 0 -63.5 19.5t-38.5 52.5q-16 -52 -70 -68q33 -11 54.5 -39t21.5 -63q0 -45 -32 -76t-77 -31q-46 0 -76 30.5 t-30 76.5q0 35 19.5 63.5t51.5 38.5q-51 15 -67 68q-10 -32 -39 -52t-64 -20q-36 0 -63.5 19.5t-38.5 52.5q-11 -32 -39 -52t-63 -20q-46 0 -76.5 30t-30.5 76zM174 895q0 45 31 77t76 32q35 0 63 -21.5t39 -54.5q11 33 38.5 54.5t63.5 21.5q44 0 76.5 -32.5t32.5 -76.5 q0 -45 -32 -76t-77 -31q-36 0 -63.5 19.5t-38.5 52.5q-11 -32 -39 -52t-63 -20q-46 0 -76.5 30.5t-30.5 76.5z" />
<glyph unicode="'" d="M379 690q0 45 30.5 77t75.5 32q44 0 76.5 -32.5t32.5 -76.5q0 -45 -32 -75.5t-77 -30.5q-46 0 -76 30t-30 76zM584 895q0 35 19.5 63.5t51.5 38.5q-32 11 -51.5 38.5t-19.5 64.5q0 45 30.5 76.5t75.5 31.5q44 0 76.5 -32t32.5 -76q0 -36 -21.5 -64t-54.5 -39 q33 -11 54.5 -39t21.5 -63q0 -45 -32 -76t-77 -31q-46 0 -76 30.5t-30 76.5z" />
<glyph unicode="(" d="M379 76q0 35 20 63t52 39q-32 11 -52 39t-20 64q0 35 20 63t52 39q-33 11 -52.5 38.5t-19.5 63.5q0 35 20 64t52 39q-33 11 -52.5 38.5t-19.5 63.5q0 35 20 64t52 39q-33 11 -52.5 38.5t-19.5 63.5q0 45 30.5 77t75.5 32q44 0 76.5 -32.5t32.5 -76.5q0 -36 -21.5 -63.5 t-54.5 -38.5q33 -11 54.5 -39.5t21.5 -63.5q0 -36 -21.5 -63.5t-54.5 -38.5q33 -11 54.5 -39.5t21.5 -63.5q0 -36 -21.5 -63.5t-54.5 -38.5q33 -11 54.5 -39t21.5 -63q0 -36 -21.5 -64t-54.5 -39q33 -11 54.5 -39t21.5 -63q0 -45 -32 -76t-77 -31q-46 0 -76 30.5t-30 76.5z M584 -129q0 45 30.5 77t75.5 32q44 0 76.5 -32.5t32.5 -76.5q0 -45 -32 -76t-77 -31q-46 0 -76 30.5t-30 76.5zM584 1100q0 45 30.5 76.5t75.5 31.5q44 0 76.5 -32t32.5 -76q0 -45 -32 -76t-77 -31q-46 0 -76 30.5t-30 76.5z" />
<glyph unicode=")" d="M379 -129q0 45 30.5 77t75.5 32q44 0 76.5 -32.5t32.5 -76.5q0 -45 -32 -76t-77 -31q-46 0 -76 30.5t-30 76.5zM379 1100q0 45 30.5 76.5t75.5 31.5q44 0 76.5 -32t32.5 -76q0 -45 -32 -76t-77 -31q-46 0 -76 30.5t-30 76.5zM584 76q0 35 19.5 63.5t51.5 38.5 q-32 11 -51.5 38.5t-19.5 64.5q0 35 19.5 63.5t51.5 38.5q-32 11 -51.5 38t-19.5 64q0 35 19.5 64t51.5 39q-32 11 -51.5 38t-19.5 64q0 35 19.5 64t51.5 39q-32 11 -51.5 38t-19.5 64q0 45 30.5 77t75.5 32q44 0 76.5 -32.5t32.5 -76.5q0 -36 -21.5 -63.5t-54.5 -38.5 q33 -11 54.5 -39.5t21.5 -63.5q0 -36 -21.5 -63.5t-54.5 -38.5q33 -11 54.5 -39.5t21.5 -63.5q0 -36 -21.5 -63.5t-54.5 -38.5q33 -11 54.5 -39t21.5 -63q0 -36 -21.5 -64t-54.5 -39q33 -11 54.5 -39t21.5 -63q0 -45 -32 -76t-77 -31q-46 0 -76 30.5t-30 76.5z" />
<glyph unicode="*" d="M-31 690q0 45 31 77t76 32q44 0 76 -32.5t32 -76.5q0 -45 -31.5 -75.5t-76.5 -30.5q-46 0 -76.5 30t-30.5 76zM-31 1100q0 45 31 76.5t76 31.5q44 0 76 -32t32 -76q0 -45 -31.5 -76t-76.5 -31q-46 0 -76.5 30.5t-30.5 76.5zM174 895q0 45 31 77t76 32q44 0 76 -32.5 t32 -76.5q0 -45 -31.5 -76t-76.5 -31q-46 0 -76.5 30.5t-30.5 76.5zM379 690q0 45 30.5 77t75.5 32q44 0 76.5 -32.5t32.5 -76.5q0 -45 -32 -75.5t-77 -30.5q-46 0 -76 30t-30 76zM379 1100q0 45 30.5 76.5t75.5 31.5q44 0 76.5 -32t32.5 -76q0 -45 -32 -76t-77 -31 q-46 0 -76 30.5t-30 76.5z" />
<glyph unicode="+" d="M-31 485q0 45 31 77t76 32q35 0 63 -21.5t39 -54.5q11 33 39 54.5t64 21.5q35 0 63 -21.5t39 -54.5q16 54 68 70q-33 11 -52.5 38.5t-19.5 63.5q0 35 20 64t52 39q-33 11 -52.5 38.5t-19.5 63.5q0 45 30.5 77t75.5 32q44 0 76.5 -32.5t32.5 -76.5q0 -36 -21.5 -63.5 t-54.5 -38.5q33 -11 54.5 -39.5t21.5 -63.5q0 -36 -21.5 -63.5t-54.5 -38.5q25 -8 43.5 -26.5t26.5 -43.5q11 33 38.5 54.5t63.5 21.5q35 0 63.5 -21.5t39.5 -54.5q11 33 38.5 54.5t63.5 21.5q44 0 76.5 -32.5t32.5 -76.5q0 -45 -32 -75.5t-77 -30.5q-36 0 -63.5 19.5 t-38.5 52.5q-10 -32 -39 -52t-64 -20q-36 0 -63.5 19.5t-38.5 52.5q-16 -52 -70 -68q33 -11 54.5 -39t21.5 -63q0 -36 -21.5 -64t-54.5 -39q33 -11 54.5 -39t21.5 -63q0 -45 -32 -76t-77 -31q-46 0 -76 30.5t-30 76.5q0 35 20 63t52 39q-32 11 -52 39t-20 64q0 35 20 63 t52 39q-52 16 -68 68q-11 -32 -39 -52t-63 -20q-36 0 -64 20t-39 52q-11 -32 -39 -52t-63 -20q-46 0 -76.5 30t-30.5 76z" />
<glyph unicode="," d="M174 -129q0 45 31 77t76 32q44 0 76 -32.5t32 -76.5q0 -45 -31.5 -76t-76.5 -31q-46 0 -76.5 30.5t-30.5 76.5zM379 76q0 35 20 63t52 39q-32 11 -52 39t-20 64q0 45 30.5 76.5t75.5 31.5q44 0 76.5 -32t32.5 -76q0 -36 -21.5 -64t-54.5 -39q33 -11 54.5 -39t21.5 -63 q0 -45 -32 -76t-77 -31q-46 0 -76 30.5t-30 76.5z" />
<glyph unicode="-" d="M174 485q0 45 31 77t76 32q35 0 63 -21.5t39 -54.5q11 33 38.5 54.5t63.5 21.5q35 0 63.5 -21.5t39.5 -54.5q11 33 38.5 54.5t63.5 21.5q44 0 76.5 -32.5t32.5 -76.5q0 -45 -32 -75.5t-77 -30.5q-36 0 -63.5 19.5t-38.5 52.5q-10 -32 -39 -52t-64 -20q-36 0 -63.5 19.5 t-38.5 52.5q-11 -32 -39 -52t-63 -20q-46 0 -76.5 30t-30.5 76z" />
<glyph unicode="." d="M379 76q0 35 20 63t52 39q-32 11 -52 39t-20 64q0 45 30.5 76.5t75.5 31.5q44 0 76.5 -32t32.5 -76q0 -36 -21.5 -64t-54.5 -39q33 -11 54.5 -39t21.5 -63q0 -45 -32 -76t-77 -31q-46 0 -76 30.5t-30 76.5z" />
<glyph unicode="/" d="M174 76q0 45 31 76.5t76 31.5q44 0 76 -32t32 -76q0 -36 -21.5 -64t-54.5 -37q33 -11 54.5 -40t21.5 -64q0 -45 -31.5 -76t-76.5 -31q-46 0 -76.5 30.5t-30.5 76.5q0 35 20 64.5t52 39.5q-32 9 -52 36.5t-20 64.5zM379 281q0 45 30.5 76.5t75.5 31.5q44 0 76.5 -32 t32.5 -76q0 -45 -32 -76t-77 -31q-46 0 -76 30.5t-30 76.5zM584 485q0 35 19.5 64t51.5 39q-32 11 -51.5 38t-19.5 64q0 45 30.5 77t75.5 32q44 0 76.5 -32.5t32.5 -76.5q0 -36 -21.5 -63.5t-54.5 -38.5q33 -11 54.5 -39.5t21.5 -63.5q0 -45 -32 -75.5t-77 -30.5 q-46 0 -76 30t-30 76zM788 895q0 35 20 63t52 39q-32 11 -52 39t-20 64q0 45 31 76.5t76 31.5q44 0 76.5 -32t32.5 -76q0 -36 -21.5 -64t-54.5 -39q33 -11 54.5 -39t21.5 -63q0 -45 -32 -76t-77 -31q-46 0 -76.5 30.5t-30.5 76.5z" />
<glyph unicode="0" d="M-31 281q0 35 20 63t52 39q-33 11 -52.5 38.5t-19.5 63.5q0 35 20 64t52 39q-33 11 -52.5 38.5t-19.5 63.5q0 45 31 77t76 32q44 0 76 -32.5t32 -76.5q0 -36 -21 -63.5t-54 -38.5q33 -11 54 -39.5t21 -63.5q0 -36 -21 -63.5t-54 -38.5q25 -7 43 -26t26 -44q11 33 39 54.5 t64 21.5q44 0 76 -32t32 -76q0 -36 -21.5 -64t-54.5 -39q25 -8 44 -26t26 -43q11 33 38.5 54t63.5 21q35 0 63.5 -21t39.5 -54q11 33 38.5 54t63.5 21q44 0 76.5 -32t32.5 -76q0 -45 -32 -76t-77 -31q-36 0 -63.5 19.5t-38.5 52.5q-10 -32 -39 -52t-64 -20q-36 0 -63.5 19.5 t-38.5 52.5q-11 -32 -39 -52t-63 -20q-46 0 -76.5 30.5t-30.5 76.5q0 35 20 63t52 39q-52 16 -68 68q-11 -32 -39 -52t-63 -20q-46 0 -76.5 30.5t-30.5 76.5zM174 895q0 45 31 77t76 32q35 0 63 -21.5t39 -54.5q11 33 38.5 54.5t63.5 21.5q35 0 63.5 -21.5t39.5 -54.5 q11 33 38.5 54.5t63.5 21.5q44 0 76.5 -32.5t32.5 -76.5q0 -36 -21.5 -63.5t-54.5 -38.5q25 -8 43.5 -26.5t26.5 -43.5q11 33 38.5 54.5t63.5 21.5q44 0 76.5 -32.5t32.5 -76.5q0 -36 -21.5 -63.5t-54.5 -38.5q33 -11 54.5 -39.5t21.5 -63.5q0 -36 -21.5 -63.5t-54.5 -38.5 q33 -11 54.5 -39t21.5 -63q0 -45 -32 -76t-77 -31q-46 0 -76.5 30.5t-30.5 76.5q0 35 20 63t52 39q-33 11 -52.5 38.5t-19.5 63.5q0 35 20 64t52 39q-51 16 -67 67q-10 -32 -39 -51.5t-64 -19.5q-46 0 -76 30t-30 76q0 35 19.5 64t51.5 39q-51 16 -67 67q-10 -32 -39 -52 t-64 -20q-36 0 -63.5 19.5t-38.5 52.5q-11 -32 -39 -52t-63 -20q-46 0 -76.5 30.5t-30.5 76.5zM379 485q0 45 30.5 77t75.5 32q44 0 76.5 -32.5t32.5 -76.5q0 -45 -32 -75.5t-77 -30.5q-46 0 -76 30t-30 76z" />
<glyph unicode="1" d="M-31 76q0 45 31 76.5t76 31.5q35 0 63 -21t39 -54q11 33 39 54t64 21q35 0 63 -21t39 -54q16 53 68 69q-32 11 -52 39t-20 64q0 35 20 63t52 39q-33 11 -52.5 38.5t-19.5 63.5q0 35 20 64t52 39q-33 11 -52.5 38.5t-19.5 63.5q0 35 20 64t52 39q-53 16 -68 67 q-11 -32 -39 -52t-63 -20q-36 0 -64 20t-39 52q-11 -32 -39 -52t-63 -20q-46 0 -76.5 30.5t-30.5 76.5q0 45 31 77t76 32q35 0 63 -21.5t39 -54.5q11 33 39 54.5t64 21.5q35 0 63 -21.5t39 -54.5q11 33 38.5 54.5t63.5 21.5q44 0 76.5 -32.5t32.5 -76.5q0 -36 -21.5 -63.5 t-54.5 -38.5q33 -11 54.5 -39.5t21.5 -63.5q0 -36 -21.5 -63.5t-54.5 -38.5q33 -11 54.5 -39.5t21.5 -63.5q0 -36 -21.5 -63.5t-54.5 -38.5q33 -11 54.5 -39t21.5 -63q0 -36 -21.5 -64t-54.5 -39q25 -8 44 -26t26 -43q11 33 38.5 54t63.5 21q35 0 63.5 -21t39.5 -54 q11 33 38.5 54t63.5 21q44 0 76.5 -32t32.5 -76q0 -45 -32 -76t-77 -31q-36 0 -63.5 19.5t-38.5 52.5q-10 -32 -39 -52t-64 -20q-36 0 -63.5 19.5t-38.5 52.5q-10 -32 -39 -52t-64 -20q-36 0 -63.5 19.5t-38.5 52.5q-11 -32 -39 -52t-63 -20q-36 0 -64 20t-39 52 q-11 -32 -39 -52t-63 -20q-46 0 -76.5 30.5t-30.5 76.5z" />
<glyph unicode="2" d="M-31 76q0 45 31 76.5t76 31.5q35 0 63 -21t39 -54q16 53 68 69q-32 11 -52 39t-20 64q0 45 31 76.5t76 31.5q44 0 76 -32t32 -76q0 -36 -21.5 -64t-54.5 -39q25 -8 44 -26t26 -43q11 33 38.5 54t63.5 21q35 0 63.5 -21t39.5 -54q11 33 38.5 54t63.5 21q35 0 63.5 -21 t39.5 -54q11 33 38.5 54t63.5 21q44 0 76.5 -32t32.5 -76q0 -45 -32 -76t-77 -31q-36 0 -63.5 19.5t-38.5 52.5q-10 -32 -39 -52t-64 -20q-36 0 -63.5 19.5t-38.5 52.5q-10 -32 -39 -52t-64 -20q-36 0 -63.5 19.5t-38.5 52.5q-11 -32 -39 -52t-63 -20q-36 0 -64 20t-39 52 q-11 -32 -39 -52t-63 -20q-46 0 -76.5 30.5t-30.5 76.5zM-31 690q0 45 31 77t76 32q44 0 76 -32.5t32 -76.5q0 -45 -31.5 -75.5t-76.5 -30.5q-46 0 -76.5 30t-30.5 76zM174 895q0 45 31 77t76 32q35 0 63 -21.5t39 -54.5q11 33 38.5 54.5t63.5 21.5q35 0 63.5 -21.5 t39.5 -54.5q11 33 38.5 54.5t63.5 21.5q44 0 76.5 -32.5t32.5 -76.5q0 -45 -32 -76t-77 -31q-36 0 -63.5 19.5t-38.5 52.5q-10 -32 -39 -52t-64 -20q-36 0 -63.5 19.5t-38.5 52.5q-11 -32 -39 -52t-63 -20q-46 0 -76.5 30.5t-30.5 76.5zM379 485q0 45 30.5 77t75.5 32 q35 0 63.5 -21.5t39.5 -54.5q11 33 38.5 54.5t63.5 21.5q44 0 76.5 -32.5t32.5 -76.5q0 -45 -32 -75.5t-77 -30.5q-36 0 -63.5 19.5t-38.5 52.5q-10 -32 -39 -52t-64 -20q-46 0 -76 30t-30 76zM788 690q0 45 31 77t76 32q44 0 76.5 -32.5t32.5 -76.5q0 -45 -32 -75.5 t-77 -30.5q-46 0 -76.5 30t-30.5 76z" />
<glyph unicode="3" d="M-31 76q0 45 31 76.5t76 31.5q35 0 63 -21t39 -54q11 33 39 54t64 21q35 0 63 -21t39 -54q11 33 38.5 54t63.5 21q35 0 63.5 -21t39.5 -54q11 33 38.5 54t63.5 21q44 0 76.5 -32t32.5 -76q0 -45 -32 -76t-77 -31q-36 0 -63.5 19.5t-38.5 52.5q-10 -32 -39 -52t-64 -20 q-36 0 -63.5 19.5t-38.5 52.5q-11 -32 -39 -52t-63 -20q-36 0 -64 20t-39 52q-11 -32 -39 -52t-63 -20q-46 0 -76.5 30.5t-30.5 76.5zM-31 895q0 45 31 77t76 32q35 0 63 -21.5t39 -54.5q11 33 39 54.5t64 21.5q35 0 63 -21.5t39 -54.5q11 33 38.5 54.5t63.5 21.5 q35 0 63.5 -21.5t39.5 -54.5q11 33 38.5 54.5t63.5 21.5q44 0 76.5 -32.5t32.5 -76.5q0 -45 -32 -76t-77 -31q-36 0 -63.5 19.5t-38.5 52.5q-10 -32 -39 -52t-64 -20q-36 0 -63.5 19.5t-38.5 52.5q-11 -32 -39 -52t-63 -20q-36 0 -64 20t-39 52q-11 -32 -39 -52t-63 -20 q-46 0 -76.5 30.5t-30.5 76.5zM174 485q0 45 31 77t76 32q35 0 63 -21.5t39 -54.5q11 33 38.5 54.5t63.5 21.5q35 0 63.5 -21.5t39.5 -54.5q11 33 38.5 54.5t63.5 21.5q44 0 76.5 -32.5t32.5 -76.5q0 -45 -32 -75.5t-77 -30.5q-36 0 -63.5 19.5t-38.5 52.5q-10 -32 -39 -52 t-64 -20q-36 0 -63.5 19.5t-38.5 52.5q-11 -32 -39 -52t-63 -20q-46 0 -76.5 30t-30.5 76zM788 281q0 45 31 76.5t76 31.5q44 0 76.5 -32t32.5 -76q0 -45 -32 -76t-77 -31q-46 0 -76.5 30.5t-30.5 76.5zM788 690q0 45 31 77t76 32q44 0 76.5 -32.5t32.5 -76.5 q0 -45 -32 -75.5t-77 -30.5q-46 0 -76.5 30t-30.5 76z" />
<glyph unicode="4" d="M-31 281q0 45 31 76.5t76 31.5q35 0 63 -21.5t39 -54.5q16 54 68 70q-33 11 -52.5 38.5t-19.5 63.5q0 45 31 77t76 32q44 0 76 -32.5t32 -76.5q0 -36 -21.5 -63.5t-54.5 -38.5q25 -8 43.5 -26.5t26.5 -43.5q11 33 38.5 54.5t63.5 21.5q35 0 63.5 -21.5t39.5 -54.5 q17 55 67 70q-32 11 -51.5 38t-19.5 64q0 35 19.5 64t51.5 39q-51 16 -67 67q-10 -32 -39 -51.5t-64 -19.5q-46 0 -76 30t-30 76q0 45 30.5 77t75.5 32q35 0 63.5 -21.5t39.5 -54.5q17 55 67 70q-32 11 -51.5 38t-19.5 64q0 45 30.5 77t75.5 32q44 0 76.5 -32.5t32.5 -76.5 q0 -36 -21.5 -63.5t-54.5 -38.5q33 -11 54.5 -39.5t21.5 -63.5q0 -36 -21.5 -63.5t-54.5 -38.5q33 -11 54.5 -39.5t21.5 -63.5q0 -36 -21.5 -63.5t-54.5 -38.5q25 -8 43.5 -26.5t26.5 -43.5q11 33 38.5 54.5t63.5 21.5q44 0 76.5 -32t32.5 -76q0 -45 -32 -76t-77 -31 q-36 0 -63.5 19.5t-38.5 52.5q-16 -52 -70 -68q33 -11 54.5 -39t21.5 -63q0 -45 -32 -76t-77 -31q-46 0 -76 30.5t-30 76.5q0 35 19.5 63.5t51.5 38.5q-51 15 -67 68q-10 -32 -39 -52t-64 -20q-36 0 -63.5 19.5t-38.5 52.5q-11 -32 -39 -52t-63 -20q-36 0 -64 20t-39 52 q-11 -32 -39 -52t-63 -20q-46 0 -76.5 30.5t-30.5 76.5z" />
<glyph unicode="5" d="M-31 76q0 45 31 76.5t76 31.5q35 0 63 -21t39 -54q11 33 39 54t64 21q35 0 63 -21t39 -54q11 33 38.5 54t63.5 21q35 0 63.5 -21t39.5 -54q11 33 38.5 54t63.5 21q44 0 76.5 -32t32.5 -76q0 -45 -32 -76t-77 -31q-36 0 -63.5 19.5t-38.5 52.5q-10 -32 -39 -52t-64 -20 q-36 0 -63.5 19.5t-38.5 52.5q-11 -32 -39 -52t-63 -20q-36 0 -64 20t-39 52q-11 -32 -39 -52t-63 -20q-46 0 -76.5 30.5t-30.5 76.5zM-31 485q0 35 20 64t52 39q-33 11 -52.5 38.5t-19.5 63.5q0 35 20 64t52 39q-33 11 -52.5 38.5t-19.5 63.5q0 45 31 77t76 32 q35 0 63 -21.5t39 -54.5q11 33 39 54.5t64 21.5q35 0 63 -21.5t39 -54.5q11 33 38.5 54.5t63.5 21.5q35 0 63.5 -21.5t39.5 -54.5q11 33 38.5 54.5t63.5 21.5q35 0 63.5 -21.5t39.5 -54.5q11 33 38.5 54.5t63.5 21.5q44 0 76.5 -32.5t32.5 -76.5q0 -45 -32 -76t-77 -31 q-36 0 -63.5 19.5t-38.5 52.5q-10 -32 -39 -52t-64 -20q-36 0 -63.5 19.5t-38.5 52.5q-10 -32 -39 -52t-64 -20q-36 0 -63.5 19.5t-38.5 52.5q-11 -32 -39 -52t-63 -20q-36 0 -64 20t-39 52q-15 -51 -69 -67q33 -11 54 -39.5t21 -63.5q0 -36 -21 -63.5t-54 -38.5 q25 -7 43 -26t26 -44q11 33 39 54.5t64 21.5q35 0 63 -21.5t39 -54.5q11 33 38.5 54.5t63.5 21.5q35 0 63.5 -21.5t39.5 -54.5q11 33 38.5 54.5t63.5 21.5q44 0 76.5 -32.5t32.5 -76.5q0 -45 -32 -75.5t-77 -30.5q-36 0 -63.5 19.5t-38.5 52.5q-10 -32 -39 -52t-64 -20 q-36 0 -63.5 19.5t-38.5 52.5q-11 -32 -39 -52t-63 -20q-36 0 -64 20t-39 52q-11 -32 -39 -52t-63 -20q-46 0 -76.5 30t-30.5 76zM788 281q0 45 31 76.5t76 31.5q44 0 76.5 -32t32.5 -76q0 -45 -32 -76t-77 -31q-46 0 -76.5 30.5t-30.5 76.5z" />
<glyph unicode="6" d="M-31 281q0 35 20 63t52 39q-33 11 -52.5 38.5t-19.5 63.5q0 35 20 64t52 39q-33 11 -52.5 38.5t-19.5 63.5q0 45 31 77t76 32q44 0 76 -32.5t32 -76.5q0 -36 -21 -63.5t-54 -38.5q25 -7 43 -26t26 -44q11 33 39 54.5t64 21.5q35 0 63 -21.5t39 -54.5q11 33 38.5 54.5 t63.5 21.5q35 0 63.5 -21.5t39.5 -54.5q11 33 38.5 54.5t63.5 21.5q44 0 76.5 -32.5t32.5 -76.5q0 -45 -32 -75.5t-77 -30.5q-36 0 -63.5 19.5t-38.5 52.5q-10 -32 -39 -52t-64 -20q-36 0 -63.5 19.5t-38.5 52.5q-11 -32 -39 -52t-63 -20q-36 0 -64 20t-39 52 q-16 -52 -69 -68q33 -11 54 -39t21 -63q0 -45 -31.5 -76t-76.5 -31q-46 0 -76.5 30.5t-30.5 76.5zM174 76q0 45 31 76.5t76 31.5q35 0 63 -21t39 -54q11 33 38.5 54t63.5 21q35 0 63.5 -21t39.5 -54q11 33 38.5 54t63.5 21q44 0 76.5 -32t32.5 -76q0 -45 -32 -76t-77 -31 q-36 0 -63.5 19.5t-38.5 52.5q-10 -32 -39 -52t-64 -20q-36 0 -63.5 19.5t-38.5 52.5q-11 -32 -39 -52t-63 -20q-46 0 -76.5 30.5t-30.5 76.5zM174 895q0 45 31 77t76 32q35 0 63 -21.5t39 -54.5q11 33 38.5 54.5t63.5 21.5q35 0 63.5 -21.5t39.5 -54.5q11 33 38.5 54.5 t63.5 21.5q44 0 76.5 -32.5t32.5 -76.5q0 -45 -32 -76t-77 -31q-36 0 -63.5 19.5t-38.5 52.5q-10 -32 -39 -52t-64 -20q-36 0 -63.5 19.5t-38.5 52.5q-11 -32 -39 -52t-63 -20q-46 0 -76.5 30.5t-30.5 76.5zM788 281q0 45 31 76.5t76 31.5q44 0 76.5 -32t32.5 -76 q0 -45 -32 -76t-77 -31q-46 0 -76.5 30.5t-30.5 76.5z" />
<glyph unicode="7" d="M-31 895q0 45 31 77t76 32q35 0 63 -21.5t39 -54.5q11 33 39 54.5t64 21.5q35 0 63 -21.5t39 -54.5q11 33 38.5 54.5t63.5 21.5q35 0 63.5 -21.5t39.5 -54.5q11 33 38.5 54.5t63.5 21.5q35 0 63.5 -21.5t39.5 -54.5q11 33 38.5 54.5t63.5 21.5q44 0 76.5 -32.5 t32.5 -76.5q0 -36 -21.5 -63.5t-54.5 -38.5q33 -11 54.5 -39.5t21.5 -63.5q0 -45 -32 -75.5t-77 -30.5q-46 0 -76.5 30t-30.5 76q0 35 20 64t52 39q-51 16 -67 67q-10 -32 -39 -52t-64 -20q-36 0 -63.5 19.5t-38.5 52.5q-10 -32 -39 -52t-64 -20q-36 0 -63.5 19.5 t-38.5 52.5q-11 -32 -39 -52t-63 -20q-36 0 -64 20t-39 52q-11 -32 -39 -52t-63 -20q-46 0 -76.5 30.5t-30.5 76.5zM174 76q0 45 31 76.5t76 31.5q44 0 76 -32t32 -76q0 -45 -31.5 -76t-76.5 -31q-46 0 -76.5 30.5t-30.5 76.5zM379 281q0 45 30.5 76.5t75.5 31.5 q44 0 76.5 -32t32.5 -76q0 -45 -32 -76t-77 -31q-46 0 -76 30.5t-30 76.5zM584 485q0 45 30.5 77t75.5 32q44 0 76.5 -32.5t32.5 -76.5q0 -45 -32 -75.5t-77 -30.5q-46 0 -76 30t-30 76z" />
<glyph unicode="8" d="M-31 281q0 45 31 76.5t76 31.5q44 0 76 -32t32 -76q0 -45 -31.5 -76t-76.5 -31q-46 0 -76.5 30.5t-30.5 76.5zM-31 690q0 45 31 77t76 32q44 0 76 -32.5t32 -76.5q0 -45 -31.5 -75.5t-76.5 -30.5q-46 0 -76.5 30t-30.5 76zM174 76q0 45 31 76.5t76 31.5q35 0 63 -21 t39 -54q11 33 38.5 54t63.5 21q35 0 63.5 -21t39.5 -54q11 33 38.5 54t63.5 21q44 0 76.5 -32t32.5 -76q0 -45 -32 -76t-77 -31q-36 0 -63.5 19.5t-38.5 52.5q-10 -32 -39 -52t-64 -20q-36 0 -63.5 19.5t-38.5 52.5q-11 -32 -39 -52t-63 -20q-46 0 -76.5 30.5t-30.5 76.5z M174 485q0 45 31 77t76 32q35 0 63 -21.5t39 -54.5q11 33 38.5 54.5t63.5 21.5q35 0 63.5 -21.5t39.5 -54.5q11 33 38.5 54.5t63.5 21.5q44 0 76.5 -32.5t32.5 -76.5q0 -45 -32 -75.5t-77 -30.5q-36 0 -63.5 19.5t-38.5 52.5q-10 -32 -39 -52t-64 -20q-36 0 -63.5 19.5 t-38.5 52.5q-11 -32 -39 -52t-63 -20q-46 0 -76.5 30t-30.5 76zM174 895q0 45 31 77t76 32q35 0 63 -21.5t39 -54.5q11 33 38.5 54.5t63.5 21.5q35 0 63.5 -21.5t39.5 -54.5q11 33 38.5 54.5t63.5 21.5q44 0 76.5 -32.5t32.5 -76.5q0 -45 -32 -76t-77 -31q-36 0 -63.5 19.5 t-38.5 52.5q-10 -32 -39 -52t-64 -20q-36 0 -63.5 19.5t-38.5 52.5q-11 -32 -39 -52t-63 -20q-46 0 -76.5 30.5t-30.5 76.5zM788 281q0 45 31 76.5t76 31.5q44 0 76.5 -32t32.5 -76q0 -45 -32 -76t-77 -31q-46 0 -76.5 30.5t-30.5 76.5zM788 690q0 45 31 77t76 32 q44 0 76.5 -32.5t32.5 -76.5q0 -45 -32 -75.5t-77 -30.5q-46 0 -76.5 30t-30.5 76z" />
<glyph unicode="9" d="M-31 690q0 45 31 77t76 32q44 0 76 -32.5t32 -76.5q0 -45 -31.5 -75.5t-76.5 -30.5q-46 0 -76.5 30t-30.5 76zM174 76q0 45 31 76.5t76 31.5q35 0 63 -21t39 -54q11 33 38.5 54t63.5 21q35 0 63.5 -21t39.5 -54q11 33 38.5 54t63.5 21q44 0 76.5 -32t32.5 -76 q0 -45 -32 -76t-77 -31q-36 0 -63.5 19.5t-38.5 52.5q-10 -32 -39 -52t-64 -20q-36 0 -63.5 19.5t-38.5 52.5q-11 -32 -39 -52t-63 -20q-46 0 -76.5 30.5t-30.5 76.5zM174 485q0 45 31 77t76 32q35 0 63 -21.5t39 -54.5q11 33 38.5 54.5t63.5 21.5q35 0 63.5 -21.5 t39.5 -54.5q11 33 38.5 54.5t63.5 21.5q35 0 63.5 -21.5t39.5 -54.5q17 55 67 70q-33 11 -52.5 38.5t-19.5 63.5q0 45 31 77t76 32q44 0 76.5 -32.5t32.5 -76.5q0 -36 -21.5 -63.5t-54.5 -38.5q33 -11 54.5 -39.5t21.5 -63.5q0 -36 -21.5 -63.5t-54.5 -38.5q33 -11 54.5 -39 t21.5 -63q0 -45 -32 -76t-77 -31q-46 0 -76.5 30.5t-30.5 76.5q0 35 20 63t52 39q-51 15 -67 68q-10 -32 -39 -52t-64 -20q-36 0 -63.5 19.5t-38.5 52.5q-10 -32 -39 -52t-64 -20q-36 0 -63.5 19.5t-38.5 52.5q-11 -32 -39 -52t-63 -20q-46 0 -76.5 30t-30.5 76zM174 895 q0 45 31 77t76 32q35 0 63 -21.5t39 -54.5q11 33 38.5 54.5t63.5 21.5q35 0 63.5 -21.5t39.5 -54.5q11 33 38.5 54.5t63.5 21.5q44 0 76.5 -32.5t32.5 -76.5q0 -45 -32 -76t-77 -31q-36 0 -63.5 19.5t-38.5 52.5q-10 -32 -39 -52t-64 -20q-36 0 -63.5 19.5t-38.5 52.5 q-11 -32 -39 -52t-63 -20q-46 0 -76.5 30.5t-30.5 76.5z" />
<glyph unicode=":" d="M379 76q0 35 20 63t52 39q-32 11 -52 39t-20 64q0 45 30.5 76.5t75.5 31.5q44 0 76.5 -32t32.5 -76q0 -36 -21.5 -64t-54.5 -39q33 -11 54.5 -39t21.5 -63q0 -45 -32 -76t-77 -31q-46 0 -76 30.5t-30 76.5zM379 690q0 35 20 64t52 39q-33 11 -52.5 38.5t-19.5 63.5 q0 45 30.5 77t75.5 32q44 0 76.5 -32.5t32.5 -76.5q0 -36 -21.5 -63.5t-54.5 -38.5q33 -11 54.5 -39.5t21.5 -63.5q0 -45 -32 -75.5t-77 -30.5q-46 0 -76 30t-30 76z" />
<glyph unicode=";" d="M174 -129q0 45 31 77t76 32q44 0 76 -32.5t32 -76.5q0 -45 -31.5 -76t-76.5 -31q-46 0 -76.5 30.5t-30.5 76.5zM379 76q0 35 20 63t52 39q-32 11 -52 39t-20 64q0 45 30.5 76.5t75.5 31.5q44 0 76.5 -32t32.5 -76q0 -36 -21.5 -64t-54.5 -39q33 -11 54.5 -39t21.5 -63 q0 -45 -32 -76t-77 -31q-46 0 -76 30.5t-30 76.5zM379 690q0 35 20 64t52 39q-33 11 -52.5 38.5t-19.5 63.5q0 45 30.5 77t75.5 32q44 0 76.5 -32.5t32.5 -76.5q0 -36 -21.5 -63.5t-54.5 -38.5q33 -11 54.5 -39.5t21.5 -63.5q0 -45 -32 -75.5t-77 -30.5q-46 0 -76 30t-30 76 z" />
<glyph unicode="&#x3c;" d="M174 485q0 45 31 77t76 32q44 0 76 -32.5t32 -76.5q0 -45 -31.5 -75.5t-76.5 -30.5q-46 0 -76.5 30t-30.5 76zM379 281q0 45 30.5 76.5t75.5 31.5q44 0 76.5 -32t32.5 -76q0 -45 -32 -76t-77 -31q-46 0 -76 30.5t-30 76.5zM379 690q0 45 30.5 77t75.5 32q44 0 76.5 -32.5 t32.5 -76.5q0 -45 -32 -75.5t-77 -30.5q-46 0 -76 30t-30 76zM584 76q0 45 30.5 76.5t75.5 31.5q44 0 76.5 -32t32.5 -76q0 -45 -32 -76t-77 -31q-46 0 -76 30.5t-30 76.5zM584 895q0 45 30.5 77t75.5 32q44 0 76.5 -32.5t32.5 -76.5q0 -45 -32 -76t-77 -31q-46 0 -76 30.5 t-30 76.5z" />
<glyph unicode="=" d="M-31 281q0 45 31 76.5t76 31.5q35 0 63 -21.5t39 -54.5q11 33 39 54.5t64 21.5q35 0 63 -21.5t39 -54.5q11 33 38.5 54.5t63.5 21.5q35 0 63.5 -21.5t39.5 -54.5q11 33 38.5 54.5t63.5 21.5q35 0 63.5 -21.5t39.5 -54.5q11 33 38.5 54.5t63.5 21.5q44 0 76.5 -32 t32.5 -76q0 -45 -32 -76t-77 -31q-36 0 -63.5 19.5t-38.5 52.5q-10 -32 -39 -52t-64 -20q-36 0 -63.5 19.5t-38.5 52.5q-10 -32 -39 -52t-64 -20q-36 0 -63.5 19.5t-38.5 52.5q-11 -32 -39 -52t-63 -20q-36 0 -64 20t-39 52q-11 -32 -39 -52t-63 -20q-46 0 -76.5 30.5 t-30.5 76.5zM-31 690q0 45 31 77t76 32q35 0 63 -21.5t39 -54.5q11 33 39 54.5t64 21.5q35 0 63 -21.5t39 -54.5q11 33 38.5 54.5t63.5 21.5q35 0 63.5 -21.5t39.5 -54.5q11 33 38.5 54.5t63.5 21.5q35 0 63.5 -21.5t39.5 -54.5q11 33 38.5 54.5t63.5 21.5q44 0 76.5 -32.5 t32.5 -76.5q0 -45 -32 -75.5t-77 -30.5q-37 0 -64 19.5t-38 51.5q-10 -32 -39 -51.5t-64 -19.5q-37 0 -64 19.5t-38 51.5q-10 -32 -39 -51.5t-64 -19.5q-37 0 -64 19.5t-38 51.5q-10 -32 -38.5 -51.5t-63.5 -19.5q-37 0 -64.5 19.5t-38.5 51.5q-10 -32 -38.5 -51.5 t-63.5 -19.5q-46 0 -76.5 30t-30.5 76z" />
<glyph unicode="&#x3e;" d="M379 76q0 45 30.5 76.5t75.5 31.5q44 0 76.5 -32t32.5 -76q0 -45 -32 -76t-77 -31q-46 0 -76 30.5t-30 76.5zM379 895q0 45 30.5 77t75.5 32q44 0 76.5 -32.5t32.5 -76.5q0 -45 -32 -76t-77 -31q-46 0 -76 30.5t-30 76.5zM584 281q0 45 30.5 76.5t75.5 31.5 q44 0 76.5 -32t32.5 -76q0 -45 -32 -76t-77 -31q-46 0 -76 30.5t-30 76.5zM584 690q0 45 30.5 77t75.5 32q44 0 76.5 -32.5t32.5 -76.5q0 -45 -32 -75.5t-77 -30.5q-46 0 -76 30t-30 76zM788 485q0 45 31 77t76 32q44 0 76.5 -32.5t32.5 -76.5q0 -45 -32 -75.5t-77 -30.5 q-46 0 -76.5 30t-30.5 76z" />
<glyph unicode="?" d="M-31 690q0 45 31 77t76 32q44 0 76 -32.5t32 -76.5q0 -45 -31.5 -75.5t-76.5 -30.5q-46 0 -76.5 30t-30.5 76zM174 895q0 45 31 77t76 32q35 0 63 -21.5t39 -54.5q11 33 38.5 54.5t63.5 21.5q35 0 63.5 -21.5t39.5 -54.5q11 33 38.5 54.5t63.5 21.5q44 0 76.5 -32.5 t32.5 -76.5q0 -45 -32 -76t-77 -31q-36 0 -63.5 19.5t-38.5 52.5q-10 -32 -39 -52t-64 -20q-36 0 -63.5 19.5t-38.5 52.5q-11 -32 -39 -52t-63 -20q-46 0 -76.5 30.5t-30.5 76.5zM379 76q0 45 30.5 76.5t75.5 31.5q44 0 76.5 -32t32.5 -76q0 -45 -32 -76t-77 -31 q-46 0 -76 30.5t-30 76.5zM379 485q0 45 30.5 77t75.5 32q35 0 63.5 -21.5t39.5 -54.5q11 33 38.5 54.5t63.5 21.5q44 0 76.5 -32.5t32.5 -76.5q0 -45 -32 -75.5t-77 -30.5q-36 0 -63.5 19.5t-38.5 52.5q-10 -32 -39 -52t-64 -20q-46 0 -76 30t-30 76zM788 690q0 45 31 77 t76 32q44 0 76.5 -32.5t32.5 -76.5q0 -45 -32 -75.5t-77 -30.5q-46 0 -76.5 30t-30.5 76z" />
<glyph unicode="@" d="M-31 76q0 35 20 63t52 39q-32 11 -52 39t-20 64q0 35 20 63t52 39q-33 11 -52.5 38.5t-19.5 63.5q0 35 20 64t52 39q-33 11 -52.5 38.5t-19.5 63.5q0 35 20 64t52 39q-33 11 -52.5 38.5t-19.5 63.5q0 45 31 77t76 32q44 0 76 -32.5t32 -76.5q0 -36 -21 -63.5t-54 -38.5 q33 -11 54 -39.5t21 -63.5q0 -36 -21 -63.5t-54 -38.5q25 -7 43 -26t26 -44q11 33 39 54.5t64 21.5q44 0 76 -32.5t32 -76.5q0 -36 -21.5 -63.5t-54.5 -38.5q25 -8 43.5 -26.5t26.5 -43.5q11 33 38.5 54.5t63.5 21.5q35 0 63.5 -21.5t39.5 -54.5q17 55 67 70 q-32 11 -51.5 38t-19.5 64q0 35 19.5 64t51.5 39q-51 16 -67 67q-10 -32 -39 -51.5t-64 -19.5q-46 0 -76 30t-30 76q0 45 30.5 77t75.5 32q35 0 63.5 -21.5t39.5 -54.5q11 33 38.5 54.5t63.5 21.5q35 0 63.5 -21.5t39.5 -54.5q17 55 67 70q-33 11 -52.5 38.5t-19.5 63.5 q0 45 31 77t76 32q44 0 76.5 -32.5t32.5 -76.5q0 -36 -21.5 -63.5t-54.5 -38.5q33 -11 54.5 -39.5t21.5 -63.5q0 -36 -21.5 -63.5t-54.5 -38.5q33 -11 54.5 -39.5t21.5 -63.5q0 -36 -21.5 -63.5t-54.5 -38.5q33 -11 54.5 -39t21.5 -63q0 -45 -32 -76t-77 -31 q-36 0 -63.5 19.5t-38.5 52.5q-10 -32 -39 -52t-64 -20q-36 0 -63.5 19.5t-38.5 52.5q-10 -32 -39 -52t-64 -20q-36 0 -63.5 19.5t-38.5 52.5q-11 -32 -39 -52t-63 -20q-36 0 -64 20t-39 52q-16 -52 -69 -68q33 -11 54 -39t21 -63q0 -45 -31.5 -76t-76.5 -31 q-46 0 -76.5 30.5t-30.5 76.5zM109 383q25 -7 43 -26t26 -44q16 54 68 70q-52 16 -68 68q-16 -52 -69 -68zM174 -129q0 45 31 77t76 32q35 0 63 -20.5t39 -53.5q11 33 38.5 53.5t63.5 20.5q35 0 63.5 -21t39.5 -53q11 33 38.5 53.5t63.5 20.5q35 0 63.5 -21t39.5 -53 q11 33 38.5 53.5t63.5 20.5q44 0 76.5 -32.5t32.5 -76.5q0 -45 -32 -76t-77 -31q-36 0 -63.5 19.5t-38.5 52.5q-10 -32 -39 -52t-64 -20q-36 0 -63.5 19.5t-38.5 52.5q-10 -32 -39 -52t-64 -20q-36 0 -63.5 19.5t-38.5 52.5q-11 -32 -39 -52t-63 -20q-46 0 -76.5 30.5 t-30.5 76.5zM174 1100q0 45 31 76.5t76 31.5q35 0 63 -21t39 -54q11 33 38.5 54t63.5 21q35 0 63.5 -21t39.5 -54q11 33 38.5 54t63.5 21q44 0 76.5 -32t32.5 -76q0 -45 -32 -76t-77 -31q-36 0 -63.5 19.5t-38.5 52.5q-10 -32 -39 -52t-64 -20q-36 0 -63.5 19.5t-38.5 52.5 q-11 -32 -39 -52t-63 -20q-46 0 -76.5 30.5t-30.5 76.5zM723 383q25 -8 43.5 -26.5t26.5 -43.5q17 55 67 70q-51 15 -67 68q-16 -52 -70 -68zM723 588q25 -8 43.5 -26.5t26.5 -43.5q17 55 67 70q-51 16 -67 67q-15 -50 -70 -67z" />
<glyph unicode="A" d="M-31 76q0 35 20 63t52 39q-32 11 -52 39t-20 64q0 35 20 63t52 39q-33 11 -52.5 38.5t-19.5 63.5q0 35 20 64t52 39q-33 11 -52.5 38.5t-19.5 63.5q0 45 31 77t76 32q44 0 76 -32.5t32 -76.5q0 -36 -21 -63.5t-54 -38.5q25 -7 43 -26t26 -44q11 33 39 54.5t64 21.5 q35 0 63 -21.5t39 -54.5q11 33 38.5 54.5t63.5 21.5q35 0 63.5 -21.5t39.5 -54.5q11 33 38.5 54.5t63.5 21.5q35 0 63.5 -21.5t39.5 -54.5q17 55 67 70q-33 11 -52.5 38.5t-19.5 63.5q0 45 31 77t76 32q44 0 76.5 -32.5t32.5 -76.5q0 -36 -21.5 -63.5t-54.5 -38.5 q33 -11 54.5 -39.5t21.5 -63.5q0 -36 -21.5 -63.5t-54.5 -38.5q33 -11 54.5 -39t21.5 -63q0 -36 -21.5 -64t-54.5 -39q33 -11 54.5 -39t21.5 -63q0 -45 -32 -76t-77 -31q-46 0 -76.5 30.5t-30.5 76.5q0 35 20 63t52 39q-32 11 -52 39t-20 64q0 35 20 63t52 39q-51 15 -67 68 q-10 -32 -39 -52t-64 -20q-36 0 -63.5 19.5t-38.5 52.5q-10 -32 -39 -52t-64 -20q-36 0 -63.5 19.5t-38.5 52.5q-11 -32 -39 -52t-63 -20q-36 0 -64 20t-39 52q-16 -52 -69 -68q33 -11 54 -39t21 -63q0 -36 -21 -64t-54 -39q33 -11 54 -39t21 -63q0 -45 -31.5 -76t-76.5 -31 q-46 0 -76.5 30.5t-30.5 76.5zM174 895q0 45 31 77t76 32q35 0 63 -21.5t39 -54.5q11 33 38.5 54.5t63.5 21.5q35 0 63.5 -21.5t39.5 -54.5q11 33 38.5 54.5t63.5 21.5q44 0 76.5 -32.5t32.5 -76.5q0 -45 -32 -76t-77 -31q-36 0 -63.5 19.5t-38.5 52.5q-10 -32 -39 -52 t-64 -20q-36 0 -63.5 19.5t-38.5 52.5q-11 -32 -39 -52t-63 -20q-46 0 -76.5 30.5t-30.5 76.5z" />
<glyph unicode="B" d="M-31 76q0 35 20 63t52 39q-32 11 -52 39t-20 64q0 35 20 63t52 39q-33 11 -52.5 38.5t-19.5 63.5q0 35 20 64t52 39q-33 11 -52.5 38.5t-19.5 63.5q0 35 20 64t52 39q-33 11 -52.5 38.5t-19.5 63.5q0 45 31 77t76 32q35 0 63 -21.5t39 -54.5q11 33 39 54.5t64 21.5 q35 0 63 -21.5t39 -54.5q11 33 38.5 54.5t63.5 21.5q35 0 63.5 -21.5t39.5 -54.5q11 33 38.5 54.5t63.5 21.5q44 0 76.5 -32.5t32.5 -76.5q0 -45 -32 -76t-77 -31q-36 0 -63.5 19.5t-38.5 52.5q-10 -32 -39 -52t-64 -20q-36 0 -63.5 19.5t-38.5 52.5q-11 -32 -39 -52 t-63 -20q-36 0 -64 20t-39 52q-15 -51 -69 -67q33 -11 54 -39.5t21 -63.5q0 -36 -21 -63.5t-54 -38.5q25 -7 43 -26t26 -44q11 33 39 54.5t64 21.5q35 0 63 -21.5t39 -54.5q11 33 38.5 54.5t63.5 21.5q35 0 63.5 -21.5t39.5 -54.5q11 33 38.5 54.5t63.5 21.5 q44 0 76.5 -32.5t32.5 -76.5q0 -45 -32 -75.5t-77 -30.5q-36 0 -63.5 19.5t-38.5 52.5q-10 -32 -39 -52t-64 -20q-36 0 -63.5 19.5t-38.5 52.5q-11 -32 -39 -52t-63 -20q-36 0 -64 20t-39 52q-16 -52 -69 -68q33 -11 54 -39t21 -63q0 -36 -21 -64t-54 -39q53 -16 69 -69 q11 33 39 54t64 21q35 0 63 -21t39 -54q11 33 38.5 54t63.5 21q35 0 63.5 -21t39.5 -54q11 33 38.5 54t63.5 21q44 0 76.5 -32t32.5 -76q0 -45 -32 -76t-77 -31q-36 0 -63.5 19.5t-38.5 52.5q-10 -32 -39 -52t-64 -20q-36 0 -63.5 19.5t-38.5 52.5q-11 -32 -39 -52t-63 -20 q-36 0 -64 20t-39 52q-11 -32 -39 -52t-63 -20q-46 0 -76.5 30.5t-30.5 76.5zM788 281q0 45 31 76.5t76 31.5q44 0 76.5 -32t32.5 -76q0 -45 -32 -76t-77 -31q-46 0 -76.5 30.5t-30.5 76.5zM788 690q0 45 31 77t76 32q44 0 76.5 -32.5t32.5 -76.5q0 -45 -32 -75.5t-77 -30.5 q-46 0 -76.5 30t-30.5 76z" />
<glyph unicode="C" d="M-31 281q0 35 20 63t52 39q-33 11 -52.5 38.5t-19.5 63.5q0 35 20 64t52 39q-33 11 -52.5 38.5t-19.5 63.5q0 45 31 77t76 32q44 0 76 -32.5t32 -76.5q0 -36 -21 -63.5t-54 -38.5q33 -11 54 -39.5t21 -63.5q0 -36 -21 -63.5t-54 -38.5q33 -11 54 -39t21 -63 q0 -45 -31.5 -76t-76.5 -31q-46 0 -76.5 30.5t-30.5 76.5zM174 76q0 45 31 76.5t76 31.5q35 0 63 -21t39 -54q11 33 38.5 54t63.5 21q35 0 63.5 -21t39.5 -54q11 33 38.5 54t63.5 21q35 0 63.5 -21t39.5 -54q11 33 38.5 54t63.5 21q44 0 76.5 -32t32.5 -76q0 -45 -32 -76 t-77 -31q-36 0 -63.5 19.5t-38.5 52.5q-10 -32 -39 -52t-64 -20q-36 0 -63.5 19.5t-38.5 52.5q-10 -32 -39 -52t-64 -20q-36 0 -63.5 19.5t-38.5 52.5q-11 -32 -39 -52t-63 -20q-46 0 -76.5 30.5t-30.5 76.5zM174 895q0 45 31 77t76 32q35 0 63 -21.5t39 -54.5 q11 33 38.5 54.5t63.5 21.5q35 0 63.5 -21.5t39.5 -54.5q11 33 38.5 54.5t63.5 21.5q35 0 63.5 -21.5t39.5 -54.5q11 33 38.5 54.5t63.5 21.5q44 0 76.5 -32.5t32.5 -76.5q0 -45 -32 -76t-77 -31q-36 0 -63.5 19.5t-38.5 52.5q-10 -32 -39 -52t-64 -20q-36 0 -63.5 19.5 t-38.5 52.5q-10 -32 -39 -52t-64 -20q-36 0 -63.5 19.5t-38.5 52.5q-11 -32 -39 -52t-63 -20q-46 0 -76.5 30.5t-30.5 76.5z" />
<glyph unicode="D" d="M-31 76q0 35 20 63t52 39q-32 11 -52 39t-20 64q0 35 20 63t52 39q-33 11 -52.5 38.5t-19.5 63.5q0 35 20 64t52 39q-33 11 -52.5 38.5t-19.5 63.5q0 35 20 64t52 39q-33 11 -52.5 38.5t-19.5 63.5q0 45 31 77t76 32q35 0 63 -21.5t39 -54.5q11 33 39 54.5t64 21.5 q35 0 63 -21.5t39 -54.5q11 33 38.5 54.5t63.5 21.5q35 0 63.5 -21.5t39.5 -54.5q11 33 38.5 54.5t63.5 21.5q44 0 76.5 -32.5t32.5 -76.5q0 -45 -32 -76t-77 -31q-36 0 -63.5 19.5t-38.5 52.5q-10 -32 -39 -52t-64 -20q-36 0 -63.5 19.5t-38.5 52.5q-11 -32 -39 -52 t-63 -20q-36 0 -64 20t-39 52q-15 -51 -69 -67q33 -11 54 -39.5t21 -63.5q0 -36 -21 -63.5t-54 -38.5q33 -11 54 -39.5t21 -63.5q0 -36 -21 -63.5t-54 -38.5q33 -11 54 -39t21 -63q0 -36 -21 -64t-54 -39q53 -16 69 -69q11 33 39 54t64 21q35 0 63 -21t39 -54q11 33 38.5 54 t63.5 21q35 0 63.5 -21t39.5 -54q11 33 38.5 54t63.5 21q44 0 76.5 -32t32.5 -76q0 -45 -32 -76t-77 -31q-36 0 -63.5 19.5t-38.5 52.5q-10 -32 -39 -52t-64 -20q-36 0 -63.5 19.5t-38.5 52.5q-11 -32 -39 -52t-63 -20q-36 0 -64 20t-39 52q-11 -32 -39 -52t-63 -20 q-46 0 -76.5 30.5t-30.5 76.5zM788 281q0 35 20 63t52 39q-33 11 -52.5 38.5t-19.5 63.5q0 35 20 64t52 39q-33 11 -52.5 38.5t-19.5 63.5q0 45 31 77t76 32q44 0 76.5 -32.5t32.5 -76.5q0 -36 -21.5 -63.5t-54.5 -38.5q33 -11 54.5 -39.5t21.5 -63.5q0 -36 -21.5 -63.5 t-54.5 -38.5q33 -11 54.5 -39t21.5 -63q0 -45 -32 -76t-77 -31q-46 0 -76.5 30.5t-30.5 76.5z" />
<glyph unicode="E" d="M-31 76q0 35 20 63t52 39q-32 11 -52 39t-20 64q0 35 20 63t52 39q-33 11 -52.5 38.5t-19.5 63.5q0 35 20 64t52 39q-33 11 -52.5 38.5t-19.5 63.5q0 35 20 64t52 39q-33 11 -52.5 38.5t-19.5 63.5q0 45 31 77t76 32q35 0 63 -21.5t39 -54.5q11 33 39 54.5t64 21.5 q35 0 63 -21.5t39 -54.5q11 33 38.5 54.5t63.5 21.5q35 0 63.5 -21.5t39.5 -54.5q11 33 38.5 54.5t63.5 21.5q35 0 63.5 -21.5t39.5 -54.5q11 33 38.5 54.5t63.5 21.5q44 0 76.5 -32.5t32.5 -76.5q0 -45 -32 -76t-77 -31q-36 0 -63.5 19.5t-38.5 52.5q-10 -32 -39 -52 t-64 -20q-36 0 -63.5 19.5t-38.5 52.5q-10 -32 -39 -52t-64 -20q-36 0 -63.5 19.5t-38.5 52.5q-11 -32 -39 -52t-63 -20q-36 0 -64 20t-39 52q-15 -51 -69 -67q33 -11 54 -39.5t21 -63.5q0 -36 -21 -63.5t-54 -38.5q25 -7 43 -26t26 -44q11 33 39 54.5t64 21.5 q35 0 63 -21.5t39 -54.5q11 33 38.5 54.5t63.5 21.5q35 0 63.5 -21.5t39.5 -54.5q11 33 38.5 54.5t63.5 21.5q44 0 76.5 -32.5t32.5 -76.5q0 -45 -32 -75.5t-77 -30.5q-36 0 -63.5 19.5t-38.5 52.5q-10 -32 -39 -52t-64 -20q-36 0 -63.5 19.5t-38.5 52.5q-11 -32 -39 -52 t-63 -20q-36 0 -64 20t-39 52q-16 -52 -69 -68q33 -11 54 -39t21 -63q0 -36 -21 -64t-54 -39q53 -16 69 -69q11 33 39 54t64 21q35 0 63 -21t39 -54q11 33 38.5 54t63.5 21q35 0 63.5 -21t39.5 -54q11 33 38.5 54t63.5 21q35 0 63.5 -21t39.5 -54q11 33 38.5 54t63.5 21 q44 0 76.5 -32t32.5 -76q0 -45 -32 -76t-77 -31q-36 0 -63.5 19.5t-38.5 52.5q-10 -32 -39 -52t-64 -20q-36 0 -63.5 19.5t-38.5 52.5q-10 -32 -39 -52t-64 -20q-36 0 -63.5 19.5t-38.5 52.5q-11 -32 -39 -52t-63 -20q-36 0 -64 20t-39 52q-11 -32 -39 -52t-63 -20 q-46 0 -76.5 30.5t-30.5 76.5z" />
<glyph unicode="F" d="M-31 76q0 35 20 63t52 39q-32 11 -52 39t-20 64q0 35 20 63t52 39q-33 11 -52.5 38.5t-19.5 63.5q0 35 20 64t52 39q-33 11 -52.5 38.5t-19.5 63.5q0 35 20 64t52 39q-33 11 -52.5 38.5t-19.5 63.5q0 45 31 77t76 32q35 0 63 -21.5t39 -54.5q11 33 39 54.5t64 21.5 q35 0 63 -21.5t39 -54.5q11 33 38.5 54.5t63.5 21.5q35 0 63.5 -21.5t39.5 -54.5q11 33 38.5 54.5t63.5 21.5q35 0 63.5 -21.5t39.5 -54.5q11 33 38.5 54.5t63.5 21.5q44 0 76.5 -32.5t32.5 -76.5q0 -45 -32 -76t-77 -31q-36 0 -63.5 19.5t-38.5 52.5q-10 -32 -39 -52 t-64 -20q-36 0 -63.5 19.5t-38.5 52.5q-10 -32 -39 -52t-64 -20q-36 0 -63.5 19.5t-38.5 52.5q-11 -32 -39 -52t-63 -20q-36 0 -64 20t-39 52q-15 -51 -69 -67q33 -11 54 -39.5t21 -63.5q0 -36 -21 -63.5t-54 -38.5q25 -7 43 -26t26 -44q11 33 39 54.5t64 21.5 q35 0 63 -21.5t39 -54.5q11 33 38.5 54.5t63.5 21.5q35 0 63.5 -21.5t39.5 -54.5q11 33 38.5 54.5t63.5 21.5q44 0 76.5 -32.5t32.5 -76.5q0 -45 -32 -75.5t-77 -30.5q-36 0 -63.5 19.5t-38.5 52.5q-10 -32 -39 -52t-64 -20q-36 0 -63.5 19.5t-38.5 52.5q-11 -32 -39 -52 t-63 -20q-36 0 -64 20t-39 52q-16 -52 -69 -68q33 -11 54 -39t21 -63q0 -36 -21 -64t-54 -39q33 -11 54 -39t21 -63q0 -45 -31.5 -76t-76.5 -31q-46 0 -76.5 30.5t-30.5 76.5z" />
<glyph unicode="G" d="M-31 281q0 35 20 63t52 39q-33 11 -52.5 38.5t-19.5 63.5q0 35 20 64t52 39q-33 11 -52.5 38.5t-19.5 63.5q0 45 31 77t76 32q44 0 76 -32.5t32 -76.5q0 -36 -21 -63.5t-54 -38.5q33 -11 54 -39.5t21 -63.5q0 -36 -21 -63.5t-54 -38.5q33 -11 54 -39t21 -63 q0 -45 -31.5 -76t-76.5 -31q-46 0 -76.5 30.5t-30.5 76.5zM174 76q0 45 31 76.5t76 31.5q35 0 63 -21t39 -54q11 33 38.5 54t63.5 21q35 0 63.5 -21t39.5 -54q11 33 38.5 54t63.5 21q35 0 63.5 -21t39.5 -54q16 54 67 69q-32 11 -52 39t-20 64q0 35 20 63t52 39 q-51 15 -67 68q-10 -32 -39 -52t-64 -20q-46 0 -76 30t-30 76q0 45 30.5 77t75.5 32q35 0 63.5 -21.5t39.5 -54.5q11 33 38.5 54.5t63.5 21.5q44 0 76.5 -32.5t32.5 -76.5q0 -36 -21.5 -63.5t-54.5 -38.5q33 -11 54.5 -39t21.5 -63q0 -36 -21.5 -64t-54.5 -39 q33 -11 54.5 -39t21.5 -63q0 -45 -32 -76t-77 -31q-36 0 -63.5 19.5t-38.5 52.5q-10 -32 -39 -52t-64 -20q-36 0 -63.5 19.5t-38.5 52.5q-10 -32 -39 -52t-64 -20q-36 0 -63.5 19.5t-38.5 52.5q-11 -32 -39 -52t-63 -20q-46 0 -76.5 30.5t-30.5 76.5zM174 895q0 45 31 77 t76 32q35 0 63 -21.5t39 -54.5q11 33 38.5 54.5t63.5 21.5q35 0 63.5 -21.5t39.5 -54.5q11 33 38.5 54.5t63.5 21.5q35 0 63.5 -21.5t39.5 -54.5q11 33 38.5 54.5t63.5 21.5q44 0 76.5 -32.5t32.5 -76.5q0 -45 -32 -76t-77 -31q-36 0 -63.5 19.5t-38.5 52.5q-10 -32 -39 -52 t-64 -20q-36 0 -63.5 19.5t-38.5 52.5q-10 -32 -39 -52t-64 -20q-36 0 -63.5 19.5t-38.5 52.5q-11 -32 -39 -52t-63 -20q-46 0 -76.5 30.5t-30.5 76.5z" />
<glyph unicode="H" d="M-31 76q0 35 20 63t52 39q-32 11 -52 39t-20 64q0 35 20 63t52 39q-33 11 -52.5 38.5t-19.5 63.5q0 35 20 64t52 39q-33 11 -52.5 38.5t-19.5 63.5q0 35 20 64t52 39q-33 11 -52.5 38.5t-19.5 63.5q0 45 31 77t76 32q44 0 76 -32.5t32 -76.5q0 -36 -21 -63.5t-54 -38.5 q33 -11 54 -39.5t21 -63.5q0 -36 -21 -63.5t-54 -38.5q25 -7 43 -26t26 -44q11 33 39 54.5t64 21.5q35 0 63 -21.5t39 -54.5q11 33 38.5 54.5t63.5 21.5q35 0 63.5 -21.5t39.5 -54.5q11 33 38.5 54.5t63.5 21.5q35 0 63.5 -21.5t39.5 -54.5q17 55 67 70q-33 11 -52.5 38.5 t-19.5 63.5q0 35 20 64t52 39q-33 11 -52.5 38.5t-19.5 63.5q0 45 31 77t76 32q44 0 76.5 -32.5t32.5 -76.5q0 -36 -21.5 -63.5t-54.5 -38.5q33 -11 54.5 -39.5t21.5 -63.5q0 -36 -21.5 -63.5t-54.5 -38.5q33 -11 54.5 -39.5t21.5 -63.5q0 -36 -21.5 -63.5t-54.5 -38.5 q33 -11 54.5 -39t21.5 -63q0 -36 -21.5 -64t-54.5 -39q33 -11 54.5 -39t21.5 -63q0 -45 -32 -76t-77 -31q-46 0 -76.5 30.5t-30.5 76.5q0 35 20 63t52 39q-32 11 -52 39t-20 64q0 35 20 63t52 39q-51 15 -67 68q-10 -32 -39 -52t-64 -20q-36 0 -63.5 19.5t-38.5 52.5 q-10 -32 -39 -52t-64 -20q-36 0 -63.5 19.5t-38.5 52.5q-11 -32 -39 -52t-63 -20q-36 0 -64 20t-39 52q-16 -52 -69 -68q33 -11 54 -39t21 -63q0 -36 -21 -64t-54 -39q33 -11 54 -39t21 -63q0 -45 -31.5 -76t-76.5 -31q-46 0 -76.5 30.5t-30.5 76.5z" />
<glyph unicode="I" d="M-31 76q0 45 31 76.5t76 31.5q35 0 63 -21t39 -54q11 33 39 54t64 21q35 0 63 -21t39 -54q16 53 68 69q-32 11 -52 39t-20 64q0 35 20 63t52 39q-33 11 -52.5 38.5t-19.5 63.5q0 35 20 64t52 39q-33 11 -52.5 38.5t-19.5 63.5q0 35 20 64t52 39q-53 16 -68 67 q-11 -32 -39 -52t-63 -20q-36 0 -64 20t-39 52q-11 -32 -39 -52t-63 -20q-46 0 -76.5 30.5t-30.5 76.5q0 45 31 77t76 32q35 0 63 -21.5t39 -54.5q11 33 39 54.5t64 21.5q35 0 63 -21.5t39 -54.5q11 33 38.5 54.5t63.5 21.5q35 0 63.5 -21.5t39.5 -54.5q11 33 38.5 54.5 t63.5 21.5q35 0 63.5 -21.5t39.5 -54.5q11 33 38.5 54.5t63.5 21.5q44 0 76.5 -32.5t32.5 -76.5q0 -45 -32 -76t-77 -31q-36 0 -63.5 19.5t-38.5 52.5q-10 -32 -39 -52t-64 -20q-36 0 -63.5 19.5t-38.5 52.5q-15 -50 -70 -67q33 -11 54.5 -39.5t21.5 -63.5 q0 -36 -21.5 -63.5t-54.5 -38.5q33 -11 54.5 -39.5t21.5 -63.5q0 -36 -21.5 -63.5t-54.5 -38.5q33 -11 54.5 -39t21.5 -63q0 -36 -21.5 -64t-54.5 -39q25 -8 44 -26t26 -43q11 33 38.5 54t63.5 21q35 0 63.5 -21t39.5 -54q11 33 38.5 54t63.5 21q44 0 76.5 -32t32.5 -76 q0 -45 -32 -76t-77 -31q-36 0 -63.5 19.5t-38.5 52.5q-10 -32 -39 -52t-64 -20q-36 0 -63.5 19.5t-38.5 52.5q-10 -32 -39 -52t-64 -20q-36 0 -63.5 19.5t-38.5 52.5q-11 -32 -39 -52t-63 -20q-36 0 -64 20t-39 52q-11 -32 -39 -52t-63 -20q-46 0 -76.5 30.5t-30.5 76.5z " />
<glyph unicode="J" d="M-31 281q0 45 31 76.5t76 31.5q44 0 76 -32t32 -76q0 -45 -31.5 -76t-76.5 -31q-46 0 -76.5 30.5t-30.5 76.5zM-31 895q0 45 31 77t76 32q35 0 63 -21.5t39 -54.5q11 33 39 54.5t64 21.5q35 0 63 -21.5t39 -54.5q11 33 38.5 54.5t63.5 21.5q35 0 63.5 -21.5t39.5 -54.5 q11 33 38.5 54.5t63.5 21.5q44 0 76.5 -32.5t32.5 -76.5q0 -36 -21.5 -63.5t-54.5 -38.5q33 -11 54.5 -39.5t21.5 -63.5q0 -36 -21.5 -63.5t-54.5 -38.5q33 -11 54.5 -39.5t21.5 -63.5q0 -36 -21.5 -63.5t-54.5 -38.5q33 -11 54.5 -39t21.5 -63q0 -45 -32 -76t-77 -31 q-46 0 -76 30.5t-30 76.5q0 35 19.5 63.5t51.5 38.5q-32 11 -51.5 38t-19.5 64q0 35 19.5 64t51.5 39q-32 11 -51.5 38t-19.5 64q0 35 19.5 64t51.5 39q-51 16 -67 67q-10 -32 -39 -52t-64 -20q-36 0 -63.5 19.5t-38.5 52.5q-11 -32 -39 -52t-63 -20q-36 0 -64 20t-39 52 q-11 -32 -39 -52t-63 -20q-46 0 -76.5 30.5t-30.5 76.5zM174 76q0 45 31 76.5t76 31.5q35 0 63 -21t39 -54q11 33 38.5 54t63.5 21q44 0 76.5 -32t32.5 -76q0 -45 -32 -76t-77 -31q-36 0 -63.5 19.5t-38.5 52.5q-11 -32 -39 -52t-63 -20q-46 0 -76.5 30.5t-30.5 76.5z" />
<glyph unicode="K" d="M-31 76q0 35 20 63t52 39q-32 11 -52 39t-20 64q0 35 20 63t52 39q-33 11 -52.5 38.5t-19.5 63.5q0 35 20 64t52 39q-33 11 -52.5 38.5t-19.5 63.5q0 35 20 64t52 39q-33 11 -52.5 38.5t-19.5 63.5q0 45 31 77t76 32q44 0 76 -32.5t32 -76.5q0 -36 -21 -63.5t-54 -38.5 q33 -11 54 -39.5t21 -63.5q0 -36 -21 -63.5t-54 -38.5q25 -7 43 -26t26 -44q11 33 39 54.5t64 21.5q35 0 63 -21.5t39 -54.5q11 33 38.5 54.5t63.5 21.5q35 0 63.5 -21.5t39.5 -54.5q11 33 38.5 54.5t63.5 21.5q44 0 76.5 -32.5t32.5 -76.5q0 -45 -32 -75.5t-77 -30.5 q-36 0 -63.5 19.5t-38.5 52.5q-10 -32 -39 -52t-64 -20q-36 0 -63.5 19.5t-38.5 52.5q-11 -32 -39 -52t-63 -20q-36 0 -64 20t-39 52q-16 -52 -69 -68q33 -11 54 -39t21 -63q0 -36 -21 -64t-54 -39q33 -11 54 -39t21 -63q0 -45 -31.5 -76t-76.5 -31q-46 0 -76.5 30.5 t-30.5 76.5zM788 76q0 35 20 63t52 39q-32 11 -52 39t-20 64q0 45 31 76.5t76 31.5q44 0 76.5 -32t32.5 -76q0 -36 -21.5 -64t-54.5 -39q33 -11 54.5 -39t21.5 -63q0 -45 -32 -76t-77 -31q-46 0 -76.5 30.5t-30.5 76.5zM788 690q0 35 20 64t52 39q-33 11 -52.5 38.5 t-19.5 63.5q0 45 31 77t76 32q44 0 76.5 -32.5t32.5 -76.5q0 -36 -21.5 -63.5t-54.5 -38.5q33 -11 54.5 -39.5t21.5 -63.5q0 -45 -32 -75.5t-77 -30.5q-46 0 -76.5 30t-30.5 76z" />
<glyph unicode="L" d="M-31 76q0 35 20 63t52 39q-32 11 -52 39t-20 64q0 35 20 63t52 39q-33 11 -52.5 38.5t-19.5 63.5q0 35 20 64t52 39q-33 11 -52.5 38.5t-19.5 63.5q0 35 20 64t52 39q-33 11 -52.5 38.5t-19.5 63.5q0 45 31 77t76 32q44 0 76 -32.5t32 -76.5q0 -36 -21 -63.5t-54 -38.5 q33 -11 54 -39.5t21 -63.5q0 -36 -21 -63.5t-54 -38.5q33 -11 54 -39.5t21 -63.5q0 -36 -21 -63.5t-54 -38.5q33 -11 54 -39t21 -63q0 -36 -21 -64t-54 -39q53 -16 69 -69q11 33 39 54t64 21q35 0 63 -21t39 -54q11 33 38.5 54t63.5 21q35 0 63.5 -21t39.5 -54 q11 33 38.5 54t63.5 21q35 0 63.5 -21t39.5 -54q11 33 38.5 54t63.5 21q44 0 76.5 -32t32.5 -76q0 -45 -32 -76t-77 -31q-36 0 -63.5 19.5t-38.5 52.5q-10 -32 -39 -52t-64 -20q-36 0 -63.5 19.5t-38.5 52.5q-10 -32 -39 -52t-64 -20q-36 0 -63.5 19.5t-38.5 52.5 q-11 -32 -39 -52t-63 -20q-36 0 -64 20t-39 52q-11 -32 -39 -52t-63 -20q-46 0 -76.5 30.5t-30.5 76.5z" />
<glyph unicode="M" d="M-31 76q0 35 20 63t52 39q-32 11 -52 39t-20 64q0 35 20 63t52 39q-33 11 -52.5 38.5t-19.5 63.5q0 35 20 64t52 39q-33 11 -52.5 38.5t-19.5 63.5q0 35 20 64t52 39q-33 11 -52.5 38.5t-19.5 63.5q0 45 31 77t76 32q44 0 76 -32.5t32 -76.5q0 -36 -21 -63.5t-54 -38.5 q25 -7 43 -26t26 -44q11 33 39 54.5t64 21.5q44 0 76 -32.5t32 -76.5q0 -45 -31.5 -75.5t-76.5 -30.5q-37 0 -64.5 19.5t-38.5 51.5q-15 -51 -69 -67q33 -11 54 -39.5t21 -63.5q0 -36 -21 -63.5t-54 -38.5q33 -11 54 -39t21 -63q0 -36 -21 -64t-54 -39q33 -11 54 -39t21 -63 q0 -45 -31.5 -76t-76.5 -31q-46 0 -76.5 30.5t-30.5 76.5zM379 281q0 35 20 63t52 39q-33 11 -52.5 38.5t-19.5 63.5q0 45 30.5 77t75.5 32q44 0 76.5 -32.5t32.5 -76.5q0 -36 -21.5 -63.5t-54.5 -38.5q33 -11 54.5 -39t21.5 -63q0 -45 -32 -76t-77 -31q-46 0 -76 30.5 t-30 76.5zM584 690q0 45 30.5 77t75.5 32q35 0 63.5 -21.5t39.5 -54.5q17 55 67 70q-33 11 -52.5 38.5t-19.5 63.5q0 45 31 77t76 32q44 0 76.5 -32.5t32.5 -76.5q0 -36 -21.5 -63.5t-54.5 -38.5q33 -11 54.5 -39.5t21.5 -63.5q0 -36 -21.5 -63.5t-54.5 -38.5 q33 -11 54.5 -39.5t21.5 -63.5q0 -36 -21.5 -63.5t-54.5 -38.5q33 -11 54.5 -39t21.5 -63q0 -36 -21.5 -64t-54.5 -39q33 -11 54.5 -39t21.5 -63q0 -45 -32 -76t-77 -31q-46 0 -76.5 30.5t-30.5 76.5q0 35 20 63t52 39q-32 11 -52 39t-20 64q0 35 20 63t52 39 q-33 11 -52.5 38.5t-19.5 63.5q0 35 20 64t52 39q-51 16 -67 67q-10 -32 -39 -51.5t-64 -19.5q-46 0 -76 30t-30 76z" />
<glyph unicode="N" d="M-31 76q0 35 20 63t52 39q-32 11 -52 39t-20 64q0 35 20 63t52 39q-33 11 -52.5 38.5t-19.5 63.5q0 35 20 64t52 39q-33 11 -52.5 38.5t-19.5 63.5q0 35 20 64t52 39q-33 11 -52.5 38.5t-19.5 63.5q0 45 31 77t76 32q44 0 76 -32.5t32 -76.5q0 -36 -21 -63.5t-54 -38.5 q25 -7 43 -26t26 -44q11 33 39 54.5t64 21.5q44 0 76 -32.5t32 -76.5q0 -45 -31.5 -75.5t-76.5 -30.5q-37 0 -64.5 19.5t-38.5 51.5q-15 -51 -69 -67q33 -11 54 -39.5t21 -63.5q0 -36 -21 -63.5t-54 -38.5q33 -11 54 -39t21 -63q0 -36 -21 -64t-54 -39q33 -11 54 -39t21 -63 q0 -45 -31.5 -76t-76.5 -31q-46 0 -76.5 30.5t-30.5 76.5zM379 485q0 45 30.5 77t75.5 32q44 0 76.5 -32.5t32.5 -76.5q0 -45 -32 -75.5t-77 -30.5q-46 0 -76 30t-30 76zM584 281q0 45 30.5 76.5t75.5 31.5q35 0 63.5 -21.5t39.5 -54.5q17 55 67 70q-33 11 -52.5 38.5 t-19.5 63.5q0 35 20 64t52 39q-33 11 -52.5 38.5t-19.5 63.5q0 35 20 64t52 39q-33 11 -52.5 38.5t-19.5 63.5q0 45 31 77t76 32q44 0 76.5 -32.5t32.5 -76.5q0 -36 -21.5 -63.5t-54.5 -38.5q33 -11 54.5 -39.5t21.5 -63.5q0 -36 -21.5 -63.5t-54.5 -38.5q33 -11 54.5 -39.5 t21.5 -63.5q0 -36 -21.5 -63.5t-54.5 -38.5q33 -11 54.5 -39t21.5 -63q0 -36 -21.5 -64t-54.5 -39q33 -11 54.5 -39t21.5 -63q0 -45 -32 -76t-77 -31q-46 0 -76.5 30.5t-30.5 76.5q0 35 20 63t52 39q-51 15 -67 68q-10 -32 -39 -52t-64 -20q-46 0 -76 30.5t-30 76.5z" />
<glyph unicode="O" d="M-31 281q0 35 20 63t52 39q-33 11 -52.5 38.5t-19.5 63.5q0 35 20 64t52 39q-33 11 -52.5 38.5t-19.5 63.5q0 45 31 77t76 32q44 0 76 -32.5t32 -76.5q0 -36 -21 -63.5t-54 -38.5q33 -11 54 -39.5t21 -63.5q0 -36 -21 -63.5t-54 -38.5q33 -11 54 -39t21 -63 q0 -45 -31.5 -76t-76.5 -31q-46 0 -76.5 30.5t-30.5 76.5zM174 76q0 45 31 76.5t76 31.5q35 0 63 -21t39 -54q11 33 38.5 54t63.5 21q35 0 63.5 -21t39.5 -54q11 33 38.5 54t63.5 21q44 0 76.5 -32t32.5 -76q0 -45 -32 -76t-77 -31q-36 0 -63.5 19.5t-38.5 52.5 q-10 -32 -39 -52t-64 -20q-36 0 -63.5 19.5t-38.5 52.5q-11 -32 -39 -52t-63 -20q-46 0 -76.5 30.5t-30.5 76.5zM174 895q0 45 31 77t76 32q35 0 63 -21.5t39 -54.5q11 33 38.5 54.5t63.5 21.5q35 0 63.5 -21.5t39.5 -54.5q11 33 38.5 54.5t63.5 21.5q44 0 76.5 -32.5 t32.5 -76.5q0 -45 -32 -76t-77 -31q-36 0 -63.5 19.5t-38.5 52.5q-10 -32 -39 -52t-64 -20q-36 0 -63.5 19.5t-38.5 52.5q-11 -32 -39 -52t-63 -20q-46 0 -76.5 30.5t-30.5 76.5zM788 281q0 35 20 63t52 39q-33 11 -52.5 38.5t-19.5 63.5q0 35 20 64t52 39 q-33 11 -52.5 38.5t-19.5 63.5q0 45 31 77t76 32q44 0 76.5 -32.5t32.5 -76.5q0 -36 -21.5 -63.5t-54.5 -38.5q33 -11 54.5 -39.5t21.5 -63.5q0 -36 -21.5 -63.5t-54.5 -38.5q33 -11 54.5 -39t21.5 -63q0 -45 -32 -76t-77 -31q-46 0 -76.5 30.5t-30.5 76.5z" />
<glyph unicode="P" d="M-31 76q0 35 20 63t52 39q-32 11 -52 39t-20 64q0 35 20 63t52 39q-33 11 -52.5 38.5t-19.5 63.5q0 35 20 64t52 39q-33 11 -52.5 38.5t-19.5 63.5q0 35 20 64t52 39q-33 11 -52.5 38.5t-19.5 63.5q0 45 31 77t76 32q35 0 63 -21.5t39 -54.5q11 33 39 54.5t64 21.5 q35 0 63 -21.5t39 -54.5q11 33 38.5 54.5t63.5 21.5q35 0 63.5 -21.5t39.5 -54.5q11 33 38.5 54.5t63.5 21.5q44 0 76.5 -32.5t32.5 -76.5q0 -45 -32 -76t-77 -31q-36 0 -63.5 19.5t-38.5 52.5q-10 -32 -39 -52t-64 -20q-36 0 -63.5 19.5t-38.5 52.5q-11 -32 -39 -52 t-63 -20q-36 0 -64 20t-39 52q-15 -51 -69 -67q33 -11 54 -39.5t21 -63.5q0 -36 -21 -63.5t-54 -38.5q25 -7 43 -26t26 -44q11 33 39 54.5t64 21.5q35 0 63 -21.5t39 -54.5q11 33 38.5 54.5t63.5 21.5q35 0 63.5 -21.5t39.5 -54.5q11 33 38.5 54.5t63.5 21.5 q44 0 76.5 -32.5t32.5 -76.5q0 -45 -32 -75.5t-77 -30.5q-36 0 -63.5 19.5t-38.5 52.5q-10 -32 -39 -52t-64 -20q-36 0 -63.5 19.5t-38.5 52.5q-11 -32 -39 -52t-63 -20q-36 0 -64 20t-39 52q-16 -52 -69 -68q33 -11 54 -39t21 -63q0 -36 -21 -64t-54 -39q33 -11 54 -39 t21 -63q0 -45 -31.5 -76t-76.5 -31q-46 0 -76.5 30.5t-30.5 76.5zM788 690q0 45 31 77t76 32q44 0 76.5 -32.5t32.5 -76.5q0 -45 -32 -75.5t-77 -30.5q-46 0 -76.5 30t-30.5 76z" />
<glyph unicode="Q" d="M-31 281q0 35 20 63t52 39q-33 11 -52.5 38.5t-19.5 63.5q0 35 20 64t52 39q-33 11 -52.5 38.5t-19.5 63.5q0 45 31 77t76 32q44 0 76 -32.5t32 -76.5q0 -36 -21 -63.5t-54 -38.5q33 -11 54 -39.5t21 -63.5q0 -36 -21 -63.5t-54 -38.5q33 -11 54 -39t21 -63 q0 -45 -31.5 -76t-76.5 -31q-46 0 -76.5 30.5t-30.5 76.5zM174 76q0 45 31 76.5t76 31.5q35 0 63 -21t39 -54q16 53 68 69q-32 11 -52 39t-20 64q0 45 30.5 76.5t75.5 31.5q44 0 76.5 -32t32.5 -76q0 -36 -21.5 -64t-54.5 -39q25 -8 44 -26t26 -43q11 33 38.5 54t63.5 21 q44 0 76.5 -32t32.5 -76q0 -45 -32 -76t-77 -31q-36 0 -63.5 19.5t-38.5 52.5q-15 -49 -70 -66q33 -11 54.5 -40t21.5 -64q0 -45 -32 -76t-77 -31q-46 0 -76 30.5t-30 76.5q0 35 20 64.5t52 39.5q-53 16 -68 66q-11 -32 -39 -52t-63 -20q-46 0 -76.5 30.5t-30.5 76.5z M174 895q0 45 31 77t76 32q35 0 63 -21.5t39 -54.5q11 33 38.5 54.5t63.5 21.5q35 0 63.5 -21.5t39.5 -54.5q11 33 38.5 54.5t63.5 21.5q44 0 76.5 -32.5t32.5 -76.5q0 -45 -32 -76t-77 -31q-36 0 -63.5 19.5t-38.5 52.5q-10 -32 -39 -52t-64 -20q-36 0 -63.5 19.5 t-38.5 52.5q-11 -32 -39 -52t-63 -20q-46 0 -76.5 30.5t-30.5 76.5zM584 -334q0 45 30.5 77t75.5 32q44 0 76.5 -32.5t32.5 -76.5q0 -45 -32 -75.5t-77 -30.5q-46 0 -76 30t-30 76zM788 281q0 35 20 63t52 39q-33 11 -52.5 38.5t-19.5 63.5q0 35 20 64t52 39 q-33 11 -52.5 38.5t-19.5 63.5q0 45 31 77t76 32q44 0 76.5 -32.5t32.5 -76.5q0 -36 -21.5 -63.5t-54.5 -38.5q33 -11 54.5 -39.5t21.5 -63.5q0 -36 -21.5 -63.5t-54.5 -38.5q33 -11 54.5 -39t21.5 -63q0 -45 -32 -76t-77 -31q-46 0 -76.5 30.5t-30.5 76.5z" />
<glyph unicode="R" d="M-31 76q0 35 20 63t52 39q-32 11 -52 39t-20 64q0 35 20 63t52 39q-33 11 -52.5 38.5t-19.5 63.5q0 35 20 64t52 39q-33 11 -52.5 38.5t-19.5 63.5q0 35 20 64t52 39q-33 11 -52.5 38.5t-19.5 63.5q0 45 31 77t76 32q35 0 63 -21.5t39 -54.5q11 33 39 54.5t64 21.5 q35 0 63 -21.5t39 -54.5q11 33 38.5 54.5t63.5 21.5q35 0 63.5 -21.5t39.5 -54.5q11 33 38.5 54.5t63.5 21.5q44 0 76.5 -32.5t32.5 -76.5q0 -45 -32 -76t-77 -31q-36 0 -63.5 19.5t-38.5 52.5q-10 -32 -39 -52t-64 -20q-36 0 -63.5 19.5t-38.5 52.5q-11 -32 -39 -52 t-63 -20q-36 0 -64 20t-39 52q-15 -51 -69 -67q33 -11 54 -39.5t21 -63.5q0 -36 -21 -63.5t-54 -38.5q25 -7 43 -26t26 -44q11 33 39 54.5t64 21.5q35 0 63 -21.5t39 -54.5q11 33 38.5 54.5t63.5 21.5q35 0 63.5 -21.5t39.5 -54.5q11 33 38.5 54.5t63.5 21.5 q44 0 76.5 -32.5t32.5 -76.5q0 -36 -21.5 -63.5t-54.5 -38.5q33 -11 54.5 -39t21.5 -63q0 -45 -32 -76t-77 -31q-46 0 -76 30.5t-30 76.5q0 35 19.5 63.5t51.5 38.5q-51 15 -67 68q-10 -32 -39 -52t-64 -20q-36 0 -63.5 19.5t-38.5 52.5q-11 -32 -39 -52t-63 -20 q-36 0 -64 20t-39 52q-16 -52 -69 -68q33 -11 54 -39t21 -63q0 -36 -21 -64t-54 -39q33 -11 54 -39t21 -63q0 -45 -31.5 -76t-76.5 -31q-46 0 -76.5 30.5t-30.5 76.5zM788 76q0 45 31 76.5t76 31.5q44 0 76.5 -32t32.5 -76q0 -45 -32 -76t-77 -31q-46 0 -76.5 30.5 t-30.5 76.5zM788 690q0 45 31 77t76 32q44 0 76.5 -32.5t32.5 -76.5q0 -45 -32 -75.5t-77 -30.5q-46 0 -76.5 30t-30.5 76z" />
<glyph unicode="S" d="M-31 76q0 45 31 76.5t76 31.5q35 0 63 -21t39 -54q11 33 39 54t64 21q35 0 63 -21t39 -54q11 33 38.5 54t63.5 21q35 0 63.5 -21t39.5 -54q11 33 38.5 54t63.5 21q44 0 76.5 -32t32.5 -76q0 -45 -32 -76t-77 -31q-36 0 -63.5 19.5t-38.5 52.5q-10 -32 -39 -52t-64 -20 q-36 0 -63.5 19.5t-38.5 52.5q-11 -32 -39 -52t-63 -20q-36 0 -64 20t-39 52q-11 -32 -39 -52t-63 -20q-46 0 -76.5 30.5t-30.5 76.5zM-31 690q0 45 31 77t76 32q44 0 76 -32.5t32 -76.5q0 -45 -31.5 -75.5t-76.5 -30.5q-46 0 -76.5 30t-30.5 76zM174 485q0 45 31 77t76 32 q35 0 63 -21.5t39 -54.5q11 33 38.5 54.5t63.5 21.5q35 0 63.5 -21.5t39.5 -54.5q11 33 38.5 54.5t63.5 21.5q44 0 76.5 -32.5t32.5 -76.5q0 -45 -32 -75.5t-77 -30.5q-36 0 -63.5 19.5t-38.5 52.5q-10 -32 -39 -52t-64 -20q-36 0 -63.5 19.5t-38.5 52.5q-11 -32 -39 -52 t-63 -20q-46 0 -76.5 30t-30.5 76zM174 895q0 45 31 77t76 32q35 0 63 -21.5t39 -54.5q11 33 38.5 54.5t63.5 21.5q35 0 63.5 -21.5t39.5 -54.5q11 33 38.5 54.5t63.5 21.5q35 0 63.5 -21.5t39.5 -54.5q11 33 38.5 54.5t63.5 21.5q44 0 76.5 -32.5t32.5 -76.5q0 -45 -32 -76 t-77 -31q-36 0 -63.5 19.5t-38.5 52.5q-10 -32 -39 -52t-64 -20q-36 0 -63.5 19.5t-38.5 52.5q-10 -32 -39 -52t-64 -20q-36 0 -63.5 19.5t-38.5 52.5q-11 -32 -39 -52t-63 -20q-46 0 -76.5 30.5t-30.5 76.5zM788 281q0 45 31 76.5t76 31.5q44 0 76.5 -32t32.5 -76 q0 -45 -32 -76t-77 -31q-46 0 -76.5 30.5t-30.5 76.5z" />
<glyph unicode="T" d="M-31 895q0 45 31 77t76 32q35 0 63 -21.5t39 -54.5q11 33 39 54.5t64 21.5q35 0 63 -21.5t39 -54.5q11 33 38.5 54.5t63.5 21.5q35 0 63.5 -21.5t39.5 -54.5q11 33 38.5 54.5t63.5 21.5q35 0 63.5 -21.5t39.5 -54.5q11 33 38.5 54.5t63.5 21.5q44 0 76.5 -32.5 t32.5 -76.5q0 -45 -32 -76t-77 -31q-36 0 -63.5 19.5t-38.5 52.5q-10 -32 -39 -52t-64 -20q-36 0 -63.5 19.5t-38.5 52.5q-15 -50 -70 -67q33 -11 54.5 -39.5t21.5 -63.5q0 -36 -21.5 -63.5t-54.5 -38.5q33 -11 54.5 -39.5t21.5 -63.5q0 -36 -21.5 -63.5t-54.5 -38.5 q33 -11 54.5 -39t21.5 -63q0 -36 -21.5 -64t-54.5 -39q33 -11 54.5 -39t21.5 -63q0 -45 -32 -76t-77 -31q-46 0 -76 30.5t-30 76.5q0 35 20 63t52 39q-32 11 -52 39t-20 64q0 35 20 63t52 39q-33 11 -52.5 38.5t-19.5 63.5q0 35 20 64t52 39q-33 11 -52.5 38.5t-19.5 63.5 q0 35 20 64t52 39q-53 16 -68 67q-11 -32 -39 -52t-63 -20q-36 0 -64 20t-39 52q-11 -32 -39 -52t-63 -20q-46 0 -76.5 30.5t-30.5 76.5z" />
<glyph unicode="U" d="M-31 281q0 35 20 63t52 39q-33 11 -52.5 38.5t-19.5 63.5q0 35 20 64t52 39q-33 11 -52.5 38.5t-19.5 63.5q0 35 20 64t52 39q-33 11 -52.5 38.5t-19.5 63.5q0 45 31 77t76 32q44 0 76 -32.5t32 -76.5q0 -36 -21 -63.5t-54 -38.5q33 -11 54 -39.5t21 -63.5 q0 -36 -21 -63.5t-54 -38.5q33 -11 54 -39.5t21 -63.5q0 -36 -21 -63.5t-54 -38.5q33 -11 54 -39t21 -63q0 -45 -31.5 -76t-76.5 -31q-46 0 -76.5 30.5t-30.5 76.5zM174 76q0 45 31 76.5t76 31.5q35 0 63 -21t39 -54q11 33 38.5 54t63.5 21q35 0 63.5 -21t39.5 -54 q11 33 38.5 54t63.5 21q44 0 76.5 -32t32.5 -76q0 -45 -32 -76t-77 -31q-36 0 -63.5 19.5t-38.5 52.5q-10 -32 -39 -52t-64 -20q-36 0 -63.5 19.5t-38.5 52.5q-11 -32 -39 -52t-63 -20q-46 0 -76.5 30.5t-30.5 76.5zM788 281q0 35 20 63t52 39q-33 11 -52.5 38.5t-19.5 63.5 q0 35 20 64t52 39q-33 11 -52.5 38.5t-19.5 63.5q0 35 20 64t52 39q-33 11 -52.5 38.5t-19.5 63.5q0 45 31 77t76 32q44 0 76.5 -32.5t32.5 -76.5q0 -36 -21.5 -63.5t-54.5 -38.5q33 -11 54.5 -39.5t21.5 -63.5q0 -36 -21.5 -63.5t-54.5 -38.5q33 -11 54.5 -39.5t21.5 -63.5 q0 -36 -21.5 -63.5t-54.5 -38.5q33 -11 54.5 -39t21.5 -63q0 -45 -32 -76t-77 -31q-46 0 -76.5 30.5t-30.5 76.5z" />
<glyph unicode="V" d="M-31 485q0 35 20 64t52 39q-33 11 -52.5 38.5t-19.5 63.5q0 35 20 64t52 39q-33 11 -52.5 38.5t-19.5 63.5q0 45 31 77t76 32q44 0 76 -32.5t32 -76.5q0 -36 -21 -63.5t-54 -38.5q33 -11 54 -39.5t21 -63.5q0 -36 -21 -63.5t-54 -38.5q33 -11 54 -39.5t21 -63.5 q0 -45 -31.5 -75.5t-76.5 -30.5q-46 0 -76.5 30t-30.5 76zM174 281q0 45 31 76.5t76 31.5q44 0 76 -32t32 -76q0 -45 -31.5 -76t-76.5 -31q-46 0 -76.5 30.5t-30.5 76.5zM379 76q0 45 30.5 76.5t75.5 31.5q44 0 76.5 -32t32.5 -76q0 -45 -32 -76t-77 -31q-46 0 -76 30.5 t-30 76.5zM584 281q0 45 30.5 76.5t75.5 31.5q44 0 76.5 -32t32.5 -76q0 -45 -32 -76t-77 -31q-46 0 -76 30.5t-30 76.5zM788 485q0 35 20 64t52 39q-33 11 -52.5 38.5t-19.5 63.5q0 35 20 64t52 39q-33 11 -52.5 38.5t-19.5 63.5q0 45 31 77t76 32q44 0 76.5 -32.5 t32.5 -76.5q0 -36 -21.5 -63.5t-54.5 -38.5q33 -11 54.5 -39.5t21.5 -63.5q0 -36 -21.5 -63.5t-54.5 -38.5q33 -11 54.5 -39.5t21.5 -63.5q0 -45 -32 -75.5t-77 -30.5q-46 0 -76.5 30t-30.5 76z" />
<glyph unicode="W" d="M-31 281q0 35 20 63t52 39q-33 11 -52.5 38.5t-19.5 63.5q0 35 20 64t52 39q-33 11 -52.5 38.5t-19.5 63.5q0 35 20 64t52 39q-33 11 -52.5 38.5t-19.5 63.5q0 45 31 77t76 32q44 0 76 -32.5t32 -76.5q0 -36 -21 -63.5t-54 -38.5q33 -11 54 -39.5t21 -63.5 q0 -36 -21 -63.5t-54 -38.5q33 -11 54 -39.5t21 -63.5q0 -36 -21 -63.5t-54 -38.5q33 -11 54 -39t21 -63q0 -45 -31.5 -76t-76.5 -31q-46 0 -76.5 30.5t-30.5 76.5zM174 76q0 45 31 76.5t76 31.5q44 0 76 -32t32 -76q0 -45 -31.5 -76t-76.5 -31q-46 0 -76.5 30.5t-30.5 76.5 zM379 281q0 35 20 63t52 39q-33 11 -52.5 38.5t-19.5 63.5q0 35 20 64t52 39q-33 11 -52.5 38.5t-19.5 63.5q0 45 30.5 77t75.5 32q44 0 76.5 -32.5t32.5 -76.5q0 -36 -21.5 -63.5t-54.5 -38.5q33 -11 54.5 -39.5t21.5 -63.5q0 -36 -21.5 -63.5t-54.5 -38.5q33 -11 54.5 -39 t21.5 -63q0 -45 -32 -76t-77 -31q-46 0 -76 30.5t-30 76.5zM584 76q0 45 30.5 76.5t75.5 31.5q44 0 76.5 -32t32.5 -76q0 -45 -32 -76t-77 -31q-46 0 -76 30.5t-30 76.5zM788 281q0 35 20 63t52 39q-33 11 -52.5 38.5t-19.5 63.5q0 35 20 64t52 39q-33 11 -52.5 38.5 t-19.5 63.5q0 35 20 64t52 39q-33 11 -52.5 38.5t-19.5 63.5q0 45 31 77t76 32q44 0 76.5 -32.5t32.5 -76.5q0 -36 -21.5 -63.5t-54.5 -38.5q33 -11 54.5 -39.5t21.5 -63.5q0 -36 -21.5 -63.5t-54.5 -38.5q33 -11 54.5 -39.5t21.5 -63.5q0 -36 -21.5 -63.5t-54.5 -38.5 q33 -11 54.5 -39t21.5 -63q0 -45 -32 -76t-77 -31q-46 0 -76.5 30.5t-30.5 76.5z" />
<glyph unicode="X" d="M-31 76q0 35 20 63t52 39q-32 11 -52 39t-20 64q0 45 31 76.5t76 31.5q44 0 76 -32t32 -76q0 -36 -21 -64t-54 -39q33 -11 54 -39t21 -63q0 -45 -31.5 -76t-76.5 -31q-46 0 -76.5 30.5t-30.5 76.5zM-31 690q0 35 20 64t52 39q-33 11 -52.5 38.5t-19.5 63.5q0 45 31 77 t76 32q44 0 76 -32.5t32 -76.5q0 -36 -21 -63.5t-54 -38.5q33 -11 54 -39.5t21 -63.5q0 -45 -31.5 -75.5t-76.5 -30.5q-46 0 -76.5 30t-30.5 76zM174 485q0 45 31 77t76 32q35 0 63 -21.5t39 -54.5q11 33 38.5 54.5t63.5 21.5q35 0 63.5 -21.5t39.5 -54.5q11 33 38.5 54.5 t63.5 21.5q44 0 76.5 -32.5t32.5 -76.5q0 -45 -32 -75.5t-77 -30.5q-36 0 -63.5 19.5t-38.5 52.5q-10 -32 -39 -52t-64 -20q-36 0 -63.5 19.5t-38.5 52.5q-11 -32 -39 -52t-63 -20q-46 0 -76.5 30t-30.5 76zM788 76q0 35 20 63t52 39q-32 11 -52 39t-20 64q0 45 31 76.5 t76 31.5q44 0 76.5 -32t32.5 -76q0 -36 -21.5 -64t-54.5 -39q33 -11 54.5 -39t21.5 -63q0 -45 -32 -76t-77 -31q-46 0 -76.5 30.5t-30.5 76.5zM788 690q0 35 20 64t52 39q-33 11 -52.5 38.5t-19.5 63.5q0 45 31 77t76 32q44 0 76.5 -32.5t32.5 -76.5q0 -36 -21.5 -63.5 t-54.5 -38.5q33 -11 54.5 -39.5t21.5 -63.5q0 -45 -32 -75.5t-77 -30.5q-46 0 -76.5 30t-30.5 76z" />
<glyph unicode="Y" d="M-31 690q0 35 20 64t52 39q-33 11 -52.5 38.5t-19.5 63.5q0 45 31 77t76 32q44 0 76 -32.5t32 -76.5q0 -36 -21 -63.5t-54 -38.5q33 -11 54 -39.5t21 -63.5q0 -45 -31.5 -75.5t-76.5 -30.5q-46 0 -76.5 30t-30.5 76zM174 485q0 45 31 77t76 32q44 0 76 -32.5t32 -76.5 q0 -45 -31.5 -75.5t-76.5 -30.5q-46 0 -76.5 30t-30.5 76zM379 76q0 35 20 63t52 39q-32 11 -52 39t-20 64q0 45 30.5 76.5t75.5 31.5q44 0 76.5 -32t32.5 -76q0 -36 -21.5 -64t-54.5 -39q33 -11 54.5 -39t21.5 -63q0 -45 -32 -76t-77 -31q-46 0 -76 30.5t-30 76.5zM584 485 q0 45 30.5 77t75.5 32q44 0 76.5 -32.5t32.5 -76.5q0 -45 -32 -75.5t-77 -30.5q-46 0 -76 30t-30 76zM788 690q0 35 20 64t52 39q-33 11 -52.5 38.5t-19.5 63.5q0 45 31 77t76 32q44 0 76.5 -32.5t32.5 -76.5q0 -36 -21.5 -63.5t-54.5 -38.5q33 -11 54.5 -39.5t21.5 -63.5 q0 -45 -32 -75.5t-77 -30.5q-46 0 -76.5 30t-30.5 76z" />
<glyph unicode="Z" d="M-31 76q0 45 31 76.5t76 31.5q35 0 63 -21t39 -54q16 53 68 69q-32 11 -52 39t-20 64q0 45 31 76.5t76 31.5q44 0 76 -32t32 -76q0 -36 -21.5 -64t-54.5 -39q25 -8 44 -26t26 -43q11 33 38.5 54t63.5 21q35 0 63.5 -21t39.5 -54q11 33 38.5 54t63.5 21q35 0 63.5 -21 t39.5 -54q11 33 38.5 54t63.5 21q44 0 76.5 -32t32.5 -76q0 -45 -32 -76t-77 -31q-36 0 -63.5 19.5t-38.5 52.5q-10 -32 -39 -52t-64 -20q-36 0 -63.5 19.5t-38.5 52.5q-10 -32 -39 -52t-64 -20q-36 0 -63.5 19.5t-38.5 52.5q-11 -32 -39 -52t-63 -20q-36 0 -64 20t-39 52 q-11 -32 -39 -52t-63 -20q-46 0 -76.5 30.5t-30.5 76.5zM-31 895q0 45 31 77t76 32q35 0 63 -21.5t39 -54.5q11 33 39 54.5t64 21.5q35 0 63 -21.5t39 -54.5q11 33 38.5 54.5t63.5 21.5q35 0 63.5 -21.5t39.5 -54.5q11 33 38.5 54.5t63.5 21.5q35 0 63.5 -21.5t39.5 -54.5 q11 33 38.5 54.5t63.5 21.5q44 0 76.5 -32.5t32.5 -76.5q0 -45 -32 -76t-77 -31q-36 0 -63.5 19.5t-38.5 52.5q-15 -50 -70 -67q33 -11 54.5 -39.5t21.5 -63.5q0 -45 -32 -75.5t-77 -30.5q-46 0 -76 30t-30 76q0 35 19.5 64t51.5 39q-51 16 -67 67q-10 -32 -39 -52t-64 -20 q-36 0 -63.5 19.5t-38.5 52.5q-11 -32 -39 -52t-63 -20q-36 0 -64 20t-39 52q-11 -32 -39 -52t-63 -20q-46 0 -76.5 30.5t-30.5 76.5zM379 485q0 45 30.5 77t75.5 32q44 0 76.5 -32.5t32.5 -76.5q0 -45 -32 -75.5t-77 -30.5q-46 0 -76 30t-30 76z" />
<glyph unicode="[" d="M379 76q0 35 20 63t52 39q-32 11 -52 39t-20 64q0 35 20 63t52 39q-33 11 -52.5 38.5t-19.5 63.5q0 35 20 64t52 39q-33 11 -52.5 38.5t-19.5 63.5q0 35 20 64t52 39q-33 11 -52.5 38.5t-19.5 63.5q0 35 20 63t52 39q-32 11 -52 39t-20 64q0 45 30.5 76.5t75.5 31.5 q35 0 63.5 -21t39.5 -54q11 33 38.5 54t63.5 21q44 0 76.5 -32t32.5 -76q0 -45 -32 -76t-77 -31q-36 0 -63.5 19.5t-38.5 52.5q-16 -52 -70 -68q33 -11 54.5 -39t21.5 -63q0 -36 -21.5 -63.5t-54.5 -38.5q33 -11 54.5 -39.5t21.5 -63.5q0 -36 -21.5 -63.5t-54.5 -38.5 q33 -11 54.5 -39.5t21.5 -63.5q0 -36 -21.5 -63.5t-54.5 -38.5q33 -11 54.5 -39t21.5 -63q0 -36 -21.5 -64t-54.5 -39q33 -11 54.5 -39t21.5 -63q0 -36 -21.5 -64t-54.5 -37q54 -20 70 -69q11 33 38.5 53.5t63.5 20.5q44 0 76.5 -32.5t32.5 -76.5q0 -45 -32 -76t-77 -31 q-36 0 -63.5 19.5t-38.5 52.5q-10 -32 -39 -52t-64 -20q-46 0 -76 30.5t-30 76.5q0 35 20 64.5t52 39.5q-32 9 -52 36.5t-20 64.5z" />
<glyph unicode="\" d="M174 895q0 35 20 63t52 39q-32 11 -52 39t-20 64q0 45 31 76.5t76 31.5q44 0 76 -32t32 -76q0 -36 -21.5 -64t-54.5 -39q33 -11 54.5 -39t21.5 -63q0 -45 -31.5 -76t-76.5 -31q-46 0 -76.5 30.5t-30.5 76.5zM379 485q0 35 20 64t52 39q-33 11 -52.5 38.5t-19.5 63.5 q0 45 30.5 77t75.5 32q44 0 76.5 -32.5t32.5 -76.5q0 -36 -21.5 -63.5t-54.5 -38.5q33 -11 54.5 -39.5t21.5 -63.5q0 -45 -32 -75.5t-77 -30.5q-46 0 -76 30t-30 76zM584 281q0 45 30.5 76.5t75.5 31.5q44 0 76.5 -32t32.5 -76q0 -45 -32 -76t-77 -31q-46 0 -76 30.5 t-30 76.5zM788 76q0 45 31 76.5t76 31.5q44 0 76.5 -32t32.5 -76q0 -36 -21.5 -64t-54.5 -37q33 -11 54.5 -40t21.5 -64q0 -45 -32 -76t-77 -31q-46 0 -76.5 30.5t-30.5 76.5q0 35 20 64.5t52 39.5q-32 9 -52 36.5t-20 64.5z" />
<glyph unicode="]" d="M379 -129q0 45 30.5 77t75.5 32q35 0 63.5 -21t39.5 -53q16 51 67 69q-32 9 -51.5 36.5t-19.5 64.5q0 35 19.5 63.5t51.5 38.5q-32 11 -51.5 38.5t-19.5 64.5q0 35 19.5 63.5t51.5 38.5q-32 11 -51.5 38t-19.5 64q0 35 19.5 64t51.5 39q-32 11 -51.5 38t-19.5 64 q0 35 19.5 64t51.5 39q-32 11 -51.5 38t-19.5 64q0 35 19.5 63.5t51.5 38.5q-51 15 -67 68q-10 -32 -39 -52t-64 -20q-46 0 -76 30.5t-30 76.5q0 45 30.5 76.5t75.5 31.5q35 0 63.5 -21t39.5 -54q11 33 38.5 54t63.5 21q44 0 76.5 -32t32.5 -76q0 -36 -21.5 -64t-54.5 -39 q33 -11 54.5 -39t21.5 -63q0 -36 -21.5 -63.5t-54.5 -38.5q33 -11 54.5 -39.5t21.5 -63.5q0 -36 -21.5 -63.5t-54.5 -38.5q33 -11 54.5 -39.5t21.5 -63.5q0 -36 -21.5 -63.5t-54.5 -38.5q33 -11 54.5 -39t21.5 -63q0 -36 -21.5 -64t-54.5 -39q33 -11 54.5 -39t21.5 -63 q0 -36 -21.5 -64t-54.5 -37q33 -11 54.5 -40t21.5 -64q0 -45 -32 -76t-77 -31q-36 0 -63.5 19.5t-38.5 52.5q-10 -32 -39 -52t-64 -20q-46 0 -76 30.5t-30 76.5z" />
<glyph unicode="^" d="M174 1305q0 45 31 76.5t76 31.5q44 0 76 -32t32 -76q0 -45 -31.5 -76t-76.5 -31q-46 0 -76.5 30.5t-30.5 76.5zM379 1509q0 45 30.5 77t75.5 32q44 0 76.5 -32.5t32.5 -76.5q0 -45 -32 -75.5t-77 -30.5q-46 0 -76 30t-30 76zM584 1305q0 45 30.5 76.5t75.5 31.5 q44 0 76.5 -32t32.5 -76q0 -45 -32 -76t-77 -31q-46 0 -76 30.5t-30 76.5z" />
<glyph unicode="_" d="M-31 76q0 45 31 76.5t76 31.5q35 0 63 -21t39 -54q11 33 39 54t64 21q35 0 63 -21t39 -54q11 33 38.5 54t63.5 21q35 0 63.5 -21t39.5 -54q11 33 38.5 54t63.5 21q35 0 63.5 -21t39.5 -54q11 33 38.5 54t63.5 21q44 0 76.5 -32t32.5 -76q0 -45 -32 -76t-77 -31 q-36 0 -63.5 19.5t-38.5 52.5q-10 -32 -39 -52t-64 -20q-36 0 -63.5 19.5t-38.5 52.5q-10 -32 -39 -52t-64 -20q-36 0 -63.5 19.5t-38.5 52.5q-11 -32 -39 -52t-63 -20q-36 0 -64 20t-39 52q-11 -32 -39 -52t-63 -20q-46 0 -76.5 30.5t-30.5 76.5z" />
<glyph unicode="`" d="M-31 1509q0 45 31 77t76 32q44 0 76 -32.5t32 -76.5q0 -45 -31.5 -75.5t-76.5 -30.5q-46 0 -76.5 30t-30.5 76zM174 1305q0 45 31 76.5t76 31.5q35 0 63 -21.5t39 -54.5q11 33 38.5 54.5t63.5 21.5q44 0 76.5 -32t32.5 -76q0 -45 -32 -76t-77 -31q-36 0 -63.5 19.5 t-38.5 52.5q-11 -32 -39 -52t-63 -20q-46 0 -76.5 30.5t-30.5 76.5z" />
<glyph unicode="a" d="M-31 281q0 45 31 76.5t76 31.5q44 0 76 -32t32 -76q0 -45 -31.5 -76t-76.5 -31q-46 0 -76.5 30.5t-30.5 76.5zM174 76q0 45 31 76.5t76 31.5q35 0 63 -21t39 -54q11 33 38.5 54t63.5 21q35 0 63.5 -21t39.5 -54q11 33 38.5 54t63.5 21q35 0 63.5 -21t39.5 -54 q16 54 67 69q-32 11 -52 39t-20 64q0 35 20 63t52 39q-51 15 -67 68q-10 -32 -39 -52t-64 -20q-36 0 -63.5 19.5t-38.5 52.5q-10 -32 -39 -52t-64 -20q-36 0 -63.5 19.5t-38.5 52.5q-11 -32 -39 -52t-63 -20q-46 0 -76.5 30t-30.5 76q0 45 31 77t76 32q35 0 63 -21.5 t39 -54.5q11 33 38.5 54.5t63.5 21.5q35 0 63.5 -21.5t39.5 -54.5q11 33 38.5 54.5t63.5 21.5q35 0 63.5 -21.5t39.5 -54.5q17 55 67 70q-33 11 -52.5 38.5t-19.5 63.5q0 45 31 77t76 32q44 0 76.5 -32.5t32.5 -76.5q0 -36 -21.5 -63.5t-54.5 -38.5q33 -11 54.5 -39.5 t21.5 -63.5q0 -36 -21.5 -63.5t-54.5 -38.5q33 -11 54.5 -39t21.5 -63q0 -36 -21.5 -64t-54.5 -39q33 -11 54.5 -39t21.5 -63q0 -45 -32 -76t-77 -31q-36 0 -63.5 19.5t-38.5 52.5q-10 -32 -39 -52t-64 -20q-36 0 -63.5 19.5t-38.5 52.5q-10 -32 -39 -52t-64 -20 q-36 0 -63.5 19.5t-38.5 52.5q-11 -32 -39 -52t-63 -20q-46 0 -76.5 30.5t-30.5 76.5zM174 895q0 45 31 77t76 32q35 0 63 -21.5t39 -54.5q11 33 38.5 54.5t63.5 21.5q35 0 63.5 -21.5t39.5 -54.5q11 33 38.5 54.5t63.5 21.5q44 0 76.5 -32.5t32.5 -76.5q0 -45 -32 -76 t-77 -31q-36 0 -63.5 19.5t-38.5 52.5q-10 -32 -39 -52t-64 -20q-36 0 -63.5 19.5t-38.5 52.5q-11 -32 -39 -52t-63 -20q-46 0 -76.5 30.5t-30.5 76.5z" />
<glyph unicode="b" d="M-31 76q0 35 20 63t52 39q-32 11 -52 39t-20 64q0 35 20 63t52 39q-33 11 -52.5 38.5t-19.5 63.5q0 35 20 64t52 39q-33 11 -52.5 38.5t-19.5 63.5q0 35 20 64t52 39q-33 11 -52.5 38.5t-19.5 63.5q0 45 31 77t76 32q35 0 63 -21.5t39 -54.5q11 33 39 54.5t64 21.5 q35 0 63 -21.5t39 -54.5q11 33 38.5 54.5t63.5 21.5q35 0 63.5 -21.5t39.5 -54.5q11 33 38.5 54.5t63.5 21.5q44 0 76.5 -32.5t32.5 -76.5q0 -45 -32 -76t-77 -31q-36 0 -63.5 19.5t-38.5 52.5q-10 -32 -39 -52t-64 -20q-36 0 -63.5 19.5t-38.5 52.5q-11 -32 -39 -52 t-63 -20q-36 0 -64 20t-39 52q-15 -51 -69 -67q33 -11 54 -39.5t21 -63.5q0 -36 -21 -63.5t-54 -38.5q25 -7 43 -26t26 -44q11 33 39 54.5t64 21.5q35 0 63 -21.5t39 -54.5q11 33 38.5 54.5t63.5 21.5q35 0 63.5 -21.5t39.5 -54.5q11 33 38.5 54.5t63.5 21.5 q44 0 76.5 -32.5t32.5 -76.5q0 -45 -32 -75.5t-77 -30.5q-36 0 -63.5 19.5t-38.5 52.5q-10 -32 -39 -52t-64 -20q-36 0 -63.5 19.5t-38.5 52.5q-11 -32 -39 -52t-63 -20q-36 0 -64 20t-39 52q-16 -52 -69 -68q33 -11 54 -39t21 -63q0 -36 -21 -64t-54 -39q53 -16 69 -69 q11 33 39 54t64 21q35 0 63 -21t39 -54q11 33 38.5 54t63.5 21q35 0 63.5 -21t39.5 -54q11 33 38.5 54t63.5 21q44 0 76.5 -32t32.5 -76q0 -45 -32 -76t-77 -31q-36 0 -63.5 19.5t-38.5 52.5q-10 -32 -39 -52t-64 -20q-36 0 -63.5 19.5t-38.5 52.5q-11 -32 -39 -52t-63 -20 q-36 0 -64 20t-39 52q-11 -32 -39 -52t-63 -20q-46 0 -76.5 30.5t-30.5 76.5zM788 281q0 45 31 76.5t76 31.5q44 0 76.5 -32t32.5 -76q0 -45 -32 -76t-77 -31q-46 0 -76.5 30.5t-30.5 76.5zM788 690q0 45 31 77t76 32q44 0 76.5 -32.5t32.5 -76.5q0 -45 -32 -75.5t-77 -30.5 q-46 0 -76.5 30t-30.5 76z" />
<glyph unicode="c" d="M-31 281q0 35 20 63t52 39q-33 11 -52.5 38.5t-19.5 63.5q0 35 20 64t52 39q-33 11 -52.5 38.5t-19.5 63.5q0 45 31 77t76 32q44 0 76 -32.5t32 -76.5q0 -36 -21 -63.5t-54 -38.5q33 -11 54 -39.5t21 -63.5q0 -36 -21 -63.5t-54 -38.5q33 -11 54 -39t21 -63 q0 -45 -31.5 -76t-76.5 -31q-46 0 -76.5 30.5t-30.5 76.5zM174 76q0 45 31 76.5t76 31.5q35 0 63 -21t39 -54q11 33 38.5 54t63.5 21q35 0 63.5 -21t39.5 -54q11 33 38.5 54t63.5 21q44 0 76.5 -32t32.5 -76q0 -45 -32 -76t-77 -31q-36 0 -63.5 19.5t-38.5 52.5 q-10 -32 -39 -52t-64 -20q-36 0 -63.5 19.5t-38.5 52.5q-11 -32 -39 -52t-63 -20q-46 0 -76.5 30.5t-30.5 76.5zM174 895q0 45 31 77t76 32q35 0 63 -21.5t39 -54.5q11 33 38.5 54.5t63.5 21.5q35 0 63.5 -21.5t39.5 -54.5q11 33 38.5 54.5t63.5 21.5q44 0 76.5 -32.5 t32.5 -76.5q0 -45 -32 -76t-77 -31q-36 0 -63.5 19.5t-38.5 52.5q-10 -32 -39 -52t-64 -20q-36 0 -63.5 19.5t-38.5 52.5q-11 -32 -39 -52t-63 -20q-46 0 -76.5 30.5t-30.5 76.5zM788 281q0 45 31 76.5t76 31.5q44 0 76.5 -32t32.5 -76q0 -45 -32 -76t-77 -31 q-46 0 -76.5 30.5t-30.5 76.5zM788 690q0 45 31 77t76 32q44 0 76.5 -32.5t32.5 -76.5q0 -45 -32 -75.5t-77 -30.5q-46 0 -76.5 30t-30.5 76z" />
<glyph unicode="d" d="M-31 76q0 35 20 63t52 39q-32 11 -52 39t-20 64q0 35 20 63t52 39q-33 11 -52.5 38.5t-19.5 63.5q0 35 20 64t52 39q-33 11 -52.5 38.5t-19.5 63.5q0 35 20 64t52 39q-33 11 -52.5 38.5t-19.5 63.5q0 45 31 77t76 32q35 0 63 -21.5t39 -54.5q11 33 39 54.5t64 21.5 q35 0 63 -21.5t39 -54.5q11 33 38.5 54.5t63.5 21.5q35 0 63.5 -21.5t39.5 -54.5q11 33 38.5 54.5t63.5 21.5q44 0 76.5 -32.5t32.5 -76.5q0 -45 -32 -76t-77 -31q-36 0 -63.5 19.5t-38.5 52.5q-10 -32 -39 -52t-64 -20q-36 0 -63.5 19.5t-38.5 52.5q-11 -32 -39 -52 t-63 -20q-36 0 -64 20t-39 52q-15 -51 -69 -67q33 -11 54 -39.5t21 -63.5q0 -36 -21 -63.5t-54 -38.5q33 -11 54 -39.5t21 -63.5q0 -36 -21 -63.5t-54 -38.5q33 -11 54 -39t21 -63q0 -36 -21 -64t-54 -39q53 -16 69 -69q11 33 39 54t64 21q35 0 63 -21t39 -54q11 33 38.5 54 t63.5 21q35 0 63.5 -21t39.5 -54q11 33 38.5 54t63.5 21q44 0 76.5 -32t32.5 -76q0 -45 -32 -76t-77 -31q-36 0 -63.5 19.5t-38.5 52.5q-10 -32 -39 -52t-64 -20q-36 0 -63.5 19.5t-38.5 52.5q-11 -32 -39 -52t-63 -20q-36 0 -64 20t-39 52q-11 -32 -39 -52t-63 -20 q-46 0 -76.5 30.5t-30.5 76.5zM788 281q0 35 20 63t52 39q-33 11 -52.5 38.5t-19.5 63.5q0 35 20 64t52 39q-33 11 -52.5 38.5t-19.5 63.5q0 45 31 77t76 32q44 0 76.5 -32.5t32.5 -76.5q0 -36 -21.5 -63.5t-54.5 -38.5q33 -11 54.5 -39.5t21.5 -63.5q0 -36 -21.5 -63.5 t-54.5 -38.5q33 -11 54.5 -39t21.5 -63q0 -45 -32 -76t-77 -31q-46 0 -76.5 30.5t-30.5 76.5z" />
<glyph unicode="e" d="M-31 281q0 35 20 63t52 39q-33 11 -52.5 38.5t-19.5 63.5q0 35 20 64t52 39q-33 11 -52.5 38.5t-19.5 63.5q0 45 31 77t76 32q44 0 76 -32.5t32 -76.5q0 -36 -21 -63.5t-54 -38.5q25 -7 43 -26t26 -44q11 33 39 54.5t64 21.5q35 0 63 -21.5t39 -54.5q11 33 38.5 54.5 t63.5 21.5q35 0 63.5 -21.5t39.5 -54.5q11 33 38.5 54.5t63.5 21.5q35 0 63.5 -21.5t39.5 -54.5q17 55 67 70q-33 11 -52.5 38.5t-19.5 63.5q0 45 31 77t76 32q44 0 76.5 -32.5t32.5 -76.5q0 -36 -21.5 -63.5t-54.5 -38.5q33 -11 54.5 -39.5t21.5 -63.5q0 -45 -32 -75.5 t-77 -30.5q-36 0 -63.5 19.5t-38.5 52.5q-10 -32 -39 -52t-64 -20q-36 0 -63.5 19.5t-38.5 52.5q-10 -32 -39 -52t-64 -20q-36 0 -63.5 19.5t-38.5 52.5q-11 -32 -39 -52t-63 -20q-36 0 -64 20t-39 52q-16 -52 -69 -68q33 -11 54 -39t21 -63q0 -45 -31.5 -76t-76.5 -31 q-46 0 -76.5 30.5t-30.5 76.5zM174 76q0 45 31 76.5t76 31.5q35 0 63 -21t39 -54q11 33 38.5 54t63.5 21q35 0 63.5 -21t39.5 -54q11 33 38.5 54t63.5 21q35 0 63.5 -21t39.5 -54q11 33 38.5 54t63.5 21q44 0 76.5 -32t32.5 -76q0 -45 -32 -76t-77 -31q-36 0 -63.5 19.5 t-38.5 52.5q-10 -32 -39 -52t-64 -20q-36 0 -63.5 19.5t-38.5 52.5q-10 -32 -39 -52t-64 -20q-36 0 -63.5 19.5t-38.5 52.5q-11 -32 -39 -52t-63 -20q-46 0 -76.5 30.5t-30.5 76.5zM174 895q0 45 31 77t76 32q35 0 63 -21.5t39 -54.5q11 33 38.5 54.5t63.5 21.5 q35 0 63.5 -21.5t39.5 -54.5q11 33 38.5 54.5t63.5 21.5q44 0 76.5 -32.5t32.5 -76.5q0 -45 -32 -76t-77 -31q-36 0 -63.5 19.5t-38.5 52.5q-10 -32 -39 -52t-64 -20q-36 0 -63.5 19.5t-38.5 52.5q-11 -32 -39 -52t-63 -20q-46 0 -76.5 30.5t-30.5 76.5z" />
<glyph unicode="f" d="M-31 76q0 35 20 63t52 39q-32 11 -52 39t-20 64q0 35 20 63t52 39q-33 11 -52.5 38.5t-19.5 63.5q0 35 20 64t52 39q-33 11 -52.5 38.5t-19.5 63.5q0 35 20 64t52 39q-33 11 -52.5 38.5t-19.5 63.5q0 45 31 77t76 32q35 0 63 -21.5t39 -54.5q11 33 39 54.5t64 21.5 q35 0 63 -21.5t39 -54.5q11 33 38.5 54.5t63.5 21.5q35 0 63.5 -21.5t39.5 -54.5q11 33 38.5 54.5t63.5 21.5q35 0 63.5 -21.5t39.5 -54.5q11 33 38.5 54.5t63.5 21.5q44 0 76.5 -32.5t32.5 -76.5q0 -45 -32 -76t-77 -31q-36 0 -63.5 19.5t-38.5 52.5q-10 -32 -39 -52 t-64 -20q-36 0 -63.5 19.5t-38.5 52.5q-10 -32 -39 -52t-64 -20q-36 0 -63.5 19.5t-38.5 52.5q-11 -32 -39 -52t-63 -20q-36 0 -64 20t-39 52q-15 -51 -69 -67q33 -11 54 -39.5t21 -63.5q0 -36 -21 -63.5t-54 -38.5q25 -7 43 -26t26 -44q11 33 39 54.5t64 21.5 q35 0 63 -21.5t39 -54.5q11 33 38.5 54.5t63.5 21.5q35 0 63.5 -21.5t39.5 -54.5q11 33 38.5 54.5t63.5 21.5q44 0 76.5 -32.5t32.5 -76.5q0 -45 -32 -75.5t-77 -30.5q-36 0 -63.5 19.5t-38.5 52.5q-10 -32 -39 -52t-64 -20q-36 0 -63.5 19.5t-38.5 52.5q-11 -32 -39 -52 t-63 -20q-36 0 -64 20t-39 52q-16 -52 -69 -68q33 -11 54 -39t21 -63q0 -36 -21 -64t-54 -39q33 -11 54 -39t21 -63q0 -45 -31.5 -76t-76.5 -31q-46 0 -76.5 30.5t-30.5 76.5z" />
<glyph unicode="g" d="M-31 281q0 35 20 63t52 39q-33 11 -52.5 38.5t-19.5 63.5q0 35 20 64t52 39q-33 11 -52.5 38.5t-19.5 63.5q0 45 31 77t76 32q44 0 76 -32.5t32 -76.5q0 -36 -21 -63.5t-54 -38.5q33 -11 54 -39.5t21 -63.5q0 -36 -21 -63.5t-54 -38.5q33 -11 54 -39t21 -63 q0 -45 -31.5 -76t-76.5 -31q-46 0 -76.5 30.5t-30.5 76.5zM174 76q0 45 31 76.5t76 31.5q35 0 63 -21t39 -54q11 33 38.5 54t63.5 21q35 0 63.5 -21t39.5 -54q11 33 38.5 54t63.5 21q35 0 63.5 -21t39.5 -54q16 54 67 69q-32 11 -52 39t-20 64q0 35 20 63t52 39 q-51 15 -67 68q-10 -32 -39 -52t-64 -20q-46 0 -76 30t-30 76q0 45 30.5 77t75.5 32q35 0 63.5 -21.5t39.5 -54.5q11 33 38.5 54.5t63.5 21.5q44 0 76.5 -32.5t32.5 -76.5q0 -36 -21.5 -63.5t-54.5 -38.5q33 -11 54.5 -39t21.5 -63q0 -36 -21.5 -64t-54.5 -39 q33 -11 54.5 -39t21.5 -63q0 -45 -32 -76t-77 -31q-36 0 -63.5 19.5t-38.5 52.5q-10 -32 -39 -52t-64 -20q-36 0 -63.5 19.5t-38.5 52.5q-10 -32 -39 -52t-64 -20q-36 0 -63.5 19.5t-38.5 52.5q-11 -32 -39 -52t-63 -20q-46 0 -76.5 30.5t-30.5 76.5zM174 895q0 45 31 77 t76 32q35 0 63 -21.5t39 -54.5q11 33 38.5 54.5t63.5 21.5q35 0 63.5 -21.5t39.5 -54.5q11 33 38.5 54.5t63.5 21.5q35 0 63.5 -21.5t39.5 -54.5q11 33 38.5 54.5t63.5 21.5q44 0 76.5 -32.5t32.5 -76.5q0 -45 -32 -76t-77 -31q-36 0 -63.5 19.5t-38.5 52.5q-10 -32 -39 -52 t-64 -20q-36 0 -63.5 19.5t-38.5 52.5q-10 -32 -39 -52t-64 -20q-36 0 -63.5 19.5t-38.5 52.5q-11 -32 -39 -52t-63 -20q-46 0 -76.5 30.5t-30.5 76.5z" />
<glyph unicode="h" d="M-31 76q0 35 20 63t52 39q-32 11 -52 39t-20 64q0 35 20 63t52 39q-33 11 -52.5 38.5t-19.5 63.5q0 35 20 64t52 39q-33 11 -52.5 38.5t-19.5 63.5q0 35 20 64t52 39q-33 11 -52.5 38.5t-19.5 63.5q0 45 31 77t76 32q44 0 76 -32.5t32 -76.5q0 -36 -21 -63.5t-54 -38.5 q33 -11 54 -39.5t21 -63.5q0 -36 -21 -63.5t-54 -38.5q25 -7 43 -26t26 -44q11 33 39 54.5t64 21.5q35 0 63 -21.5t39 -54.5q11 33 38.5 54.5t63.5 21.5q35 0 63.5 -21.5t39.5 -54.5q11 33 38.5 54.5t63.5 21.5q35 0 63.5 -21.5t39.5 -54.5q17 55 67 70q-33 11 -52.5 38.5 t-19.5 63.5q0 35 20 64t52 39q-33 11 -52.5 38.5t-19.5 63.5q0 45 31 77t76 32q44 0 76.5 -32.5t32.5 -76.5q0 -36 -21.5 -63.5t-54.5 -38.5q33 -11 54.5 -39.5t21.5 -63.5q0 -36 -21.5 -63.5t-54.5 -38.5q33 -11 54.5 -39.5t21.5 -63.5q0 -36 -21.5 -63.5t-54.5 -38.5 q33 -11 54.5 -39t21.5 -63q0 -36 -21.5 -64t-54.5 -39q33 -11 54.5 -39t21.5 -63q0 -45 -32 -76t-77 -31q-46 0 -76.5 30.5t-30.5 76.5q0 35 20 63t52 39q-32 11 -52 39t-20 64q0 35 20 63t52 39q-51 15 -67 68q-10 -32 -39 -52t-64 -20q-36 0 -63.5 19.5t-38.5 52.5 q-10 -32 -39 -52t-64 -20q-36 0 -63.5 19.5t-38.5 52.5q-11 -32 -39 -52t-63 -20q-36 0 -64 20t-39 52q-16 -52 -69 -68q33 -11 54 -39t21 -63q0 -36 -21 -64t-54 -39q33 -11 54 -39t21 -63q0 -45 -31.5 -76t-76.5 -31q-46 0 -76.5 30.5t-30.5 76.5z" />
<glyph unicode="i" d="M-31 76q0 45 31 76.5t76 31.5q35 0 63 -21t39 -54q11 33 39 54t64 21q35 0 63 -21t39 -54q16 53 68 69q-32 11 -52 39t-20 64q0 35 20 63t52 39q-33 11 -52.5 38.5t-19.5 63.5q0 35 20 64t52 39q-33 11 -52.5 38.5t-19.5 63.5q0 35 20 64t52 39q-53 16 -68 67 q-11 -32 -39 -52t-63 -20q-36 0 -64 20t-39 52q-11 -32 -39 -52t-63 -20q-46 0 -76.5 30.5t-30.5 76.5q0 45 31 77t76 32q35 0 63 -21.5t39 -54.5q11 33 39 54.5t64 21.5q35 0 63 -21.5t39 -54.5q11 33 38.5 54.5t63.5 21.5q44 0 76.5 -32.5t32.5 -76.5q0 -36 -21.5 -63.5 t-54.5 -38.5q33 -11 54.5 -39.5t21.5 -63.5q0 -36 -21.5 -63.5t-54.5 -38.5q33 -11 54.5 -39.5t21.5 -63.5q0 -36 -21.5 -63.5t-54.5 -38.5q33 -11 54.5 -39t21.5 -63q0 -36 -21.5 -64t-54.5 -39q25 -8 44 -26t26 -43q11 33 38.5 54t63.5 21q35 0 63.5 -21t39.5 -54 q11 33 38.5 54t63.5 21q44 0 76.5 -32t32.5 -76q0 -45 -32 -76t-77 -31q-36 0 -63.5 19.5t-38.5 52.5q-10 -32 -39 -52t-64 -20q-36 0 -63.5 19.5t-38.5 52.5q-10 -32 -39 -52t-64 -20q-36 0 -63.5 19.5t-38.5 52.5q-11 -32 -39 -52t-63 -20q-36 0 -64 20t-39 52 q-11 -32 -39 -52t-63 -20q-46 0 -76.5 30.5t-30.5 76.5zM379 1305q0 45 30.5 76.5t75.5 31.5q44 0 76.5 -32t32.5 -76q0 -45 -32 -76t-77 -31q-46 0 -76 30.5t-30 76.5z" />
<glyph unicode="j" d="M-31 281q0 45 31 76.5t76 31.5q44 0 76 -32t32 -76q0 -45 -31.5 -76t-76.5 -31q-46 0 -76.5 30.5t-30.5 76.5zM-31 895q0 45 31 77t76 32q35 0 63 -21.5t39 -54.5q11 33 39 54.5t64 21.5q35 0 63 -21.5t39 -54.5q11 33 38.5 54.5t63.5 21.5q35 0 63.5 -21.5t39.5 -54.5 q11 33 38.5 54.5t63.5 21.5q44 0 76.5 -32.5t32.5 -76.5q0 -36 -21.5 -63.5t-54.5 -38.5q33 -11 54.5 -39.5t21.5 -63.5q0 -36 -21.5 -63.5t-54.5 -38.5q33 -11 54.5 -39.5t21.5 -63.5q0 -36 -21.5 -63.5t-54.5 -38.5q33 -11 54.5 -39t21.5 -63q0 -45 -32 -76t-77 -31 q-46 0 -76 30.5t-30 76.5q0 35 19.5 63.5t51.5 38.5q-32 11 -51.5 38t-19.5 64q0 35 19.5 64t51.5 39q-32 11 -51.5 38t-19.5 64q0 35 19.5 64t51.5 39q-51 16 -67 67q-10 -32 -39 -52t-64 -20q-36 0 -63.5 19.5t-38.5 52.5q-11 -32 -39 -52t-63 -20q-36 0 -64 20t-39 52 q-11 -32 -39 -52t-63 -20q-46 0 -76.5 30.5t-30.5 76.5zM174 76q0 45 31 76.5t76 31.5q35 0 63 -21t39 -54q11 33 38.5 54t63.5 21q44 0 76.5 -32t32.5 -76q0 -45 -32 -76t-77 -31q-36 0 -63.5 19.5t-38.5 52.5q-11 -32 -39 -52t-63 -20q-46 0 -76.5 30.5t-30.5 76.5z" />
<glyph unicode="k" d="M-31 76q0 35 20 63t52 39q-32 11 -52 39t-20 64q0 35 20 63t52 39q-33 11 -52.5 38.5t-19.5 63.5q0 35 20 64t52 39q-33 11 -52.5 38.5t-19.5 63.5q0 35 20 64t52 39q-33 11 -52.5 38.5t-19.5 63.5q0 45 31 77t76 32q44 0 76 -32.5t32 -76.5q0 -36 -21 -63.5t-54 -38.5 q33 -11 54 -39.5t21 -63.5q0 -36 -21 -63.5t-54 -38.5q25 -7 43 -26t26 -44q11 33 39 54.5t64 21.5q35 0 63 -21.5t39 -54.5q11 33 38.5 54.5t63.5 21.5q35 0 63.5 -21.5t39.5 -54.5q11 33 38.5 54.5t63.5 21.5q44 0 76.5 -32.5t32.5 -76.5q0 -45 -32 -75.5t-77 -30.5 q-36 0 -63.5 19.5t-38.5 52.5q-10 -32 -39 -52t-64 -20q-36 0 -63.5 19.5t-38.5 52.5q-11 -32 -39 -52t-63 -20q-36 0 -64 20t-39 52q-16 -52 -69 -68q33 -11 54 -39t21 -63q0 -36 -21 -64t-54 -39q33 -11 54 -39t21 -63q0 -45 -31.5 -76t-76.5 -31q-46 0 -76.5 30.5 t-30.5 76.5zM788 76q0 35 20 63t52 39q-32 11 -52 39t-20 64q0 45 31 76.5t76 31.5q44 0 76.5 -32t32.5 -76q0 -36 -21.5 -64t-54.5 -39q33 -11 54.5 -39t21.5 -63q0 -45 -32 -76t-77 -31q-46 0 -76.5 30.5t-30.5 76.5zM788 690q0 35 20 64t52 39q-33 11 -52.5 38.5 t-19.5 63.5q0 45 31 77t76 32q44 0 76.5 -32.5t32.5 -76.5q0 -36 -21.5 -63.5t-54.5 -38.5q33 -11 54.5 -39.5t21.5 -63.5q0 -45 -32 -75.5t-77 -30.5q-46 0 -76.5 30t-30.5 76z" />
<glyph unicode="l" d="M-31 76q0 35 20 63t52 39q-32 11 -52 39t-20 64q0 35 20 63t52 39q-33 11 -52.5 38.5t-19.5 63.5q0 35 20 64t52 39q-33 11 -52.5 38.5t-19.5 63.5q0 35 20 64t52 39q-33 11 -52.5 38.5t-19.5 63.5q0 45 31 77t76 32q44 0 76 -32.5t32 -76.5q0 -36 -21 -63.5t-54 -38.5 q33 -11 54 -39.5t21 -63.5q0 -36 -21 -63.5t-54 -38.5q33 -11 54 -39.5t21 -63.5q0 -36 -21 -63.5t-54 -38.5q33 -11 54 -39t21 -63q0 -36 -21 -64t-54 -39q53 -16 69 -69q11 33 39 54t64 21q35 0 63 -21t39 -54q11 33 38.5 54t63.5 21q35 0 63.5 -21t39.5 -54 q11 33 38.5 54t63.5 21q35 0 63.5 -21t39.5 -54q11 33 38.5 54t63.5 21q44 0 76.5 -32t32.5 -76q0 -45 -32 -76t-77 -31q-36 0 -63.5 19.5t-38.5 52.5q-10 -32 -39 -52t-64 -20q-36 0 -63.5 19.5t-38.5 52.5q-10 -32 -39 -52t-64 -20q-36 0 -63.5 19.5t-38.5 52.5 q-11 -32 -39 -52t-63 -20q-36 0 -64 20t-39 52q-11 -32 -39 -52t-63 -20q-46 0 -76.5 30.5t-30.5 76.5z" />
<glyph unicode="m" d="M-31 76q0 35 20 63t52 39q-32 11 -52 39t-20 64q0 35 20 63t52 39q-33 11 -52.5 38.5t-19.5 63.5q0 35 20 64t52 39q-33 11 -52.5 38.5t-19.5 63.5q0 35 20 64t52 39q-33 11 -52.5 38.5t-19.5 63.5q0 45 31 77t76 32q44 0 76 -32.5t32 -76.5q0 -36 -21 -63.5t-54 -38.5 q25 -7 43 -26t26 -44q11 33 39 54.5t64 21.5q35 0 63 -21.5t39 -54.5q16 54 68 70q-33 11 -52.5 38.5t-19.5 63.5q0 45 30.5 77t75.5 32q44 0 76.5 -32.5t32.5 -76.5q0 -36 -21.5 -63.5t-54.5 -38.5q25 -8 43.5 -26.5t26.5 -43.5q11 33 38.5 54.5t63.5 21.5q35 0 63.5 -21.5 t39.5 -54.5q17 55 67 70q-33 11 -52.5 38.5t-19.5 63.5q0 45 31 77t76 32q44 0 76.5 -32.5t32.5 -76.5q0 -36 -21.5 -63.5t-54.5 -38.5q33 -11 54.5 -39.5t21.5 -63.5q0 -36 -21.5 -63.5t-54.5 -38.5q33 -11 54.5 -39.5t21.5 -63.5q0 -36 -21.5 -63.5t-54.5 -38.5 q33 -11 54.5 -39t21.5 -63q0 -36 -21.5 -64t-54.5 -39q33 -11 54.5 -39t21.5 -63q0 -45 -32 -76t-77 -31q-46 0 -76.5 30.5t-30.5 76.5q0 35 20 63t52 39q-32 11 -52 39t-20 64q0 35 20 63t52 39q-33 11 -52.5 38.5t-19.5 63.5q0 35 20 64t52 39q-51 16 -67 67 q-10 -32 -39 -51.5t-64 -19.5q-37 0 -64 19.5t-38 51.5q-15 -50 -70 -67q33 -11 54.5 -39.5t21.5 -63.5q0 -36 -21.5 -63.5t-54.5 -38.5q33 -11 54.5 -39t21.5 -63q0 -36 -21.5 -64t-54.5 -39q33 -11 54.5 -39t21.5 -63q0 -45 -32 -76t-77 -31q-46 0 -76 30.5t-30 76.5 q0 35 20 63t52 39q-32 11 -52 39t-20 64q0 35 20 63t52 39q-33 11 -52.5 38.5t-19.5 63.5q0 35 20 64t52 39q-53 16 -68 67q-10 -32 -38.5 -51.5t-63.5 -19.5q-37 0 -64.5 19.5t-38.5 51.5q-15 -51 -69 -67q33 -11 54 -39.5t21 -63.5q0 -36 -21 -63.5t-54 -38.5 q33 -11 54 -39t21 -63q0 -36 -21 -64t-54 -39q33 -11 54 -39t21 -63q0 -45 -31.5 -76t-76.5 -31q-46 0 -76.5 30.5t-30.5 76.5z" />
<glyph unicode="n" d="M-31 76q0 35 20 63t52 39q-32 11 -52 39t-20 64q0 35 20 63t52 39q-33 11 -52.5 38.5t-19.5 63.5q0 35 20 64t52 39q-33 11 -52.5 38.5t-19.5 63.5q0 35 20 64t52 39q-33 11 -52.5 38.5t-19.5 63.5q0 45 31 77t76 32q44 0 76 -32.5t32 -76.5q0 -36 -21 -63.5t-54 -38.5 q25 -7 43 -26t26 -44q11 33 39 54.5t64 21.5q44 0 76 -32.5t32 -76.5q0 -45 -31.5 -75.5t-76.5 -30.5q-37 0 -64.5 19.5t-38.5 51.5q-15 -51 -69 -67q33 -11 54 -39.5t21 -63.5q0 -36 -21 -63.5t-54 -38.5q33 -11 54 -39t21 -63q0 -36 -21 -64t-54 -39q33 -11 54 -39t21 -63 q0 -45 -31.5 -76t-76.5 -31q-46 0 -76.5 30.5t-30.5 76.5zM379 895q0 45 30.5 77t75.5 32q35 0 63.5 -21.5t39.5 -54.5q11 33 38.5 54.5t63.5 21.5q44 0 76.5 -32.5t32.5 -76.5q0 -45 -32 -76t-77 -31q-36 0 -63.5 19.5t-38.5 52.5q-10 -32 -39 -52t-64 -20q-46 0 -76 30.5 t-30 76.5zM788 76q0 35 20 63t52 39q-32 11 -52 39t-20 64q0 35 20 63t52 39q-33 11 -52.5 38.5t-19.5 63.5q0 35 20 64t52 39q-33 11 -52.5 38.5t-19.5 63.5q0 45 31 77t76 32q44 0 76.5 -32.5t32.5 -76.5q0 -36 -21.5 -63.5t-54.5 -38.5q33 -11 54.5 -39.5t21.5 -63.5 q0 -36 -21.5 -63.5t-54.5 -38.5q33 -11 54.5 -39t21.5 -63q0 -36 -21.5 -64t-54.5 -39q33 -11 54.5 -39t21.5 -63q0 -45 -32 -76t-77 -31q-46 0 -76.5 30.5t-30.5 76.5z" />
<glyph unicode="o" d="M-31 281q0 35 20 63t52 39q-33 11 -52.5 38.5t-19.5 63.5q0 35 20 64t52 39q-33 11 -52.5 38.5t-19.5 63.5q0 45 31 77t76 32q44 0 76 -32.5t32 -76.5q0 -36 -21 -63.5t-54 -38.5q33 -11 54 -39.5t21 -63.5q0 -36 -21 -63.5t-54 -38.5q33 -11 54 -39t21 -63 q0 -45 -31.5 -76t-76.5 -31q-46 0 -76.5 30.5t-30.5 76.5zM174 76q0 45 31 76.5t76 31.5q35 0 63 -21t39 -54q11 33 38.5 54t63.5 21q35 0 63.5 -21t39.5 -54q11 33 38.5 54t63.5 21q44 0 76.5 -32t32.5 -76q0 -45 -32 -76t-77 -31q-36 0 -63.5 19.5t-38.5 52.5 q-10 -32 -39 -52t-64 -20q-36 0 -63.5 19.5t-38.5 52.5q-11 -32 -39 -52t-63 -20q-46 0 -76.5 30.5t-30.5 76.5zM174 895q0 45 31 77t76 32q35 0 63 -21.5t39 -54.5q11 33 38.5 54.5t63.5 21.5q35 0 63.5 -21.5t39.5 -54.5q11 33 38.5 54.5t63.5 21.5q44 0 76.5 -32.5 t32.5 -76.5q0 -45 -32 -76t-77 -31q-36 0 -63.5 19.5t-38.5 52.5q-10 -32 -39 -52t-64 -20q-36 0 -63.5 19.5t-38.5 52.5q-11 -32 -39 -52t-63 -20q-46 0 -76.5 30.5t-30.5 76.5zM788 281q0 35 20 63t52 39q-33 11 -52.5 38.5t-19.5 63.5q0 35 20 64t52 39 q-33 11 -52.5 38.5t-19.5 63.5q0 45 31 77t76 32q44 0 76.5 -32.5t32.5 -76.5q0 -36 -21.5 -63.5t-54.5 -38.5q33 -11 54.5 -39.5t21.5 -63.5q0 -36 -21.5 -63.5t-54.5 -38.5q33 -11 54.5 -39t21.5 -63q0 -45 -32 -76t-77 -31q-46 0 -76.5 30.5t-30.5 76.5z" />
<glyph unicode="p" d="M-31 76q0 35 20 63t52 39q-32 11 -52 39t-20 64q0 35 20 63t52 39q-33 11 -52.5 38.5t-19.5 63.5q0 35 20 64t52 39q-33 11 -52.5 38.5t-19.5 63.5q0 35 20 64t52 39q-33 11 -52.5 38.5t-19.5 63.5q0 45 31 77t76 32q35 0 63 -21.5t39 -54.5q11 33 39 54.5t64 21.5 q35 0 63 -21.5t39 -54.5q11 33 38.5 54.5t63.5 21.5q35 0 63.5 -21.5t39.5 -54.5q11 33 38.5 54.5t63.5 21.5q44 0 76.5 -32.5t32.5 -76.5q0 -45 -32 -76t-77 -31q-36 0 -63.5 19.5t-38.5 52.5q-10 -32 -39 -52t-64 -20q-36 0 -63.5 19.5t-38.5 52.5q-11 -32 -39 -52 t-63 -20q-36 0 -64 20t-39 52q-15 -51 -69 -67q33 -11 54 -39.5t21 -63.5q0 -36 -21 -63.5t-54 -38.5q25 -7 43 -26t26 -44q11 33 39 54.5t64 21.5q35 0 63 -21.5t39 -54.5q11 33 38.5 54.5t63.5 21.5q35 0 63.5 -21.5t39.5 -54.5q11 33 38.5 54.5t63.5 21.5 q44 0 76.5 -32.5t32.5 -76.5q0 -45 -32 -75.5t-77 -30.5q-36 0 -63.5 19.5t-38.5 52.5q-10 -32 -39 -52t-64 -20q-36 0 -63.5 19.5t-38.5 52.5q-11 -32 -39 -52t-63 -20q-36 0 -64 20t-39 52q-16 -52 -69 -68q33 -11 54 -39t21 -63q0 -36 -21 -64t-54 -39q33 -11 54 -39 t21 -63q0 -45 -31.5 -76t-76.5 -31q-46 0 -76.5 30.5t-30.5 76.5zM788 690q0 45 31 77t76 32q44 0 76.5 -32.5t32.5 -76.5q0 -45 -32 -75.5t-77 -30.5q-46 0 -76.5 30t-30.5 76z" />
<glyph unicode="q" d="M-31 281q0 35 20 63t52 39q-33 11 -52.5 38.5t-19.5 63.5q0 35 20 64t52 39q-33 11 -52.5 38.5t-19.5 63.5q0 45 31 77t76 32q44 0 76 -32.5t32 -76.5q0 -36 -21 -63.5t-54 -38.5q33 -11 54 -39.5t21 -63.5q0 -36 -21 -63.5t-54 -38.5q33 -11 54 -39t21 -63 q0 -45 -31.5 -76t-76.5 -31q-46 0 -76.5 30.5t-30.5 76.5zM174 76q0 45 31 76.5t76 31.5q35 0 63 -21t39 -54q16 53 68 69q-32 11 -52 39t-20 64q0 45 30.5 76.5t75.5 31.5q44 0 76.5 -32t32.5 -76q0 -36 -21.5 -64t-54.5 -39q25 -8 44 -26t26 -43q11 33 38.5 54t63.5 21 q44 0 76.5 -32t32.5 -76q0 -45 -32 -76t-77 -31q-36 0 -63.5 19.5t-38.5 52.5q-15 -49 -70 -66q33 -11 54.5 -40t21.5 -64q0 -45 -32 -76t-77 -31q-46 0 -76 30.5t-30 76.5q0 35 20 64.5t52 39.5q-53 16 -68 66q-11 -32 -39 -52t-63 -20q-46 0 -76.5 30.5t-30.5 76.5z M174 895q0 45 31 77t76 32q35 0 63 -21.5t39 -54.5q11 33 38.5 54.5t63.5 21.5q35 0 63.5 -21.5t39.5 -54.5q11 33 38.5 54.5t63.5 21.5q44 0 76.5 -32.5t32.5 -76.5q0 -45 -32 -76t-77 -31q-36 0 -63.5 19.5t-38.5 52.5q-10 -32 -39 -52t-64 -20q-36 0 -63.5 19.5 t-38.5 52.5q-11 -32 -39 -52t-63 -20q-46 0 -76.5 30.5t-30.5 76.5zM584 -334q0 45 30.5 77t75.5 32q44 0 76.5 -32.5t32.5 -76.5q0 -45 -32 -75.5t-77 -30.5q-46 0 -76 30t-30 76zM788 281q0 35 20 63t52 39q-33 11 -52.5 38.5t-19.5 63.5q0 35 20 64t52 39 q-33 11 -52.5 38.5t-19.5 63.5q0 45 31 77t76 32q44 0 76.5 -32.5t32.5 -76.5q0 -36 -21.5 -63.5t-54.5 -38.5q33 -11 54.5 -39.5t21.5 -63.5q0 -36 -21.5 -63.5t-54.5 -38.5q33 -11 54.5 -39t21.5 -63q0 -45 -32 -76t-77 -31q-46 0 -76.5 30.5t-30.5 76.5z" />
<glyph unicode="r" d="M-31 76q0 45 31 76.5t76 31.5q35 0 63 -21t39 -54q16 53 68 69q-32 11 -52 39t-20 64q0 35 20 63t52 39q-33 11 -52.5 38.5t-19.5 63.5q0 35 20 64t52 39q-33 11 -52.5 38.5t-19.5 63.5q0 35 20 64t52 39q-53 16 -68 67q-11 -32 -39 -52t-63 -20q-46 0 -76.5 30.5 t-30.5 76.5q0 45 31 77t76 32q35 0 63 -21.5t39 -54.5q11 33 39 54.5t64 21.5q44 0 76 -32.5t32 -76.5q0 -36 -21.5 -63.5t-54.5 -38.5q25 -8 43.5 -26.5t26.5 -43.5q11 33 38.5 54.5t63.5 21.5q44 0 76.5 -32.5t32.5 -76.5q0 -45 -32 -75.5t-77 -30.5q-37 0 -64 19.5 t-38 51.5q-15 -50 -70 -67q33 -11 54.5 -39.5t21.5 -63.5q0 -36 -21.5 -63.5t-54.5 -38.5q33 -11 54.5 -39t21.5 -63q0 -36 -21.5 -64t-54.5 -39q25 -8 44 -26t26 -43q11 33 38.5 54t63.5 21q35 0 63.5 -21t39.5 -54q11 33 38.5 54t63.5 21q44 0 76.5 -32t32.5 -76 q0 -45 -32 -76t-77 -31q-36 0 -63.5 19.5t-38.5 52.5q-10 -32 -39 -52t-64 -20q-36 0 -63.5 19.5t-38.5 52.5q-11 -32 -39 -52t-63 -20q-36 0 -64 20t-39 52q-11 -32 -39 -52t-63 -20q-46 0 -76.5 30.5t-30.5 76.5zM584 895q0 45 30.5 77t75.5 32q35 0 63.5 -21.5 t39.5 -54.5q11 33 38.5 54.5t63.5 21.5q44 0 76.5 -32.5t32.5 -76.5q0 -45 -32 -76t-77 -31q-36 0 -63.5 19.5t-38.5 52.5q-10 -32 -39 -52t-64 -20q-46 0 -76 30.5t-30 76.5z" />
<glyph unicode="s" d="M-31 76q0 45 31 76.5t76 31.5q35 0 63 -21t39 -54q11 33 39 54t64 21q35 0 63 -21t39 -54q11 33 38.5 54t63.5 21q35 0 63.5 -21t39.5 -54q11 33 38.5 54t63.5 21q44 0 76.5 -32t32.5 -76q0 -45 -32 -76t-77 -31q-36 0 -63.5 19.5t-38.5 52.5q-10 -32 -39 -52t-64 -20 q-36 0 -63.5 19.5t-38.5 52.5q-11 -32 -39 -52t-63 -20q-36 0 -64 20t-39 52q-11 -32 -39 -52t-63 -20q-46 0 -76.5 30.5t-30.5 76.5zM-31 690q0 45 31 77t76 32q44 0 76 -32.5t32 -76.5q0 -45 -31.5 -75.5t-76.5 -30.5q-46 0 -76.5 30t-30.5 76zM174 485q0 45 31 77t76 32 q35 0 63 -21.5t39 -54.5q11 33 38.5 54.5t63.5 21.5q35 0 63.5 -21.5t39.5 -54.5q11 33 38.5 54.5t63.5 21.5q44 0 76.5 -32.5t32.5 -76.5q0 -45 -32 -75.5t-77 -30.5q-36 0 -63.5 19.5t-38.5 52.5q-10 -32 -39 -52t-64 -20q-36 0 -63.5 19.5t-38.5 52.5q-11 -32 -39 -52 t-63 -20q-46 0 -76.5 30t-30.5 76zM174 895q0 45 31 77t76 32q35 0 63 -21.5t39 -54.5q11 33 38.5 54.5t63.5 21.5q35 0 63.5 -21.5t39.5 -54.5q11 33 38.5 54.5t63.5 21.5q35 0 63.5 -21.5t39.5 -54.5q11 33 38.5 54.5t63.5 21.5q44 0 76.5 -32.5t32.5 -76.5q0 -45 -32 -76 t-77 -31q-36 0 -63.5 19.5t-38.5 52.5q-10 -32 -39 -52t-64 -20q-36 0 -63.5 19.5t-38.5 52.5q-10 -32 -39 -52t-64 -20q-36 0 -63.5 19.5t-38.5 52.5q-11 -32 -39 -52t-63 -20q-46 0 -76.5 30.5t-30.5 76.5zM788 281q0 45 31 76.5t76 31.5q44 0 76.5 -32t32.5 -76 q0 -45 -32 -76t-77 -31q-46 0 -76.5 30.5t-30.5 76.5z" />
<glyph unicode="t" d="M-31 895q0 45 31 77t76 32q35 0 63 -21.5t39 -54.5q11 33 39 54.5t64 21.5q35 0 63 -21.5t39 -54.5q11 33 38.5 54.5t63.5 21.5q35 0 63.5 -21.5t39.5 -54.5q11 33 38.5 54.5t63.5 21.5q35 0 63.5 -21.5t39.5 -54.5q11 33 38.5 54.5t63.5 21.5q44 0 76.5 -32.5 t32.5 -76.5q0 -45 -32 -76t-77 -31q-36 0 -63.5 19.5t-38.5 52.5q-10 -32 -39 -52t-64 -20q-36 0 -63.5 19.5t-38.5 52.5q-15 -50 -70 -67q33 -11 54.5 -39.5t21.5 -63.5q0 -36 -21.5 -63.5t-54.5 -38.5q33 -11 54.5 -39.5t21.5 -63.5q0 -36 -21.5 -63.5t-54.5 -38.5 q33 -11 54.5 -39t21.5 -63q0 -36 -21.5 -64t-54.5 -39q33 -11 54.5 -39t21.5 -63q0 -45 -32 -76t-77 -31q-46 0 -76 30.5t-30 76.5q0 35 20 63t52 39q-32 11 -52 39t-20 64q0 35 20 63t52 39q-33 11 -52.5 38.5t-19.5 63.5q0 35 20 64t52 39q-33 11 -52.5 38.5t-19.5 63.5 q0 35 20 64t52 39q-53 16 -68 67q-11 -32 -39 -52t-63 -20q-36 0 -64 20t-39 52q-11 -32 -39 -52t-63 -20q-46 0 -76.5 30.5t-30.5 76.5z" />
<glyph unicode="u" d="M-31 281q0 35 20 63t52 39q-33 11 -52.5 38.5t-19.5 63.5q0 35 20 64t52 39q-33 11 -52.5 38.5t-19.5 63.5q0 35 20 64t52 39q-33 11 -52.5 38.5t-19.5 63.5q0 45 31 77t76 32q44 0 76 -32.5t32 -76.5q0 -36 -21 -63.5t-54 -38.5q33 -11 54 -39.5t21 -63.5 q0 -36 -21 -63.5t-54 -38.5q33 -11 54 -39.5t21 -63.5q0 -36 -21 -63.5t-54 -38.5q33 -11 54 -39t21 -63q0 -45 -31.5 -76t-76.5 -31q-46 0 -76.5 30.5t-30.5 76.5zM174 76q0 45 31 76.5t76 31.5q35 0 63 -21t39 -54q11 33 38.5 54t63.5 21q44 0 76.5 -32t32.5 -76 q0 -45 -32 -76t-77 -31q-36 0 -63.5 19.5t-38.5 52.5q-11 -32 -39 -52t-63 -20q-46 0 -76.5 30.5t-30.5 76.5zM584 281q0 45 30.5 76.5t75.5 31.5q35 0 63.5 -21.5t39.5 -54.5q17 55 67 70q-33 11 -52.5 38.5t-19.5 63.5q0 35 20 64t52 39q-33 11 -52.5 38.5t-19.5 63.5 q0 35 20 64t52 39q-33 11 -52.5 38.5t-19.5 63.5q0 45 31 77t76 32q44 0 76.5 -32.5t32.5 -76.5q0 -36 -21.5 -63.5t-54.5 -38.5q33 -11 54.5 -39.5t21.5 -63.5q0 -36 -21.5 -63.5t-54.5 -38.5q33 -11 54.5 -39.5t21.5 -63.5q0 -36 -21.5 -63.5t-54.5 -38.5q33 -11 54.5 -39 t21.5 -63q0 -36 -21.5 -64t-54.5 -39q33 -11 54.5 -39t21.5 -63q0 -45 -32 -76t-77 -31q-46 0 -76.5 30.5t-30.5 76.5q0 35 20 63t52 39q-51 15 -67 68q-10 -32 -39 -52t-64 -20q-46 0 -76 30.5t-30 76.5z" />
<glyph unicode="v" d="M-31 690q0 35 20 64t52 39q-33 11 -52.5 38.5t-19.5 63.5q0 45 31 77t76 32q44 0 76 -32.5t32 -76.5q0 -36 -21 -63.5t-54 -38.5q33 -11 54 -39.5t21 -63.5q0 -45 -31.5 -75.5t-76.5 -30.5q-46 0 -76.5 30t-30.5 76zM174 281q0 35 20 63t52 39q-33 11 -52.5 38.5 t-19.5 63.5q0 45 31 77t76 32q44 0 76 -32.5t32 -76.5q0 -36 -21.5 -63.5t-54.5 -38.5q33 -11 54.5 -39t21.5 -63q0 -45 -31.5 -76t-76.5 -31q-46 0 -76.5 30.5t-30.5 76.5zM379 76q0 45 30.5 76.5t75.5 31.5q44 0 76.5 -32t32.5 -76q0 -45 -32 -76t-77 -31q-46 0 -76 30.5 t-30 76.5zM584 281q0 35 19.5 63.5t51.5 38.5q-32 11 -51.5 38t-19.5 64q0 45 30.5 77t75.5 32q44 0 76.5 -32.5t32.5 -76.5q0 -36 -21.5 -63.5t-54.5 -38.5q33 -11 54.5 -39t21.5 -63q0 -45 -32 -76t-77 -31q-46 0 -76 30.5t-30 76.5zM788 690q0 35 20 64t52 39 q-33 11 -52.5 38.5t-19.5 63.5q0 45 31 77t76 32q44 0 76.5 -32.5t32.5 -76.5q0 -36 -21.5 -63.5t-54.5 -38.5q33 -11 54.5 -39.5t21.5 -63.5q0 -45 -32 -75.5t-77 -30.5q-46 0 -76.5 30t-30.5 76z" />
<glyph unicode="w" d="M-31 485q0 35 20 64t52 39q-33 11 -52.5 38.5t-19.5 63.5q0 35 20 64t52 39q-33 11 -52.5 38.5t-19.5 63.5q0 45 31 77t76 32q44 0 76 -32.5t32 -76.5q0 -36 -21 -63.5t-54 -38.5q33 -11 54 -39.5t21 -63.5q0 -36 -21 -63.5t-54 -38.5q33 -11 54 -39.5t21 -63.5 q0 -45 -31.5 -75.5t-76.5 -30.5q-46 0 -76.5 30t-30.5 76zM174 76q0 35 20 63t52 39q-32 11 -52 39t-20 64q0 45 31 76.5t76 31.5q44 0 76 -32t32 -76q0 -36 -21.5 -64t-54.5 -39q33 -11 54.5 -39t21.5 -63q0 -45 -31.5 -76t-76.5 -31q-46 0 -76.5 30.5t-30.5 76.5zM379 485 q0 35 20 64t52 39q-33 11 -52.5 38.5t-19.5 63.5q0 45 30.5 77t75.5 32q44 0 76.5 -32.5t32.5 -76.5q0 -36 -21.5 -63.5t-54.5 -38.5q33 -11 54.5 -39.5t21.5 -63.5q0 -45 -32 -75.5t-77 -30.5q-46 0 -76 30t-30 76zM584 76q0 35 19.5 63.5t51.5 38.5q-32 11 -51.5 38.5 t-19.5 64.5q0 45 30.5 76.5t75.5 31.5q44 0 76.5 -32t32.5 -76q0 -36 -21.5 -64t-54.5 -39q33 -11 54.5 -39t21.5 -63q0 -45 -32 -76t-77 -31q-46 0 -76 30.5t-30 76.5zM788 485q0 35 20 64t52 39q-33 11 -52.5 38.5t-19.5 63.5q0 35 20 64t52 39q-33 11 -52.5 38.5 t-19.5 63.5q0 45 31 77t76 32q44 0 76.5 -32.5t32.5 -76.5q0 -36 -21.5 -63.5t-54.5 -38.5q33 -11 54.5 -39.5t21.5 -63.5q0 -36 -21.5 -63.5t-54.5 -38.5q33 -11 54.5 -39.5t21.5 -63.5q0 -45 -32 -75.5t-77 -30.5q-46 0 -76.5 30t-30.5 76z" />
<glyph unicode="x" d="M-31 76q0 35 20 63t52 39q-32 11 -52 39t-20 64q0 45 31 76.5t76 31.5q44 0 76 -32t32 -76q0 -36 -21 -64t-54 -39q33 -11 54 -39t21 -63q0 -45 -31.5 -76t-76.5 -31q-46 0 -76.5 30.5t-30.5 76.5zM-31 690q0 35 20 64t52 39q-33 11 -52.5 38.5t-19.5 63.5q0 45 31 77 t76 32q44 0 76 -32.5t32 -76.5q0 -36 -21 -63.5t-54 -38.5q33 -11 54 -39.5t21 -63.5q0 -45 -31.5 -75.5t-76.5 -30.5q-46 0 -76.5 30t-30.5 76zM174 485q0 45 31 77t76 32q35 0 63 -21.5t39 -54.5q11 33 38.5 54.5t63.5 21.5q35 0 63.5 -21.5t39.5 -54.5q11 33 38.5 54.5 t63.5 21.5q44 0 76.5 -32.5t32.5 -76.5q0 -45 -32 -75.5t-77 -30.5q-36 0 -63.5 19.5t-38.5 52.5q-10 -32 -39 -52t-64 -20q-36 0 -63.5 19.5t-38.5 52.5q-11 -32 -39 -52t-63 -20q-46 0 -76.5 30t-30.5 76zM788 76q0 35 20 63t52 39q-32 11 -52 39t-20 64q0 45 31 76.5 t76 31.5q44 0 76.5 -32t32.5 -76q0 -36 -21.5 -64t-54.5 -39q33 -11 54.5 -39t21.5 -63q0 -45 -32 -76t-77 -31q-46 0 -76.5 30.5t-30.5 76.5zM788 690q0 35 20 64t52 39q-33 11 -52.5 38.5t-19.5 63.5q0 45 31 77t76 32q44 0 76.5 -32.5t32.5 -76.5q0 -36 -21.5 -63.5 t-54.5 -38.5q33 -11 54.5 -39.5t21.5 -63.5q0 -45 -32 -75.5t-77 -30.5q-46 0 -76.5 30t-30.5 76z" />
<glyph unicode="y" d="M-31 690q0 35 20 64t52 39q-33 11 -52.5 38.5t-19.5 63.5q0 45 31 77t76 32q44 0 76 -32.5t32 -76.5q0 -36 -21 -63.5t-54 -38.5q33 -11 54 -39.5t21 -63.5q0 -45 -31.5 -75.5t-76.5 -30.5q-46 0 -76.5 30t-30.5 76zM174 485q0 45 31 77t76 32q44 0 76 -32.5t32 -76.5 q0 -45 -31.5 -75.5t-76.5 -30.5q-46 0 -76.5 30t-30.5 76zM379 76q0 35 20 63t52 39q-32 11 -52 39t-20 64q0 45 30.5 76.5t75.5 31.5q44 0 76.5 -32t32.5 -76q0 -36 -21.5 -64t-54.5 -39q33 -11 54.5 -39t21.5 -63q0 -45 -32 -76t-77 -31q-46 0 -76 30.5t-30 76.5zM584 485 q0 45 30.5 77t75.5 32q44 0 76.5 -32.5t32.5 -76.5q0 -45 -32 -75.5t-77 -30.5q-46 0 -76 30t-30 76zM788 690q0 35 20 64t52 39q-33 11 -52.5 38.5t-19.5 63.5q0 45 31 77t76 32q44 0 76.5 -32.5t32.5 -76.5q0 -36 -21.5 -63.5t-54.5 -38.5q33 -11 54.5 -39.5t21.5 -63.5 q0 -45 -32 -75.5t-77 -30.5q-46 0 -76.5 30t-30.5 76z" />
<glyph unicode="z" d="M-31 76q0 45 31 76.5t76 31.5q35 0 63 -21t39 -54q16 53 68 69q-32 11 -52 39t-20 64q0 45 31 76.5t76 31.5q44 0 76 -32t32 -76q0 -36 -21.5 -64t-54.5 -39q25 -8 44 -26t26 -43q11 33 38.5 54t63.5 21q35 0 63.5 -21t39.5 -54q11 33 38.5 54t63.5 21q35 0 63.5 -21 t39.5 -54q11 33 38.5 54t63.5 21q44 0 76.5 -32t32.5 -76q0 -45 -32 -76t-77 -31q-36 0 -63.5 19.5t-38.5 52.5q-10 -32 -39 -52t-64 -20q-36 0 -63.5 19.5t-38.5 52.5q-10 -32 -39 -52t-64 -20q-36 0 -63.5 19.5t-38.5 52.5q-11 -32 -39 -52t-63 -20q-36 0 -64 20t-39 52 q-11 -32 -39 -52t-63 -20q-46 0 -76.5 30.5t-30.5 76.5zM-31 895q0 45 31 77t76 32q35 0 63 -21.5t39 -54.5q11 33 39 54.5t64 21.5q35 0 63 -21.5t39 -54.5q11 33 38.5 54.5t63.5 21.5q35 0 63.5 -21.5t39.5 -54.5q11 33 38.5 54.5t63.5 21.5q35 0 63.5 -21.5t39.5 -54.5 q11 33 38.5 54.5t63.5 21.5q44 0 76.5 -32.5t32.5 -76.5q0 -45 -32 -76t-77 -31q-36 0 -63.5 19.5t-38.5 52.5q-15 -50 -70 -67q33 -11 54.5 -39.5t21.5 -63.5q0 -45 -32 -75.5t-77 -30.5q-46 0 -76 30t-30 76q0 35 19.5 64t51.5 39q-51 16 -67 67q-10 -32 -39 -52t-64 -20 q-36 0 -63.5 19.5t-38.5 52.5q-11 -32 -39 -52t-63 -20q-36 0 -64 20t-39 52q-11 -32 -39 -52t-63 -20q-46 0 -76.5 30.5t-30.5 76.5zM379 485q0 45 30.5 77t75.5 32q44 0 76.5 -32.5t32.5 -76.5q0 -45 -32 -75.5t-77 -30.5q-46 0 -76 30t-30 76z" />
<glyph unicode="{" d="M174 485q0 45 31 77t76 32q44 0 76 -32.5t32 -76.5q0 -45 -31.5 -75.5t-76.5 -30.5q-46 0 -76.5 30t-30.5 76zM379 76q0 35 20 63t52 39q-32 11 -52 39t-20 64q0 45 30.5 76.5t75.5 31.5q44 0 76.5 -32t32.5 -76q0 -36 -21.5 -64t-54.5 -39q33 -11 54.5 -39t21.5 -63 q0 -45 -32 -76t-77 -31q-46 0 -76 30.5t-30 76.5zM379 690q0 35 20 64t52 39q-33 11 -52.5 38.5t-19.5 63.5q0 45 30.5 77t75.5 32q44 0 76.5 -32.5t32.5 -76.5q0 -36 -21.5 -63.5t-54.5 -38.5q33 -11 54.5 -39.5t21.5 -63.5q0 -45 -32 -75.5t-77 -30.5q-46 0 -76 30t-30 76 zM584 -129q0 45 30.5 77t75.5 32q44 0 76.5 -32.5t32.5 -76.5q0 -45 -32 -76t-77 -31q-46 0 -76 30.5t-30 76.5zM584 1100q0 45 30.5 76.5t75.5 31.5q44 0 76.5 -32t32.5 -76q0 -45 -32 -76t-77 -31q-46 0 -76 30.5t-30 76.5z" />
<glyph unicode="|" d="M379 76q0 35 20 63t52 39q-32 11 -52 39t-20 64q0 35 20 63t52 39q-33 11 -52.5 38.5t-19.5 63.5q0 35 20 64t52 39q-33 11 -52.5 38.5t-19.5 63.5q0 35 20 64t52 39q-33 11 -52.5 38.5t-19.5 63.5q0 35 20 63t52 39q-32 11 -52 39t-20 64q0 45 30.5 76.5t75.5 31.5 q44 0 76.5 -32t32.5 -76q0 -36 -21.5 -64t-54.5 -39q33 -11 54.5 -39t21.5 -63q0 -36 -21.5 -63.5t-54.5 -38.5q33 -11 54.5 -39.5t21.5 -63.5q0 -36 -21.5 -63.5t-54.5 -38.5q33 -11 54.5 -39.5t21.5 -63.5q0 -36 -21.5 -63.5t-54.5 -38.5q33 -11 54.5 -39t21.5 -63 q0 -36 -21.5 -64t-54.5 -39q33 -11 54.5 -39t21.5 -63q0 -36 -21.5 -64t-54.5 -37q33 -11 54.5 -40t21.5 -64q0 -45 -32 -76t-77 -31q-46 0 -76 30.5t-30 76.5q0 35 20 64.5t52 39.5q-32 9 -52 36.5t-20 64.5z" />
<glyph unicode="}" d="M174 -129q0 45 31 77t76 32q44 0 76 -32.5t32 -76.5q0 -45 -31.5 -76t-76.5 -31q-46 0 -76.5 30.5t-30.5 76.5zM174 1100q0 45 31 76.5t76 31.5q44 0 76 -32t32 -76q0 -45 -31.5 -76t-76.5 -31q-46 0 -76.5 30.5t-30.5 76.5zM379 76q0 35 20 63t52 39q-32 11 -52 39 t-20 64q0 45 30.5 76.5t75.5 31.5q44 0 76.5 -32t32.5 -76q0 -36 -21.5 -64t-54.5 -39q33 -11 54.5 -39t21.5 -63q0 -45 -32 -76t-77 -31q-46 0 -76 30.5t-30 76.5zM379 690q0 35 20 64t52 39q-33 11 -52.5 38.5t-19.5 63.5q0 45 30.5 77t75.5 32q44 0 76.5 -32.5 t32.5 -76.5q0 -36 -21.5 -63.5t-54.5 -38.5q33 -11 54.5 -39.5t21.5 -63.5q0 -45 -32 -75.5t-77 -30.5q-46 0 -76 30t-30 76zM584 485q0 45 30.5 77t75.5 32q44 0 76.5 -32.5t32.5 -76.5q0 -45 -32 -75.5t-77 -30.5q-46 0 -76 30t-30 76z" />
<glyph unicode="~" d="M-31 690q0 45 31 77t76 32q44 0 76 -32.5t32 -76.5q0 -45 -31.5 -75.5t-76.5 -30.5q-46 0 -76.5 30t-30.5 76zM174 895q0 45 31 77t76 32q44 0 76 -32.5t32 -76.5q0 -45 -31.5 -76t-76.5 -31q-46 0 -76.5 30.5t-30.5 76.5zM379 690q0 45 30.5 77t75.5 32q44 0 76.5 -32.5 t32.5 -76.5q0 -45 -32 -75.5t-77 -30.5q-46 0 -76 30t-30 76zM584 485q0 45 30.5 77t75.5 32q44 0 76.5 -32.5t32.5 -76.5q0 -45 -32 -75.5t-77 -30.5q-46 0 -76 30t-30 76zM788 690q0 45 31 77t76 32q44 0 76.5 -32.5t32.5 -76.5q0 -45 -32 -75.5t-77 -30.5q-46 0 -76.5 30 t-30.5 76z" />
<glyph unicode="&#xa0;" />
<glyph unicode="&#xa1;" d="M379 78q0 36 19.5 63.5t52.5 38.5q-32 10 -52 39t-20 64q0 36 19.5 63.5t52.5 38.5q-32 11 -52 39t-20 63q0 46 30 76.5t76 30.5q45 0 77 -31t32 -76q0 -35 -21.5 -63t-54.5 -39q33 -11 54.5 -38.5t21.5 -63.5q0 -35 -21.5 -63.5t-54.5 -39.5q33 -11 54.5 -38.5 t21.5 -63.5q0 -44 -32.5 -76.5t-76.5 -32.5q-45 0 -75.5 32t-30.5 77zM379 897q0 46 30 76.5t76 30.5q45 0 77 -31t32 -76q0 -44 -32.5 -76.5t-76.5 -32.5q-45 0 -75.5 32t-30.5 77z" />
<glyph unicode="&#xa2;" d="M-31 281q0 35 20 63t52 39q-33 11 -52.5 38.5t-19.5 63.5q0 35 20 64t52 39q-33 11 -52.5 38.5t-19.5 63.5q0 45 31 77t76 32q44 0 76 -32.5t32 -76.5q0 -36 -21 -63.5t-54 -38.5q33 -11 54 -39.5t21 -63.5q0 -36 -21 -63.5t-54 -38.5q33 -11 54 -39t21 -63 q0 -45 -31.5 -76t-76.5 -31q-46 0 -76.5 30.5t-30.5 76.5zM174 76q0 45 31 76.5t76 31.5q35 0 63 -21t39 -54q16 53 68 69q-32 11 -52 39t-20 64q0 35 20 63t52 39q-33 11 -52.5 38.5t-19.5 63.5q0 35 20 64t52 39q-33 11 -52.5 38.5t-19.5 63.5q0 35 20 64t52 39 q-53 16 -68 67q-11 -32 -39 -52t-63 -20q-46 0 -76.5 30.5t-30.5 76.5q0 45 31 77t76 32q35 0 63 -21.5t39 -54.5q16 53 68 69q-32 11 -52 39t-20 64q0 45 30.5 76.5t75.5 31.5q44 0 76.5 -32t32.5 -76q0 -36 -21.5 -64t-54.5 -39q25 -8 44 -26t26 -43q11 33 38.5 54.5 t63.5 21.5q44 0 76.5 -32.5t32.5 -76.5q0 -45 -32 -76t-77 -31q-36 0 -63.5 19.5t-38.5 52.5q-15 -50 -70 -67q33 -11 54.5 -39.5t21.5 -63.5q0 -36 -21.5 -63.5t-54.5 -38.5q33 -11 54.5 -39.5t21.5 -63.5q0 -36 -21.5 -63.5t-54.5 -38.5q33 -11 54.5 -39t21.5 -63 q0 -36 -21.5 -64t-54.5 -39q25 -8 44 -26t26 -43q11 33 38.5 54t63.5 21q44 0 76.5 -32t32.5 -76q0 -45 -32 -76t-77 -31q-36 0 -63.5 19.5t-38.5 52.5q-15 -49 -70 -66q33 -11 54.5 -40t21.5 -64q0 -45 -32 -76t-77 -31q-46 0 -76 30.5t-30 76.5q0 35 20 64.5t52 39.5 q-53 16 -68 66q-11 -32 -39 -52t-63 -20q-46 0 -76.5 30.5t-30.5 76.5zM788 281q0 45 31 76.5t76 31.5q44 0 76.5 -32t32.5 -76q0 -45 -32 -76t-77 -31q-46 0 -76.5 30.5t-30.5 76.5zM788 690q0 45 31 77t76 32q44 0 76.5 -32.5t32.5 -76.5q0 -45 -32 -75.5t-77 -30.5 q-46 0 -76.5 30t-30.5 76z" />
<glyph unicode="&#xa3;" d="M-31 76q0 45 31 76.5t76 31.5q35 0 63 -21t39 -54q16 53 68 69q-32 11 -52 39t-20 64q0 35 20 63t52 39q-52 16 -68 68q-11 -32 -39 -52t-63 -20q-46 0 -76.5 30t-30.5 76q0 45 31 77t76 32q35 0 63 -21.5t39 -54.5q16 54 68 70q-33 11 -52.5 38.5t-19.5 63.5q0 45 31 77 t76 32q44 0 76 -32.5t32 -76.5q0 -36 -21.5 -63.5t-54.5 -38.5q25 -8 43.5 -26.5t26.5 -43.5q11 33 38.5 54.5t63.5 21.5q35 0 63.5 -21.5t39.5 -54.5q11 33 38.5 54.5t63.5 21.5q44 0 76.5 -32.5t32.5 -76.5q0 -45 -32 -75.5t-77 -30.5q-36 0 -63.5 19.5t-38.5 52.5 q-10 -32 -39 -52t-64 -20q-36 0 -63.5 19.5t-38.5 52.5q-16 -52 -70 -68q33 -11 54.5 -39t21.5 -63q0 -36 -21.5 -64t-54.5 -39q25 -8 44 -26t26 -43q11 33 38.5 54t63.5 21q35 0 63.5 -21t39.5 -54q11 33 38.5 54t63.5 21q35 0 63.5 -21t39.5 -54q11 33 38.5 54t63.5 21 q44 0 76.5 -32t32.5 -76q0 -45 -32 -76t-77 -31q-36 0 -63.5 19.5t-38.5 52.5q-10 -32 -39 -52t-64 -20q-36 0 -63.5 19.5t-38.5 52.5q-10 -32 -39 -52t-64 -20q-36 0 -63.5 19.5t-38.5 52.5q-11 -32 -39 -52t-63 -20q-36 0 -64 20t-39 52q-11 -32 -39 -52t-63 -20 q-46 0 -76.5 30.5t-30.5 76.5zM379 895q0 45 30.5 77t75.5 32q35 0 63.5 -21.5t39.5 -54.5q11 33 38.5 54.5t63.5 21.5q44 0 76.5 -32.5t32.5 -76.5q0 -45 -32 -76t-77 -31q-36 0 -63.5 19.5t-38.5 52.5q-10 -32 -39 -52t-64 -20q-46 0 -76 30.5t-30 76.5z" />
<glyph unicode="&#xa4;" d="M-31 76q0 45 31 76.5t76 31.5q44 0 76 -32t32 -76q0 -45 -31.5 -76t-76.5 -31q-46 0 -76.5 30.5t-30.5 76.5zM-31 895q0 45 31 77t76 32q44 0 76 -32.5t32 -76.5q0 -45 -31.5 -76t-76.5 -31q-46 0 -76.5 30.5t-30.5 76.5zM174 281q0 35 20 63t52 39q-33 11 -52.5 38.5 t-19.5 63.5q0 35 20 64t52 39q-33 11 -52.5 38.5t-19.5 63.5q0 45 31 77t76 32q35 0 63 -21.5t39 -54.5q11 33 38.5 54.5t63.5 21.5q35 0 63.5 -21.5t39.5 -54.5q11 33 38.5 54.5t63.5 21.5q44 0 76.5 -32.5t32.5 -76.5q0 -36 -21.5 -63.5t-54.5 -38.5q33 -11 54.5 -39.5 t21.5 -63.5q0 -36 -21.5 -63.5t-54.5 -38.5q33 -11 54.5 -39t21.5 -63q0 -45 -32 -76t-77 -31q-36 0 -63.5 19.5t-38.5 52.5q-10 -32 -39 -52t-64 -20q-36 0 -63.5 19.5t-38.5 52.5q-11 -32 -39 -52t-63 -20q-46 0 -76.5 30.5t-30.5 76.5zM313 383q25 -8 43.5 -26.5 t26.5 -43.5q11 33 38.5 54.5t63.5 21.5q35 0 63.5 -21.5t39.5 -54.5q17 55 67 70q-32 11 -51.5 38t-19.5 64q0 35 19.5 64t51.5 39q-51 16 -67 67q-10 -32 -39 -51.5t-64 -19.5q-37 0 -64 19.5t-38 51.5q-15 -50 -70 -67q33 -11 54.5 -39.5t21.5 -63.5q0 -36 -21.5 -63.5 t-54.5 -38.5zM788 76q0 45 31 76.5t76 31.5q44 0 76.5 -32t32.5 -76q0 -45 -32 -76t-77 -31q-46 0 -76.5 30.5t-30.5 76.5zM788 895q0 45 31 77t76 32q44 0 76.5 -32.5t32.5 -76.5q0 -45 -32 -76t-77 -31q-46 0 -76.5 30.5t-30.5 76.5z" />
<glyph unicode="&#xa5;" d="M-31 281q0 45 31 76.5t76 31.5q35 0 63 -21.5t39 -54.5q11 33 39 54.5t64 21.5q35 0 63 -21.5t39 -54.5q16 54 68 70q-33 11 -52.5 38.5t-19.5 63.5q0 45 30.5 77t75.5 32q44 0 76.5 -32.5t32.5 -76.5q0 -36 -21.5 -63.5t-54.5 -38.5q25 -8 43.5 -26.5t26.5 -43.5 q11 33 38.5 54.5t63.5 21.5q35 0 63.5 -21.5t39.5 -54.5q11 33 38.5 54.5t63.5 21.5q44 0 76.5 -32t32.5 -76q0 -45 -32 -76t-77 -31q-36 0 -63.5 19.5t-38.5 52.5q-10 -32 -39 -52t-64 -20q-36 0 -63.5 19.5t-38.5 52.5q-16 -52 -70 -68q33 -11 54.5 -39t21.5 -63 q0 -45 -32 -76t-77 -31q-46 0 -76 30.5t-30 76.5q0 35 20 63t52 39q-52 16 -68 68q-11 -32 -39 -52t-63 -20q-36 0 -64 20t-39 52q-11 -32 -39 -52t-63 -20q-46 0 -76.5 30.5t-30.5 76.5zM-31 895q0 45 31 77t76 32q44 0 76 -32.5t32 -76.5q0 -45 -31.5 -76t-76.5 -31 q-46 0 -76.5 30.5t-30.5 76.5zM174 690q0 45 31 77t76 32q44 0 76 -32.5t32 -76.5q0 -45 -31.5 -75.5t-76.5 -30.5q-46 0 -76.5 30t-30.5 76zM584 690q0 45 30.5 77t75.5 32q44 0 76.5 -32.5t32.5 -76.5q0 -45 -32 -75.5t-77 -30.5q-46 0 -76 30t-30 76zM788 895q0 45 31 77 t76 32q44 0 76.5 -32.5t32.5 -76.5q0 -45 -32 -76t-77 -31q-46 0 -76.5 30.5t-30.5 76.5z" />
<glyph unicode="&#xa6;" d="M379 76q0 35 20 63t52 39q-32 11 -52 39t-20 64q0 45 30.5 76.5t75.5 31.5q44 0 76.5 -32t32.5 -76q0 -36 -21.5 -64t-54.5 -39q33 -11 54.5 -39t21.5 -63q0 -45 -32 -76t-77 -31q-46 0 -76 30.5t-30 76.5zM379 690q0 35 20 64t52 39q-33 11 -52.5 38.5t-19.5 63.5 q0 45 30.5 77t75.5 32q44 0 76.5 -32.5t32.5 -76.5q0 -36 -21.5 -63.5t-54.5 -38.5q33 -11 54.5 -39.5t21.5 -63.5q0 -45 -32 -75.5t-77 -30.5q-46 0 -76 30t-30 76z" />
<glyph unicode="&#xa7;" d="M174 76q0 45 31 76.5t76 31.5q35 0 63 -21t39 -54q11 33 38.5 54t63.5 21q35 0 63.5 -21t39.5 -54q11 33 38.5 54t63.5 21q44 0 76.5 -32t32.5 -76q0 -45 -32 -76t-77 -31q-36 0 -63.5 19.5t-38.5 52.5q-10 -32 -39 -52t-64 -20q-36 0 -63.5 19.5t-38.5 52.5 q-11 -32 -39 -52t-63 -20q-46 0 -76.5 30.5t-30.5 76.5zM174 690q0 45 31 77t76 32q44 0 76 -32.5t32 -76.5q0 -45 -31.5 -75.5t-76.5 -30.5q-46 0 -76.5 30t-30.5 76zM174 1100q0 45 31 76.5t76 31.5q44 0 76 -32t32 -76q0 -45 -31.5 -76t-76.5 -31q-46 0 -76.5 30.5 t-30.5 76.5zM379 485q0 45 30.5 77t75.5 32q35 0 63.5 -21.5t39.5 -54.5q11 33 38.5 54.5t63.5 21.5q44 0 76.5 -32.5t32.5 -76.5q0 -45 -32 -75.5t-77 -30.5q-36 0 -63.5 19.5t-38.5 52.5q-10 -32 -39 -52t-64 -20q-46 0 -76 30t-30 76zM379 895q0 45 30.5 77t75.5 32 q35 0 63.5 -21.5t39.5 -54.5q11 33 38.5 54.5t63.5 21.5q44 0 76.5 -32.5t32.5 -76.5q0 -45 -32 -76t-77 -31q-36 0 -63.5 19.5t-38.5 52.5q-10 -32 -39 -52t-64 -20q-46 0 -76 30.5t-30 76.5zM379 1305q0 45 30.5 76.5t75.5 31.5q35 0 63.5 -21.5t39.5 -54.5 q11 33 38.5 54.5t63.5 21.5q35 0 63.5 -21.5t39.5 -54.5q11 33 38.5 54.5t63.5 21.5q44 0 76.5 -32t32.5 -76q0 -45 -32 -76t-77 -31q-36 0 -63.5 19.5t-38.5 52.5q-10 -32 -39 -52t-64 -20q-36 0 -63.5 19.5t-38.5 52.5q-10 -32 -39 -52t-64 -20q-46 0 -76 30.5t-30 76.5z M788 281q0 45 31 76.5t76 31.5q44 0 76.5 -32t32.5 -76q0 -45 -32 -76t-77 -31q-46 0 -76.5 30.5t-30.5 76.5zM788 690q0 45 31 77t76 32q44 0 76.5 -32.5t32.5 -76.5q0 -45 -32 -75.5t-77 -30.5q-46 0 -76.5 30t-30.5 76z" />
<glyph unicode="&#xa8;" d="M-31 1305q0 35 20 63t52 39q-33 11 -52.5 38.5t-19.5 63.5q0 45 31 77t76 32q44 0 76 -32.5t32 -76.5q0 -36 -21 -63.5t-54 -38.5q33 -11 54 -39t21 -63q0 -45 -31.5 -76t-76.5 -31q-46 0 -76.5 30.5t-30.5 76.5zM788 1305q0 35 20 63t52 39q-33 11 -52.5 38.5 t-19.5 63.5q0 45 31 77t76 32q44 0 76.5 -32.5t32.5 -76.5q0 -36 -21.5 -63.5t-54.5 -38.5q33 -11 54.5 -39t21.5 -63q0 -45 -32 -76t-77 -31q-46 0 -76.5 30.5t-30.5 76.5z" />
<glyph unicode="&#xa9;" d="M-31 281q0 35 20 63t52 39q-33 11 -52.5 38.5t-19.5 63.5q0 35 20 64t52 39q-33 11 -52.5 38.5t-19.5 63.5q0 45 31 77t76 32q44 0 76 -32.5t32 -76.5q0 -36 -21 -63.5t-54 -38.5q25 -7 43 -26t26 -44q11 33 39 54.5t64 21.5q44 0 76 -32.5t32 -76.5q0 -45 -31.5 -75.5 t-76.5 -30.5q-36 0 -64 20t-39 52q-16 -52 -69 -68q33 -11 54 -39t21 -63q0 -45 -31.5 -76t-76.5 -31q-46 0 -76.5 30.5t-30.5 76.5zM174 76q0 45 31 76.5t76 31.5q35 0 63 -21t39 -54q16 53 68 69q-32 11 -52 39t-20 64q0 45 30.5 76.5t75.5 31.5q44 0 76.5 -32t32.5 -76 q0 -36 -21.5 -64t-54.5 -39q25 -8 44 -26t26 -43q11 33 38.5 54t63.5 21q44 0 76.5 -32t32.5 -76q0 -45 -32 -76t-77 -31q-36 0 -63.5 19.5t-38.5 52.5q-10 -32 -39 -52t-64 -20q-36 0 -63.5 19.5t-38.5 52.5q-11 -32 -39 -52t-63 -20q-46 0 -76.5 30.5t-30.5 76.5zM174 895 q0 45 31 77t76 32q35 0 63 -21.5t39 -54.5q11 33 38.5 54.5t63.5 21.5q35 0 63.5 -21.5t39.5 -54.5q11 33 38.5 54.5t63.5 21.5q44 0 76.5 -32.5t32.5 -76.5q0 -45 -32 -76t-77 -31q-36 0 -63.5 19.5t-38.5 52.5q-15 -50 -70 -67q33 -11 54.5 -39.5t21.5 -63.5 q0 -45 -32 -75.5t-77 -30.5q-46 0 -76 30t-30 76q0 35 20 64t52 39q-53 16 -68 67q-11 -32 -39 -52t-63 -20q-46 0 -76.5 30.5t-30.5 76.5zM788 281q0 35 20 63t52 39q-33 11 -52.5 38.5t-19.5 63.5q0 35 20 64t52 39q-33 11 -52.5 38.5t-19.5 63.5q0 45 31 77t76 32 q44 0 76.5 -32.5t32.5 -76.5q0 -36 -21.5 -63.5t-54.5 -38.5q33 -11 54.5 -39.5t21.5 -63.5q0 -36 -21.5 -63.5t-54.5 -38.5q33 -11 54.5 -39t21.5 -63q0 -45 -32 -76t-77 -31q-46 0 -76.5 30.5t-30.5 76.5z" />
<glyph unicode="&#xaa;" d="M-31 690q0 45 31 77t76 32q35 0 63 -21.5t39 -54.5q11 33 39 54.5t64 21.5q35 0 63 -21.5t39 -54.5q16 54 68 70q-33 11 -52.5 38.5t-19.5 63.5q0 45 30.5 77t75.5 32q44 0 76.5 -32.5t32.5 -76.5q0 -36 -21.5 -63.5t-54.5 -38.5q33 -11 54.5 -39.5t21.5 -63.5 q0 -36 -21.5 -63.5t-54.5 -38.5q33 -11 54.5 -39.5t21.5 -63.5q0 -45 -32 -75.5t-77 -30.5q-36 0 -63.5 19.5t-38.5 52.5q-11 -32 -39 -52t-63 -20q-46 0 -76.5 30t-30.5 76q0 35 20 64t52 39q-53 16 -68 67q-10 -32 -38.5 -51.5t-63.5 -19.5q-46 0 -76.5 30t-30.5 76z M174 1100q0 45 31 76.5t76 31.5q44 0 76 -32t32 -76q0 -45 -31.5 -76t-76.5 -31q-46 0 -76.5 30.5t-30.5 76.5zM313 588q25 -8 43.5 -26.5t26.5 -43.5q16 54 68 70q-53 16 -68 67q-15 -50 -70 -67z" />
<glyph unicode="&#xab;" d="M-31 485q0 45 31 77t76 32q44 0 76 -32.5t32 -76.5q0 -45 -31.5 -75.5t-76.5 -30.5q-46 0 -76.5 30t-30.5 76zM174 281q0 45 31 76.5t76 31.5q44 0 76 -32t32 -76q0 -45 -31.5 -76t-76.5 -31q-46 0 -76.5 30.5t-30.5 76.5zM174 690q0 45 31 77t76 32q44 0 76 -32.5 t32 -76.5q0 -45 -31.5 -75.5t-76.5 -30.5q-46 0 -76.5 30t-30.5 76zM379 76q0 45 30.5 76.5t75.5 31.5q44 0 76.5 -32t32.5 -76q0 -45 -32 -76t-77 -31q-46 0 -76 30.5t-30 76.5zM379 485q0 45 30.5 77t75.5 32q44 0 76.5 -32.5t32.5 -76.5q0 -45 -32 -75.5t-77 -30.5 q-46 0 -76 30t-30 76zM379 895q0 45 30.5 77t75.5 32q44 0 76.5 -32.5t32.5 -76.5q0 -45 -32 -76t-77 -31q-46 0 -76 30.5t-30 76.5zM584 281q0 45 30.5 76.5t75.5 31.5q44 0 76.5 -32t32.5 -76q0 -45 -32 -76t-77 -31q-46 0 -76 30.5t-30 76.5zM584 690q0 45 30.5 77 t75.5 32q44 0 76.5 -32.5t32.5 -76.5q0 -45 -32 -75.5t-77 -30.5q-46 0 -76 30t-30 76zM788 76q0 45 31 76.5t76 31.5q44 0 76.5 -32t32.5 -76q0 -45 -32 -76t-77 -31q-46 0 -76.5 30.5t-30.5 76.5zM788 895q0 45 31 77t76 32q44 0 76.5 -32.5t32.5 -76.5q0 -45 -32 -76 t-77 -31q-46 0 -76.5 30.5t-30.5 76.5z" />
<glyph unicode="&#xac;" d="M-31 485q0 45 31 77t76 32q35 0 63 -21.5t39 -54.5q11 33 39 54.5t64 21.5q35 0 63 -21.5t39 -54.5q11 33 38.5 54.5t63.5 21.5q35 0 63.5 -21.5t39.5 -54.5q11 33 38.5 54.5t63.5 21.5q35 0 63.5 -21.5t39.5 -54.5q11 33 38.5 54.5t63.5 21.5q44 0 76.5 -32.5 t32.5 -76.5q0 -36 -21.5 -63.5t-54.5 -38.5q33 -11 54.5 -39t21.5 -63q0 -36 -21.5 -64t-54.5 -39q33 -11 54.5 -39t21.5 -63q0 -45 -32 -76t-77 -31q-46 0 -76.5 30.5t-30.5 76.5q0 35 20 63t52 39q-32 11 -52 39t-20 64q0 35 20 63t52 39q-51 15 -67 68q-10 -32 -39 -52 t-64 -20q-36 0 -63.5 19.5t-38.5 52.5q-10 -32 -39 -52t-64 -20q-36 0 -63.5 19.5t-38.5 52.5q-11 -32 -39 -52t-63 -20q-36 0 -64 20t-39 52q-11 -32 -39 -52t-63 -20q-46 0 -76.5 30t-30.5 76z" />
<glyph unicode="&#xad;" d="M174 485q0 45 31 77t76 32q35 0 63 -21.5t39 -54.5q11 33 38.5 54.5t63.5 21.5q35 0 63.5 -21.5t39.5 -54.5q11 33 38.5 54.5t63.5 21.5q44 0 76.5 -32.5t32.5 -76.5q0 -45 -32 -75.5t-77 -30.5q-36 0 -63.5 19.5t-38.5 52.5q-10 -32 -39 -52t-64 -20q-36 0 -63.5 19.5 t-38.5 52.5q-11 -32 -39 -52t-63 -20q-46 0 -76.5 30t-30.5 76z" />
<glyph unicode="&#xae;" d="M-31 485q0 35 20 64t52 39q-33 11 -52.5 38.5t-19.5 63.5q0 35 20 64t52 39q-33 11 -52.5 38.5t-19.5 63.5q0 45 31 77t76 32q44 0 76 -32.5t32 -76.5q0 -36 -21 -63.5t-54 -38.5q33 -11 54 -39.5t21 -63.5q0 -36 -21 -63.5t-54 -38.5q33 -11 54 -39.5t21 -63.5 q0 -45 -31.5 -75.5t-76.5 -30.5q-46 0 -76.5 30t-30.5 76zM174 281q0 45 31 76.5t76 31.5q35 0 63 -21.5t39 -54.5q11 33 38.5 54.5t63.5 21.5q35 0 63.5 -21.5t39.5 -54.5q17 55 67 70q-32 11 -51.5 38t-19.5 64q0 45 30.5 77t75.5 32q35 0 63.5 -21.5t39.5 -54.5 q17 55 67 70q-33 11 -52.5 38.5t-19.5 63.5q0 35 20 64t52 39q-51 16 -67 67q-10 -32 -39 -52t-64 -20q-36 0 -63.5 19.5t-38.5 52.5q-15 -50 -70 -67q33 -11 54.5 -39.5t21.5 -63.5q0 -45 -32 -75.5t-77 -30.5q-46 0 -76 30t-30 76q0 35 20 64t52 39q-33 11 -52.5 38.5 t-19.5 63.5q0 35 20 63t52 39q-52 16 -68 68q-11 -32 -39 -52t-63 -20q-46 0 -76.5 30.5t-30.5 76.5q0 45 31 76.5t76 31.5q35 0 63 -21t39 -54q11 33 38.5 54t63.5 21q35 0 63.5 -21t39.5 -54q11 33 38.5 54t63.5 21q44 0 76.5 -32t32.5 -76q0 -36 -21.5 -64t-54.5 -39 q25 -8 44 -26t26 -43q11 33 38.5 54.5t63.5 21.5q44 0 76.5 -32.5t32.5 -76.5q0 -36 -21.5 -63.5t-54.5 -38.5q33 -11 54.5 -39.5t21.5 -63.5q0 -36 -21.5 -63.5t-54.5 -38.5q33 -11 54.5 -39.5t21.5 -63.5q0 -45 -32 -75.5t-77 -30.5q-36 0 -63.5 19.5t-38.5 52.5 q-16 -52 -70 -68q33 -11 54.5 -39t21.5 -63q0 -45 -32 -76t-77 -31q-36 0 -63.5 19.5t-38.5 52.5q-10 -32 -39 -52t-64 -20q-36 0 -63.5 19.5t-38.5 52.5q-11 -32 -39 -52t-63 -20q-46 0 -76.5 30.5t-30.5 76.5zM518 997q25 -8 44 -26t26 -43q16 54 67 69q-51 15 -67 68 q-16 -52 -70 -68z" />
<glyph unicode="&#xaf;" d="M174 1305q0 45 31 76.5t76 31.5q35 0 63 -21.5t39 -54.5q11 33 38.5 54.5t63.5 21.5q35 0 63.5 -21.5t39.5 -54.5q11 33 38.5 54.5t63.5 21.5q44 0 76.5 -32t32.5 -76q0 -45 -32 -76t-77 -31q-36 0 -63.5 19.5t-38.5 52.5q-10 -32 -39 -52t-64 -20q-36 0 -63.5 19.5 t-38.5 52.5q-11 -32 -39 -52t-63 -20q-46 0 -76.5 30.5t-30.5 76.5z" />
<glyph unicode="&#xb0;" d="M-31 895q0 45 31 77t76 32q44 0 76 -32.5t32 -76.5q0 -45 -31.5 -76t-76.5 -31q-46 0 -76.5 30.5t-30.5 76.5zM174 690q0 45 31 77t76 32q44 0 76 -32.5t32 -76.5q0 -45 -31.5 -75.5t-76.5 -30.5q-46 0 -76.5 30t-30.5 76zM174 1100q0 45 31 76.5t76 31.5q44 0 76 -32 t32 -76q0 -45 -31.5 -76t-76.5 -31q-46 0 -76.5 30.5t-30.5 76.5zM379 895q0 45 30.5 77t75.5 32q44 0 76.5 -32.5t32.5 -76.5q0 -45 -32 -76t-77 -31q-46 0 -76 30.5t-30 76.5z" />
<glyph unicode="&#xb1;" d="M-31 76q0 45 31 76.5t76 31.5q35 0 63 -21t39 -54q11 33 39 54t64 21q35 0 63 -21t39 -54q11 33 38.5 54t63.5 21q35 0 63.5 -21t39.5 -54q11 33 38.5 54t63.5 21q35 0 63.5 -21t39.5 -54q11 33 38.5 54t63.5 21q44 0 76.5 -32t32.5 -76q0 -45 -32 -76t-77 -31 q-36 0 -63.5 19.5t-38.5 52.5q-10 -32 -39 -52t-64 -20q-36 0 -63.5 19.5t-38.5 52.5q-10 -32 -39 -52t-64 -20q-36 0 -63.5 19.5t-38.5 52.5q-11 -32 -39 -52t-63 -20q-36 0 -64 20t-39 52q-11 -32 -39 -52t-63 -20q-46 0 -76.5 30.5t-30.5 76.5zM-31 690q0 45 31 77t76 32 q35 0 63 -21.5t39 -54.5q11 33 39 54.5t64 21.5q35 0 63 -21.5t39 -54.5q16 54 68 70q-33 11 -52.5 38.5t-19.5 63.5q0 45 30.5 77t75.5 32q44 0 76.5 -32.5t32.5 -76.5q0 -36 -21.5 -63.5t-54.5 -38.5q25 -8 43.5 -26.5t26.5 -43.5q11 33 38.5 54.5t63.5 21.5 q35 0 63.5 -21.5t39.5 -54.5q11 33 38.5 54.5t63.5 21.5q44 0 76.5 -32.5t32.5 -76.5q0 -45 -32 -75.5t-77 -30.5q-37 0 -64 19.5t-38 51.5q-10 -32 -39 -51.5t-64 -19.5q-37 0 -64 19.5t-38 51.5q-15 -50 -70 -67q33 -11 54.5 -39.5t21.5 -63.5q0 -45 -32 -75.5t-77 -30.5 q-46 0 -76 30t-30 76q0 35 20 64t52 39q-53 16 -68 67q-10 -32 -38.5 -51.5t-63.5 -19.5q-37 0 -64.5 19.5t-38.5 51.5q-10 -32 -38.5 -51.5t-63.5 -19.5q-46 0 -76.5 30t-30.5 76z" />
<glyph unicode="&#xb2;" d="M-31 485q0 35 20 64t52 39q-33 11 -52.5 38.5t-19.5 63.5q0 45 31 77t76 32q44 0 76 -32.5t32 -76.5q0 -36 -21 -63.5t-54 -38.5q25 -7 43 -26t26 -44q11 33 39 54.5t64 21.5q44 0 76 -32.5t32 -76.5q0 -45 -31.5 -75.5t-76.5 -30.5q-36 0 -64 20t-39 52q-11 -32 -39 -52 t-63 -20q-46 0 -76.5 30t-30.5 76zM-31 1100q0 45 31 76.5t76 31.5q44 0 76 -32t32 -76q0 -45 -31.5 -76t-76.5 -31q-46 0 -76.5 30.5t-30.5 76.5zM174 895q0 45 31 77t76 32q44 0 76 -32.5t32 -76.5q0 -45 -31.5 -76t-76.5 -31q-46 0 -76.5 30.5t-30.5 76.5z" />
<glyph unicode="&#xb3;" d="M-31 485q0 45 31 77t76 32q35 0 63 -21.5t39 -54.5q16 54 68 70q-33 11 -52.5 38.5t-19.5 63.5q0 35 20 64t52 39q-33 11 -52.5 38.5t-19.5 63.5q0 45 31 77t76 32q44 0 76 -32.5t32 -76.5q0 -36 -21.5 -63.5t-54.5 -38.5q33 -11 54.5 -39.5t21.5 -63.5 q0 -36 -21.5 -63.5t-54.5 -38.5q33 -11 54.5 -39.5t21.5 -63.5q0 -45 -31.5 -75.5t-76.5 -30.5q-36 0 -64 20t-39 52q-11 -32 -39 -52t-63 -20q-46 0 -76.5 30t-30.5 76zM-31 1100q0 45 31 76.5t76 31.5q44 0 76 -32t32 -76q0 -45 -31.5 -76t-76.5 -31q-46 0 -76.5 30.5 t-30.5 76.5z" />
<glyph unicode="&#xb4;" d="M174 1305q0 45 31 76.5t76 31.5q35 0 63 -21.5t39 -54.5q11 33 38.5 54.5t63.5 21.5q44 0 76.5 -32t32.5 -76q0 -45 -32 -76t-77 -31q-36 0 -63.5 19.5t-38.5 52.5q-11 -32 -39 -52t-63 -20q-46 0 -76.5 30.5t-30.5 76.5zM584 1509q0 45 30.5 77t75.5 32q44 0 76.5 -32.5 t32.5 -76.5q0 -45 -32 -75.5t-77 -30.5q-46 0 -76 30t-30 76z" />
<glyph unicode="&#xb5;" d="M-31 76q0 35 20 63t52 39q-32 11 -52 39t-20 64q0 35 20 63t52 39q-33 11 -52.5 38.5t-19.5 63.5q0 35 20 64t52 39q-33 11 -52.5 38.5t-19.5 63.5q0 35 20 64t52 39q-33 11 -52.5 38.5t-19.5 63.5q0 45 31 77t76 32q44 0 76 -32.5t32 -76.5q0 -36 -21 -63.5t-54 -38.5 q25 -7 43 -26t26 -44q11 33 39 54.5t64 21.5q44 0 76 -32.5t32 -76.5q0 -45 -31.5 -75.5t-76.5 -30.5q-37 0 -64.5 19.5t-38.5 51.5q-15 -51 -69 -67q33 -11 54 -39.5t21 -63.5q0 -36 -21 -63.5t-54 -38.5q33 -11 54 -39t21 -63q0 -36 -21 -64t-54 -39q33 -11 54 -39t21 -63 q0 -45 -31.5 -76t-76.5 -31q-46 0 -76.5 30.5t-30.5 76.5zM379 281q0 35 20 63t52 39q-33 11 -52.5 38.5t-19.5 63.5q0 45 30.5 77t75.5 32q44 0 76.5 -32.5t32.5 -76.5q0 -36 -21.5 -63.5t-54.5 -38.5q33 -11 54.5 -39t21.5 -63q0 -45 -32 -76t-77 -31q-46 0 -76 30.5 t-30 76.5zM584 690q0 45 30.5 77t75.5 32q35 0 63.5 -21.5t39.5 -54.5q17 55 67 70q-33 11 -52.5 38.5t-19.5 63.5q0 45 31 77t76 32q44 0 76.5 -32.5t32.5 -76.5q0 -36 -21.5 -63.5t-54.5 -38.5q33 -11 54.5 -39.5t21.5 -63.5q0 -36 -21.5 -63.5t-54.5 -38.5 q33 -11 54.5 -39.5t21.5 -63.5q0 -36 -21.5 -63.5t-54.5 -38.5q33 -11 54.5 -39t21.5 -63q0 -36 -21.5 -64t-54.5 -39q33 -11 54.5 -39t21.5 -63q0 -45 -32 -76t-77 -31q-46 0 -76.5 30.5t-30.5 76.5q0 35 20 63t52 39q-32 11 -52 39t-20 64q0 35 20 63t52 39 q-33 11 -52.5 38.5t-19.5 63.5q0 35 20 64t52 39q-51 16 -67 67q-10 -32 -39 -51.5t-64 -19.5q-46 0 -76 30t-30 76z" />
<glyph unicode="&#xb6;" d="M-31 690q0 45 31 77t76 32q35 0 63 -21.5t39 -54.5q16 54 68 70q-33 11 -52.5 38.5t-19.5 63.5q0 45 31 77t76 32q35 0 63 -21.5t39 -54.5q11 33 38.5 54.5t63.5 21.5q44 0 76.5 -32.5t32.5 -76.5q0 -36 -21.5 -63.5t-54.5 -38.5q33 -11 54.5 -39.5t21.5 -63.5 q0 -36 -21.5 -63.5t-54.5 -38.5q33 -11 54.5 -39.5t21.5 -63.5q0 -36 -21.5 -63.5t-54.5 -38.5q33 -11 54.5 -39t21.5 -63q0 -36 -21.5 -64t-54.5 -39q33 -11 54.5 -39t21.5 -63q0 -45 -32 -76t-77 -31q-46 0 -76 30.5t-30 76.5q0 35 20 63t52 39q-32 11 -52 39t-20 64 q0 35 20 63t52 39q-52 16 -68 68q-11 -32 -39 -52t-63 -20q-46 0 -76.5 30t-30.5 76q0 35 20 64t52 39q-53 16 -68 67q-10 -32 -38.5 -51.5t-63.5 -19.5q-46 0 -76.5 30t-30.5 76zM313 588q25 -8 43.5 -26.5t26.5 -43.5q16 54 68 70q-53 16 -68 67q-15 -50 -70 -67zM313 793 q25 -8 43.5 -26.5t26.5 -43.5q16 54 68 70q-53 16 -68 67q-15 -50 -70 -67zM788 76q0 35 20 63t52 39q-32 11 -52 39t-20 64q0 35 20 63t52 39q-33 11 -52.5 38.5t-19.5 63.5q0 35 20 64t52 39q-33 11 -52.5 38.5t-19.5 63.5q0 35 20 64t52 39q-33 11 -52.5 38.5t-19.5 63.5 q0 45 31 77t76 32q44 0 76.5 -32.5t32.5 -76.5q0 -36 -21.5 -63.5t-54.5 -38.5q33 -11 54.5 -39.5t21.5 -63.5q0 -36 -21.5 -63.5t-54.5 -38.5q33 -11 54.5 -39.5t21.5 -63.5q0 -36 -21.5 -63.5t-54.5 -38.5q33 -11 54.5 -39t21.5 -63q0 -36 -21.5 -64t-54.5 -39 q33 -11 54.5 -39t21.5 -63q0 -45 -32 -76t-77 -31q-46 0 -76.5 30.5t-30.5 76.5z" />
<glyph unicode="&#xb7;" d="M174 485q0 35 20 64t52 39q-33 11 -52.5 38.5t-19.5 63.5q0 45 31 77t76 32q44 0 76 -32.5t32 -76.5q0 -36 -21.5 -63.5t-54.5 -38.5q33 -11 54.5 -39.5t21.5 -63.5q0 -45 -31.5 -75.5t-76.5 -30.5q-46 0 -76.5 30t-30.5 76z" />
<glyph unicode="&#xb8;" d="M174 -334q0 45 31 77t76 32q44 0 76 -32.5t32 -76.5q0 -45 -31.5 -75.5t-76.5 -30.5q-46 0 -76.5 30t-30.5 76zM379 -129q0 45 30.5 77t75.5 32q44 0 76.5 -32.5t32.5 -76.5q0 -45 -32 -76t-77 -31q-46 0 -76 30.5t-30 76.5z" />
<glyph unicode="&#xb9;" d="M-31 485q0 45 31 77t76 32q35 0 63 -21.5t39 -54.5q16 54 68 70q-33 11 -52.5 38.5t-19.5 63.5q0 35 20 64t52 39q-33 11 -52.5 38.5t-19.5 63.5q0 35 20 63t52 39q-52 16 -68 68q-11 -32 -39 -52t-63 -20q-46 0 -76.5 30.5t-30.5 76.5q0 45 31 76.5t76 31.5q35 0 63 -21 t39 -54q11 33 39 54t64 21q44 0 76 -32t32 -76q0 -36 -21.5 -64t-54.5 -39q33 -11 54.5 -39t21.5 -63q0 -36 -21.5 -63.5t-54.5 -38.5q33 -11 54.5 -39.5t21.5 -63.5q0 -36 -21.5 -63.5t-54.5 -38.5q25 -8 43.5 -26.5t26.5 -43.5q11 33 38.5 54.5t63.5 21.5q44 0 76.5 -32.5 t32.5 -76.5q0 -45 -32 -75.5t-77 -30.5q-36 0 -63.5 19.5t-38.5 52.5q-11 -32 -39 -52t-63 -20q-36 0 -64 20t-39 52q-11 -32 -39 -52t-63 -20q-46 0 -76.5 30t-30.5 76z" />
<glyph unicode="&#xba;" d="M-31 895q0 45 31 77t76 32q44 0 76 -32.5t32 -76.5q0 -45 -31.5 -76t-76.5 -31q-46 0 -76.5 30.5t-30.5 76.5zM174 690q0 45 31 77t76 32q44 0 76 -32.5t32 -76.5q0 -45 -31.5 -75.5t-76.5 -30.5q-46 0 -76.5 30t-30.5 76zM174 1100q0 45 31 76.5t76 31.5q44 0 76 -32 t32 -76q0 -45 -31.5 -76t-76.5 -31q-46 0 -76.5 30.5t-30.5 76.5zM379 895q0 45 30.5 77t75.5 32q44 0 76.5 -32.5t32.5 -76.5q0 -45 -32 -76t-77 -31q-46 0 -76 30.5t-30 76.5z" />
<glyph unicode="&#xbb;" d="M-31 76q0 45 31 76.5t76 31.5q44 0 76 -32t32 -76q0 -45 -31.5 -76t-76.5 -31q-46 0 -76.5 30.5t-30.5 76.5zM-31 895q0 45 31 77t76 32q44 0 76 -32.5t32 -76.5q0 -45 -31.5 -76t-76.5 -31q-46 0 -76.5 30.5t-30.5 76.5zM174 281q0 45 31 76.5t76 31.5q44 0 76 -32 t32 -76q0 -45 -31.5 -76t-76.5 -31q-46 0 -76.5 30.5t-30.5 76.5zM174 690q0 45 31 77t76 32q44 0 76 -32.5t32 -76.5q0 -45 -31.5 -75.5t-76.5 -30.5q-46 0 -76.5 30t-30.5 76zM379 76q0 45 30.5 76.5t75.5 31.5q44 0 76.5 -32t32.5 -76q0 -45 -32 -76t-77 -31 q-46 0 -76 30.5t-30 76.5zM379 485q0 45 30.5 77t75.5 32q44 0 76.5 -32.5t32.5 -76.5q0 -45 -32 -75.5t-77 -30.5q-46 0 -76 30t-30 76zM379 895q0 45 30.5 77t75.5 32q44 0 76.5 -32.5t32.5 -76.5q0 -45 -32 -76t-77 -31q-46 0 -76 30.5t-30 76.5zM584 281q0 45 30.5 76.5 t75.5 31.5q44 0 76.5 -32t32.5 -76q0 -45 -32 -76t-77 -31q-46 0 -76 30.5t-30 76.5zM584 690q0 45 30.5 77t75.5 32q44 0 76.5 -32.5t32.5 -76.5q0 -45 -32 -75.5t-77 -30.5q-46 0 -76 30t-30 76zM788 485q0 45 31 77t76 32q44 0 76.5 -32.5t32.5 -76.5q0 -45 -32 -75.5 t-77 -30.5q-46 0 -76.5 30t-30.5 76z" />
<glyph unicode="&#xbc;" d="M-31 895q0 45 31 77t76 32q35 0 63 -21.5t39 -54.5q11 33 39 54.5t64 21.5q44 0 76 -32.5t32 -76.5q0 -36 -21.5 -63.5t-54.5 -38.5q33 -11 54.5 -39.5t21.5 -63.5q0 -36 -21.5 -63.5t-54.5 -38.5q25 -8 43.5 -26.5t26.5 -43.5q11 33 38.5 54.5t63.5 21.5 q44 0 76.5 -32.5t32.5 -76.5q0 -36 -21.5 -63.5t-54.5 -38.5q33 -11 54.5 -39t21.5 -63q0 -45 -32 -76t-77 -31q-46 0 -76 30.5t-30 76.5q0 35 20 63t52 39q-52 16 -68 68q-11 -32 -39 -52t-63 -20q-46 0 -76.5 30t-30.5 76q0 35 20 64t52 39q-33 11 -52.5 38.5t-19.5 63.5 q0 35 20 64t52 39q-53 16 -68 67q-11 -32 -39 -52t-63 -20q-46 0 -76.5 30.5t-30.5 76.5zM174 76q0 45 31 76.5t76 31.5q44 0 76 -32t32 -76q0 -45 -31.5 -76t-76.5 -31q-46 0 -76.5 30.5t-30.5 76.5zM584 690q0 35 19.5 64t51.5 39q-32 11 -51.5 38t-19.5 64q0 45 30.5 77 t75.5 32q44 0 76.5 -32.5t32.5 -76.5q0 -36 -21.5 -63.5t-54.5 -38.5q33 -11 54.5 -39.5t21.5 -63.5q0 -45 -32 -75.5t-77 -30.5q-46 0 -76 30t-30 76zM788 485q0 45 31 77t76 32q35 0 63 -21.5t39 -54.5q16 54 68 70q-33 11 -52.5 38.5t-19.5 63.5q0 45 31 77t76 32 q44 0 76 -32.5t32 -76.5q0 -36 -21 -63.5t-54 -38.5q33 -11 54 -39.5t21 -63.5q0 -36 -21 -63.5t-54 -38.5q33 -11 54 -39t21 -63q0 -36 -21 -64t-54 -39q33 -11 54 -39t21 -63q0 -45 -31.5 -76t-76.5 -31q-46 0 -76.5 30.5t-30.5 76.5q0 35 20 63t52 39q-32 11 -52 39 t-20 64q0 35 20 63t52 39q-52 16 -68 68q-11 -32 -39 -52t-63 -20q-46 0 -76.5 30t-30.5 76z" />
<glyph unicode="&#xbd;" d="M-31 895q0 45 31 77t76 32q35 0 63 -21.5t39 -54.5q11 33 39 54.5t64 21.5q44 0 76 -32.5t32 -76.5q0 -36 -21.5 -63.5t-54.5 -38.5q33 -11 54.5 -39.5t21.5 -63.5q0 -36 -21.5 -63.5t-54.5 -38.5q25 -8 43.5 -26.5t26.5 -43.5q11 33 38.5 54.5t63.5 21.5 q44 0 76.5 -32.5t32.5 -76.5q0 -36 -21.5 -63.5t-54.5 -38.5q33 -11 54.5 -39t21.5 -63q0 -45 -32 -76t-77 -31q-46 0 -76 30.5t-30 76.5q0 35 20 63t52 39q-52 16 -68 68q-11 -32 -39 -52t-63 -20q-46 0 -76.5 30t-30.5 76q0 35 20 64t52 39q-33 11 -52.5 38.5t-19.5 63.5 q0 35 20 64t52 39q-53 16 -68 67q-11 -32 -39 -52t-63 -20q-46 0 -76.5 30.5t-30.5 76.5zM174 76q0 45 31 76.5t76 31.5q44 0 76 -32t32 -76q0 -45 -31.5 -76t-76.5 -31q-46 0 -76.5 30.5t-30.5 76.5zM584 690q0 35 19.5 64t51.5 39q-32 11 -51.5 38t-19.5 64q0 45 30.5 77 t75.5 32q44 0 76.5 -32.5t32.5 -76.5q0 -36 -21.5 -63.5t-54.5 -38.5q25 -8 43.5 -26.5t26.5 -43.5q11 33 38.5 54.5t63.5 21.5q44 0 76.5 -32.5t32.5 -76.5q0 -45 -32 -75.5t-77 -30.5q-37 0 -64 19.5t-38 51.5q-10 -32 -39 -51.5t-64 -19.5q-46 0 -76 30t-30 76zM788 76 q0 35 20 63t52 39q-32 11 -52 39t-20 64q0 45 31 76.5t76 31.5q44 0 76.5 -32t32.5 -76q0 -36 -21.5 -64t-54.5 -39q53 -16 69 -69q11 33 39 54t64 21q44 0 76 -32t32 -76q0 -45 -31.5 -76t-76.5 -31q-36 0 -64 20t-39 52q-11 -32 -39 -52t-63 -20q-46 0 -76.5 30.5 t-30.5 76.5zM993 485q0 45 31 77t76 32q44 0 76 -32.5t32 -76.5q0 -45 -31.5 -75.5t-76.5 -30.5q-46 0 -76.5 30t-30.5 76z" />
<glyph unicode="&#xbe;" d="M-31 281q0 45 31 76.5t76 31.5q44 0 76 -32t32 -76q0 -45 -31.5 -76t-76.5 -31q-46 0 -76.5 30.5t-30.5 76.5zM-31 895q0 45 31 77t76 32q44 0 76 -32.5t32 -76.5q0 -45 -31.5 -76t-76.5 -31q-46 0 -76.5 30.5t-30.5 76.5zM174 76q0 45 31 76.5t76 31.5q44 0 76 -32 t32 -76q0 -45 -31.5 -76t-76.5 -31q-46 0 -76.5 30.5t-30.5 76.5zM174 485q0 35 20 64t52 39q-33 11 -52.5 38.5t-19.5 63.5q0 45 31 77t76 32q44 0 76 -32.5t32 -76.5q0 -36 -21.5 -63.5t-54.5 -38.5q25 -8 43.5 -26.5t26.5 -43.5q11 33 38.5 54.5t63.5 21.5 q44 0 76.5 -32.5t32.5 -76.5q0 -36 -21.5 -63.5t-54.5 -38.5q33 -11 54.5 -39t21.5 -63q0 -45 -32 -76t-77 -31q-46 0 -76 30.5t-30 76.5q0 35 20 63t52 39q-52 16 -68 68q-11 -32 -39 -52t-63 -20q-46 0 -76.5 30t-30.5 76zM584 690q0 35 19.5 64t51.5 39q-32 11 -51.5 38 t-19.5 64q0 45 30.5 77t75.5 32q44 0 76.5 -32.5t32.5 -76.5q0 -36 -21.5 -63.5t-54.5 -38.5q33 -11 54.5 -39.5t21.5 -63.5q0 -45 -32 -75.5t-77 -30.5q-46 0 -76 30t-30 76zM788 485q0 45 31 77t76 32q35 0 63 -21.5t39 -54.5q16 54 68 70q-33 11 -52.5 38.5t-19.5 63.5 q0 45 31 77t76 32q44 0 76 -32.5t32 -76.5q0 -36 -21 -63.5t-54 -38.5q33 -11 54 -39.5t21 -63.5q0 -36 -21 -63.5t-54 -38.5q33 -11 54 -39t21 -63q0 -36 -21 -64t-54 -39q33 -11 54 -39t21 -63q0 -45 -31.5 -76t-76.5 -31q-46 0 -76.5 30.5t-30.5 76.5q0 35 20 63t52 39 q-32 11 -52 39t-20 64q0 35 20 63t52 39q-52 16 -68 68q-11 -32 -39 -52t-63 -20q-46 0 -76.5 30t-30.5 76z" />
<glyph unicode="&#xbf;" d="M-31 283q0 45 32 75.5t77 30.5q46 0 76 -30t30 -76q0 -45 -30.5 -77t-75.5 -32q-44 0 -76.5 32.5t-32.5 76.5zM174 78q0 45 32 75.5t77 30.5q37 0 64 -19.5t38 -51.5q10 32 38.5 51.5t63.5 19.5q37 0 64.5 -19.5t38.5 -51.5q10 32 38.5 51.5t63.5 19.5q46 0 76.5 -30 t30.5 -76q0 -45 -31 -77t-76 -32q-35 0 -63 21.5t-39 54.5q-11 -33 -39 -54.5t-64 -21.5q-35 0 -63 21.5t-39 54.5q-11 -33 -38.5 -54.5t-63.5 -21.5q-44 0 -76.5 32.5t-32.5 76.5zM174 487q0 45 32 76t77 31q36 0 63.5 -19.5t38.5 -52.5q11 32 39 52t63 20q46 0 76.5 -30.5 t30.5 -76.5q0 -45 -31 -76.5t-76 -31.5q-35 0 -63 21.5t-39 54.5q-11 -33 -38.5 -54.5t-63.5 -21.5q-44 0 -76.5 32t-32.5 76zM379 897q0 45 31.5 76t76.5 31q46 0 76.5 -30.5t30.5 -76.5q0 -45 -31 -77t-76 -32q-44 0 -76 32.5t-32 76.5zM788 283q0 45 32 75.5t77 30.5 q46 0 76.5 -30t30.5 -76q0 -45 -31 -77t-76 -32q-44 0 -76.5 32.5t-32.5 76.5z" />
<glyph unicode="&#xc0;" d="M-31 76q0 35 20 63t52 39q-32 11 -52 39t-20 64q0 35 20 63t52 39q-33 11 -52.5 38.5t-19.5 63.5q0 35 20 64t52 39q-33 11 -52.5 38.5t-19.5 63.5q0 45 31 77t76 32q44 0 76 -32.5t32 -76.5q0 -36 -21 -63.5t-54 -38.5q25 -7 43 -26t26 -44q11 33 39 54.5t64 21.5 q35 0 63 -21.5t39 -54.5q11 33 38.5 54.5t63.5 21.5q35 0 63.5 -21.5t39.5 -54.5q11 33 38.5 54.5t63.5 21.5q35 0 63.5 -21.5t39.5 -54.5q17 55 67 70q-33 11 -52.5 38.5t-19.5 63.5q0 45 31 77t76 32q44 0 76.5 -32.5t32.5 -76.5q0 -36 -21.5 -63.5t-54.5 -38.5 q33 -11 54.5 -39.5t21.5 -63.5q0 -36 -21.5 -63.5t-54.5 -38.5q33 -11 54.5 -39t21.5 -63q0 -36 -21.5 -64t-54.5 -39q33 -11 54.5 -39t21.5 -63q0 -45 -32 -76t-77 -31q-46 0 -76.5 30.5t-30.5 76.5q0 35 20 63t52 39q-32 11 -52 39t-20 64q0 35 20 63t52 39q-51 15 -67 68 q-10 -32 -39 -52t-64 -20q-36 0 -63.5 19.5t-38.5 52.5q-10 -32 -39 -52t-64 -20q-36 0 -63.5 19.5t-38.5 52.5q-11 -32 -39 -52t-63 -20q-36 0 -64 20t-39 52q-16 -52 -69 -68q33 -11 54 -39t21 -63q0 -36 -21 -64t-54 -39q33 -11 54 -39t21 -63q0 -45 -31.5 -76t-76.5 -31 q-46 0 -76.5 30.5t-30.5 76.5zM174 895q0 45 31 77t76 32q35 0 63 -21.5t39 -54.5q11 33 38.5 54.5t63.5 21.5q35 0 63.5 -21.5t39.5 -54.5q11 33 38.5 54.5t63.5 21.5q44 0 76.5 -32.5t32.5 -76.5q0 -45 -32 -76t-77 -31q-36 0 -63.5 19.5t-38.5 52.5q-10 -32 -39 -52 t-64 -20q-36 0 -63.5 19.5t-38.5 52.5q-11 -32 -39 -52t-63 -20q-46 0 -76.5 30.5t-30.5 76.5zM174 1509q0 45 31 77t76 32q44 0 76 -32.5t32 -76.5q0 -45 -31.5 -75.5t-76.5 -30.5q-46 0 -76.5 30t-30.5 76zM379 1305q0 45 30.5 76.5t75.5 31.5q35 0 63.5 -21.5t39.5 -54.5 q11 33 38.5 54.5t63.5 21.5q44 0 76.5 -32t32.5 -76q0 -45 -32 -76t-77 -31q-36 0 -63.5 19.5t-38.5 52.5q-10 -32 -39 -52t-64 -20q-46 0 -76 30.5t-30 76.5z" />
<glyph unicode="&#xc1;" d="M-31 76q0 35 20 63t52 39q-32 11 -52 39t-20 64q0 35 20 63t52 39q-33 11 -52.5 38.5t-19.5 63.5q0 35 20 64t52 39q-33 11 -52.5 38.5t-19.5 63.5q0 45 31 77t76 32q44 0 76 -32.5t32 -76.5q0 -36 -21 -63.5t-54 -38.5q25 -7 43 -26t26 -44q11 33 39 54.5t64 21.5 q35 0 63 -21.5t39 -54.5q11 33 38.5 54.5t63.5 21.5q35 0 63.5 -21.5t39.5 -54.5q11 33 38.5 54.5t63.5 21.5q35 0 63.5 -21.5t39.5 -54.5q17 55 67 70q-33 11 -52.5 38.5t-19.5 63.5q0 45 31 77t76 32q44 0 76.5 -32.5t32.5 -76.5q0 -36 -21.5 -63.5t-54.5 -38.5 q33 -11 54.5 -39.5t21.5 -63.5q0 -36 -21.5 -63.5t-54.5 -38.5q33 -11 54.5 -39t21.5 -63q0 -36 -21.5 -64t-54.5 -39q33 -11 54.5 -39t21.5 -63q0 -45 -32 -76t-77 -31q-46 0 -76.5 30.5t-30.5 76.5q0 35 20 63t52 39q-32 11 -52 39t-20 64q0 35 20 63t52 39q-51 15 -67 68 q-10 -32 -39 -52t-64 -20q-36 0 -63.5 19.5t-38.5 52.5q-10 -32 -39 -52t-64 -20q-36 0 -63.5 19.5t-38.5 52.5q-11 -32 -39 -52t-63 -20q-36 0 -64 20t-39 52q-16 -52 -69 -68q33 -11 54 -39t21 -63q0 -36 -21 -64t-54 -39q33 -11 54 -39t21 -63q0 -45 -31.5 -76t-76.5 -31 q-46 0 -76.5 30.5t-30.5 76.5zM174 895q0 45 31 77t76 32q35 0 63 -21.5t39 -54.5q11 33 38.5 54.5t63.5 21.5q35 0 63.5 -21.5t39.5 -54.5q11 33 38.5 54.5t63.5 21.5q44 0 76.5 -32.5t32.5 -76.5q0 -45 -32 -76t-77 -31q-36 0 -63.5 19.5t-38.5 52.5q-10 -32 -39 -52 t-64 -20q-36 0 -63.5 19.5t-38.5 52.5q-11 -32 -39 -52t-63 -20q-46 0 -76.5 30.5t-30.5 76.5zM174 1305q0 45 31 76.5t76 31.5q35 0 63 -21.5t39 -54.5q11 33 38.5 54.5t63.5 21.5q44 0 76.5 -32t32.5 -76q0 -45 -32 -76t-77 -31q-36 0 -63.5 19.5t-38.5 52.5 q-11 -32 -39 -52t-63 -20q-46 0 -76.5 30.5t-30.5 76.5zM584 1509q0 45 30.5 77t75.5 32q44 0 76.5 -32.5t32.5 -76.5q0 -45 -32 -75.5t-77 -30.5q-46 0 -76 30t-30 76z" />
<glyph unicode="&#xc2;" d="M-31 76q0 35 20 63t52 39q-32 11 -52 39t-20 64q0 35 20 63t52 39q-33 11 -52.5 38.5t-19.5 63.5q0 35 20 64t52 39q-33 11 -52.5 38.5t-19.5 63.5q0 45 31 77t76 32q44 0 76 -32.5t32 -76.5q0 -36 -21 -63.5t-54 -38.5q25 -7 43 -26t26 -44q11 33 39 54.5t64 21.5 q35 0 63 -21.5t39 -54.5q11 33 38.5 54.5t63.5 21.5q35 0 63.5 -21.5t39.5 -54.5q11 33 38.5 54.5t63.5 21.5q35 0 63.5 -21.5t39.5 -54.5q17 55 67 70q-33 11 -52.5 38.5t-19.5 63.5q0 45 31 77t76 32q44 0 76.5 -32.5t32.5 -76.5q0 -36 -21.5 -63.5t-54.5 -38.5 q33 -11 54.5 -39.5t21.5 -63.5q0 -36 -21.5 -63.5t-54.5 -38.5q33 -11 54.5 -39t21.5 -63q0 -36 -21.5 -64t-54.5 -39q33 -11 54.5 -39t21.5 -63q0 -45 -32 -76t-77 -31q-46 0 -76.5 30.5t-30.5 76.5q0 35 20 63t52 39q-32 11 -52 39t-20 64q0 35 20 63t52 39q-51 15 -67 68 q-10 -32 -39 -52t-64 -20q-36 0 -63.5 19.5t-38.5 52.5q-10 -32 -39 -52t-64 -20q-36 0 -63.5 19.5t-38.5 52.5q-11 -32 -39 -52t-63 -20q-36 0 -64 20t-39 52q-16 -52 -69 -68q33 -11 54 -39t21 -63q0 -36 -21 -64t-54 -39q33 -11 54 -39t21 -63q0 -45 -31.5 -76t-76.5 -31 q-46 0 -76.5 30.5t-30.5 76.5zM174 895q0 45 31 77t76 32q35 0 63 -21.5t39 -54.5q11 33 38.5 54.5t63.5 21.5q35 0 63.5 -21.5t39.5 -54.5q11 33 38.5 54.5t63.5 21.5q44 0 76.5 -32.5t32.5 -76.5q0 -45 -32 -76t-77 -31q-36 0 -63.5 19.5t-38.5 52.5q-10 -32 -39 -52 t-64 -20q-36 0 -63.5 19.5t-38.5 52.5q-11 -32 -39 -52t-63 -20q-46 0 -76.5 30.5t-30.5 76.5zM174 1305q0 45 31 76.5t76 31.5q44 0 76 -32t32 -76q0 -45 -31.5 -76t-76.5 -31q-46 0 -76.5 30.5t-30.5 76.5zM379 1509q0 45 30.5 77t75.5 32q44 0 76.5 -32.5t32.5 -76.5 q0 -45 -32 -75.5t-77 -30.5q-46 0 -76 30t-30 76zM584 1305q0 45 30.5 76.5t75.5 31.5q44 0 76.5 -32t32.5 -76q0 -45 -32 -76t-77 -31q-46 0 -76 30.5t-30 76.5z" />
<glyph unicode="&#xc3;" d="M-31 76q0 35 20 63t52 39q-32 11 -52 39t-20 64q0 35 20 63t52 39q-33 11 -52.5 38.5t-19.5 63.5q0 35 20 64t52 39q-33 11 -52.5 38.5t-19.5 63.5q0 45 31 77t76 32q44 0 76 -32.5t32 -76.5q0 -36 -21 -63.5t-54 -38.5q25 -7 43 -26t26 -44q11 33 39 54.5t64 21.5 q35 0 63 -21.5t39 -54.5q11 33 38.5 54.5t63.5 21.5q35 0 63.5 -21.5t39.5 -54.5q11 33 38.5 54.5t63.5 21.5q35 0 63.5 -21.5t39.5 -54.5q17 55 67 70q-33 11 -52.5 38.5t-19.5 63.5q0 45 31 77t76 32q44 0 76.5 -32.5t32.5 -76.5q0 -36 -21.5 -63.5t-54.5 -38.5 q33 -11 54.5 -39.5t21.5 -63.5q0 -36 -21.5 -63.5t-54.5 -38.5q33 -11 54.5 -39t21.5 -63q0 -36 -21.5 -64t-54.5 -39q33 -11 54.5 -39t21.5 -63q0 -45 -32 -76t-77 -31q-46 0 -76.5 30.5t-30.5 76.5q0 35 20 63t52 39q-32 11 -52 39t-20 64q0 35 20 63t52 39q-51 15 -67 68 q-10 -32 -39 -52t-64 -20q-36 0 -63.5 19.5t-38.5 52.5q-10 -32 -39 -52t-64 -20q-36 0 -63.5 19.5t-38.5 52.5q-11 -32 -39 -52t-63 -20q-36 0 -64 20t-39 52q-16 -52 -69 -68q33 -11 54 -39t21 -63q0 -36 -21 -64t-54 -39q33 -11 54 -39t21 -63q0 -45 -31.5 -76t-76.5 -31 q-46 0 -76.5 30.5t-30.5 76.5zM-31 1305q0 45 31 76.5t76 31.5q44 0 76 -32t32 -76q0 -45 -31.5 -76t-76.5 -31q-46 0 -76.5 30.5t-30.5 76.5zM174 895q0 45 31 77t76 32q35 0 63 -21.5t39 -54.5q11 33 38.5 54.5t63.5 21.5q35 0 63.5 -21.5t39.5 -54.5q11 33 38.5 54.5 t63.5 21.5q44 0 76.5 -32.5t32.5 -76.5q0 -45 -32 -76t-77 -31q-36 0 -63.5 19.5t-38.5 52.5q-10 -32 -39 -52t-64 -20q-36 0 -63.5 19.5t-38.5 52.5q-11 -32 -39 -52t-63 -20q-46 0 -76.5 30.5t-30.5 76.5zM174 1509q0 45 31 77t76 32q44 0 76 -32.5t32 -76.5 q0 -45 -31.5 -75.5t-76.5 -30.5q-46 0 -76.5 30t-30.5 76zM379 1305q0 45 30.5 76.5t75.5 31.5q35 0 63.5 -21.5t39.5 -54.5q11 33 38.5 54.5t63.5 21.5q44 0 76.5 -32t32.5 -76q0 -45 -32 -76t-77 -31q-36 0 -63.5 19.5t-38.5 52.5q-10 -32 -39 -52t-64 -20q-46 0 -76 30.5 t-30 76.5zM788 1509q0 45 31 77t76 32q44 0 76.5 -32.5t32.5 -76.5q0 -45 -32 -75.5t-77 -30.5q-46 0 -76.5 30t-30.5 76z" />
<glyph unicode="&#xc4;" d="M-31 76q0 35 20 63t52 39q-32 11 -52 39t-20 64q0 35 20 63t52 39q-33 11 -52.5 38.5t-19.5 63.5q0 35 20 64t52 39q-33 11 -52.5 38.5t-19.5 63.5q0 45 31 77t76 32q44 0 76 -32.5t32 -76.5q0 -36 -21 -63.5t-54 -38.5q25 -7 43 -26t26 -44q11 33 39 54.5t64 21.5 q35 0 63 -21.5t39 -54.5q11 33 38.5 54.5t63.5 21.5q35 0 63.5 -21.5t39.5 -54.5q11 33 38.5 54.5t63.5 21.5q35 0 63.5 -21.5t39.5 -54.5q17 55 67 70q-33 11 -52.5 38.5t-19.5 63.5q0 45 31 77t76 32q44 0 76.5 -32.5t32.5 -76.5q0 -36 -21.5 -63.5t-54.5 -38.5 q33 -11 54.5 -39.5t21.5 -63.5q0 -36 -21.5 -63.5t-54.5 -38.5q33 -11 54.5 -39t21.5 -63q0 -36 -21.5 -64t-54.5 -39q33 -11 54.5 -39t21.5 -63q0 -45 -32 -76t-77 -31q-46 0 -76.5 30.5t-30.5 76.5q0 35 20 63t52 39q-32 11 -52 39t-20 64q0 35 20 63t52 39q-51 15 -67 68 q-10 -32 -39 -52t-64 -20q-36 0 -63.5 19.5t-38.5 52.5q-10 -32 -39 -52t-64 -20q-36 0 -63.5 19.5t-38.5 52.5q-11 -32 -39 -52t-63 -20q-36 0 -64 20t-39 52q-16 -52 -69 -68q33 -11 54 -39t21 -63q0 -36 -21 -64t-54 -39q33 -11 54 -39t21 -63q0 -45 -31.5 -76t-76.5 -31 q-46 0 -76.5 30.5t-30.5 76.5zM-31 1305q0 35 20 63t52 39q-33 11 -52.5 38.5t-19.5 63.5q0 45 31 77t76 32q44 0 76 -32.5t32 -76.5q0 -36 -21 -63.5t-54 -38.5q33 -11 54 -39t21 -63q0 -45 -31.5 -76t-76.5 -31q-46 0 -76.5 30.5t-30.5 76.5zM174 895q0 45 31 77t76 32 q35 0 63 -21.5t39 -54.5q11 33 38.5 54.5t63.5 21.5q35 0 63.5 -21.5t39.5 -54.5q11 33 38.5 54.5t63.5 21.5q44 0 76.5 -32.5t32.5 -76.5q0 -45 -32 -76t-77 -31q-36 0 -63.5 19.5t-38.5 52.5q-10 -32 -39 -52t-64 -20q-36 0 -63.5 19.5t-38.5 52.5q-11 -32 -39 -52 t-63 -20q-46 0 -76.5 30.5t-30.5 76.5zM788 1305q0 35 20 63t52 39q-33 11 -52.5 38.5t-19.5 63.5q0 45 31 77t76 32q44 0 76.5 -32.5t32.5 -76.5q0 -36 -21.5 -63.5t-54.5 -38.5q33 -11 54.5 -39t21.5 -63q0 -45 -32 -76t-77 -31q-46 0 -76.5 30.5t-30.5 76.5z" />
<glyph unicode="&#xc5;" d="M-31 76q0 35 20 63t52 39q-32 11 -52 39t-20 64q0 35 20 63t52 39q-33 11 -52.5 38.5t-19.5 63.5q0 35 20 64t52 39q-33 11 -52.5 38.5t-19.5 63.5q0 45 31 77t76 32q44 0 76 -32.5t32 -76.5q0 -36 -21 -63.5t-54 -38.5q25 -7 43 -26t26 -44q11 33 39 54.5t64 21.5 q35 0 63 -21.5t39 -54.5q11 33 38.5 54.5t63.5 21.5q35 0 63.5 -21.5t39.5 -54.5q11 33 38.5 54.5t63.5 21.5q35 0 63.5 -21.5t39.5 -54.5q17 55 67 70q-33 11 -52.5 38.5t-19.5 63.5q0 45 31 77t76 32q44 0 76.5 -32.5t32.5 -76.5q0 -36 -21.5 -63.5t-54.5 -38.5 q33 -11 54.5 -39.5t21.5 -63.5q0 -36 -21.5 -63.5t-54.5 -38.5q33 -11 54.5 -39t21.5 -63q0 -36 -21.5 -64t-54.5 -39q33 -11 54.5 -39t21.5 -63q0 -45 -32 -76t-77 -31q-46 0 -76.5 30.5t-30.5 76.5q0 35 20 63t52 39q-32 11 -52 39t-20 64q0 35 20 63t52 39q-51 15 -67 68 q-10 -32 -39 -52t-64 -20q-36 0 -63.5 19.5t-38.5 52.5q-10 -32 -39 -52t-64 -20q-36 0 -63.5 19.5t-38.5 52.5q-11 -32 -39 -52t-63 -20q-36 0 -64 20t-39 52q-16 -52 -69 -68q33 -11 54 -39t21 -63q0 -36 -21 -64t-54 -39q33 -11 54 -39t21 -63q0 -45 -31.5 -76t-76.5 -31 q-46 0 -76.5 30.5t-30.5 76.5zM174 895q0 45 31 77t76 32q35 0 63 -21.5t39 -54.5q11 33 38.5 54.5t63.5 21.5q35 0 63.5 -21.5t39.5 -54.5q11 33 38.5 54.5t63.5 21.5q44 0 76.5 -32.5t32.5 -76.5q0 -45 -32 -76t-77 -31q-36 0 -63.5 19.5t-38.5 52.5q-10 -32 -39 -52 t-64 -20q-36 0 -63.5 19.5t-38.5 52.5q-11 -32 -39 -52t-63 -20q-46 0 -76.5 30.5t-30.5 76.5zM174 1509q0 45 31 77t76 32q44 0 76 -32.5t32 -76.5q0 -45 -31.5 -75.5t-76.5 -30.5q-46 0 -76.5 30t-30.5 76zM379 1305q0 45 30.5 76.5t75.5 31.5q44 0 76.5 -32t32.5 -76 q0 -45 -32 -76t-77 -31q-46 0 -76 30.5t-30 76.5zM379 1714q0 45 30.5 77t75.5 32q44 0 76.5 -32.5t32.5 -76.5q0 -45 -32 -75.5t-77 -30.5q-46 0 -76 30t-30 76zM584 1509q0 45 30.5 77t75.5 32q44 0 76.5 -32.5t32.5 -76.5q0 -45 -32 -75.5t-77 -30.5q-46 0 -76 30t-30 76 z" />
<glyph unicode="&#xc6;" d="M-31 76q0 35 20 63t52 39q-32 11 -52 39t-20 64q0 35 20 63t52 39q-33 11 -52.5 38.5t-19.5 63.5q0 35 20 64t52 39q-33 11 -52.5 38.5t-19.5 63.5q0 45 31 77t76 32q44 0 76 -32.5t32 -76.5q0 -36 -21 -63.5t-54 -38.5q33 -11 54 -39.5t21 -63.5q0 -36 -21 -63.5 t-54 -38.5q25 -7 43 -26t26 -44q11 33 39 54.5t64 21.5q35 0 63 -21.5t39 -54.5q16 54 68 70q-33 11 -52.5 38.5t-19.5 63.5q0 35 20 64t52 39q-33 11 -52.5 38.5t-19.5 63.5q0 35 20 64t52 39q-53 16 -68 67q-11 -32 -39 -52t-63 -20q-46 0 -76.5 30.5t-30.5 76.5 q0 45 31 77t76 32q35 0 63 -21.5t39 -54.5q11 33 38.5 54.5t63.5 21.5q35 0 63.5 -21.5t39.5 -54.5q11 33 38.5 54.5t63.5 21.5q35 0 63.5 -21.5t39.5 -54.5q11 33 38.5 54.5t63.5 21.5q44 0 76.5 -32.5t32.5 -76.5q0 -45 -32 -76t-77 -31q-36 0 -63.5 19.5t-38.5 52.5 q-10 -32 -39 -52t-64 -20q-36 0 -63.5 19.5t-38.5 52.5q-15 -50 -70 -67q33 -11 54.5 -39.5t21.5 -63.5q0 -36 -21.5 -63.5t-54.5 -38.5q25 -8 43.5 -26.5t26.5 -43.5q11 33 38.5 54.5t63.5 21.5q44 0 76.5 -32.5t32.5 -76.5q0 -45 -32 -75.5t-77 -30.5q-36 0 -63.5 19.5 t-38.5 52.5q-16 -52 -70 -68q33 -11 54.5 -39t21.5 -63q0 -36 -21.5 -64t-54.5 -39q25 -8 44 -26t26 -43q11 33 38.5 54t63.5 21q35 0 63.5 -21t39.5 -54q11 33 38.5 54t63.5 21q44 0 76.5 -32t32.5 -76q0 -45 -32 -76t-77 -31q-36 0 -63.5 19.5t-38.5 52.5q-10 -32 -39 -52 t-64 -20q-36 0 -63.5 19.5t-38.5 52.5q-10 -32 -39 -52t-64 -20q-46 0 -76 30.5t-30 76.5q0 35 20 63t52 39q-52 16 -68 68q-11 -32 -39 -52t-63 -20q-36 0 -64 20t-39 52q-16 -52 -69 -68q33 -11 54 -39t21 -63q0 -45 -31.5 -76t-76.5 -31q-46 0 -76.5 30.5t-30.5 76.5z " />
<glyph unicode="&#xc7;" d="M-31 281q0 35 20 63t52 39q-33 11 -52.5 38.5t-19.5 63.5q0 35 20 64t52 39q-33 11 -52.5 38.5t-19.5 63.5q0 45 31 77t76 32q44 0 76 -32.5t32 -76.5q0 -36 -21 -63.5t-54 -38.5q33 -11 54 -39.5t21 -63.5q0 -36 -21 -63.5t-54 -38.5q33 -11 54 -39t21 -63 q0 -45 -31.5 -76t-76.5 -31q-46 0 -76.5 30.5t-30.5 76.5zM174 76q0 45 31 76.5t76 31.5q35 0 63 -21t39 -54q11 33 38.5 54t63.5 21q35 0 63.5 -21t39.5 -54q11 33 38.5 54t63.5 21q35 0 63.5 -21t39.5 -54q11 33 38.5 54t63.5 21q44 0 76.5 -32t32.5 -76q0 -45 -32 -76 t-77 -31q-36 0 -63.5 19.5t-38.5 52.5q-10 -32 -39 -52t-64 -20q-36 0 -63.5 19.5t-38.5 52.5q-10 -32 -39 -52t-64 -20q-36 0 -63.5 19.5t-38.5 52.5q-11 -32 -39 -52t-63 -20q-46 0 -76.5 30.5t-30.5 76.5zM174 -334q0 45 31 77t76 32q44 0 76 -32.5t32 -76.5 q0 -45 -31.5 -75.5t-76.5 -30.5q-46 0 -76.5 30t-30.5 76zM174 895q0 45 31 77t76 32q35 0 63 -21.5t39 -54.5q11 33 38.5 54.5t63.5 21.5q35 0 63.5 -21.5t39.5 -54.5q11 33 38.5 54.5t63.5 21.5q35 0 63.5 -21.5t39.5 -54.5q11 33 38.5 54.5t63.5 21.5q44 0 76.5 -32.5 t32.5 -76.5q0 -45 -32 -76t-77 -31q-36 0 -63.5 19.5t-38.5 52.5q-10 -32 -39 -52t-64 -20q-36 0 -63.5 19.5t-38.5 52.5q-10 -32 -39 -52t-64 -20q-36 0 -63.5 19.5t-38.5 52.5q-11 -32 -39 -52t-63 -20q-46 0 -76.5 30.5t-30.5 76.5zM379 -129q0 45 30.5 77t75.5 32 q44 0 76.5 -32.5t32.5 -76.5q0 -45 -32 -76t-77 -31q-46 0 -76 30.5t-30 76.5z" />
<glyph unicode="&#xc8;" d="M-31 76q0 35 20 63t52 39q-32 11 -52 39t-20 64q0 35 20 63t52 39q-33 11 -52.5 38.5t-19.5 63.5q0 35 20 64t52 39q-33 11 -52.5 38.5t-19.5 63.5q0 35 20 64t52 39q-33 11 -52.5 38.5t-19.5 63.5q0 45 31 77t76 32q35 0 63 -21.5t39 -54.5q11 33 39 54.5t64 21.5 q35 0 63 -21.5t39 -54.5q11 33 38.5 54.5t63.5 21.5q35 0 63.5 -21.5t39.5 -54.5q11 33 38.5 54.5t63.5 21.5q35 0 63.5 -21.5t39.5 -54.5q11 33 38.5 54.5t63.5 21.5q44 0 76.5 -32.5t32.5 -76.5q0 -45 -32 -76t-77 -31q-36 0 -63.5 19.5t-38.5 52.5q-10 -32 -39 -52 t-64 -20q-36 0 -63.5 19.5t-38.5 52.5q-10 -32 -39 -52t-64 -20q-36 0 -63.5 19.5t-38.5 52.5q-11 -32 -39 -52t-63 -20q-36 0 -64 20t-39 52q-15 -51 -69 -67q33 -11 54 -39.5t21 -63.5q0 -36 -21 -63.5t-54 -38.5q25 -7 43 -26t26 -44q11 33 39 54.5t64 21.5 q35 0 63 -21.5t39 -54.5q11 33 38.5 54.5t63.5 21.5q35 0 63.5 -21.5t39.5 -54.5q11 33 38.5 54.5t63.5 21.5q44 0 76.5 -32.5t32.5 -76.5q0 -45 -32 -75.5t-77 -30.5q-36 0 -63.5 19.5t-38.5 52.5q-10 -32 -39 -52t-64 -20q-36 0 -63.5 19.5t-38.5 52.5q-11 -32 -39 -52 t-63 -20q-36 0 -64 20t-39 52q-16 -52 -69 -68q33 -11 54 -39t21 -63q0 -36 -21 -64t-54 -39q53 -16 69 -69q11 33 39 54t64 21q35 0 63 -21t39 -54q11 33 38.5 54t63.5 21q35 0 63.5 -21t39.5 -54q11 33 38.5 54t63.5 21q35 0 63.5 -21t39.5 -54q11 33 38.5 54t63.5 21 q44 0 76.5 -32t32.5 -76q0 -45 -32 -76t-77 -31q-36 0 -63.5 19.5t-38.5 52.5q-10 -32 -39 -52t-64 -20q-36 0 -63.5 19.5t-38.5 52.5q-10 -32 -39 -52t-64 -20q-36 0 -63.5 19.5t-38.5 52.5q-11 -32 -39 -52t-63 -20q-36 0 -64 20t-39 52q-11 -32 -39 -52t-63 -20 q-46 0 -76.5 30.5t-30.5 76.5zM174 1509q0 45 31 77t76 32q44 0 76 -32.5t32 -76.5q0 -45 -31.5 -75.5t-76.5 -30.5q-46 0 -76.5 30t-30.5 76zM379 1305q0 45 30.5 76.5t75.5 31.5q35 0 63.5 -21.5t39.5 -54.5q11 33 38.5 54.5t63.5 21.5q44 0 76.5 -32t32.5 -76 q0 -45 -32 -76t-77 -31q-36 0 -63.5 19.5t-38.5 52.5q-10 -32 -39 -52t-64 -20q-46 0 -76 30.5t-30 76.5z" />
<glyph unicode="&#xc9;" d="M-31 76q0 35 20 63t52 39q-32 11 -52 39t-20 64q0 35 20 63t52 39q-33 11 -52.5 38.5t-19.5 63.5q0 35 20 64t52 39q-33 11 -52.5 38.5t-19.5 63.5q0 35 20 64t52 39q-33 11 -52.5 38.5t-19.5 63.5q0 45 31 77t76 32q35 0 63 -21.5t39 -54.5q11 33 39 54.5t64 21.5 q35 0 63 -21.5t39 -54.5q11 33 38.5 54.5t63.5 21.5q35 0 63.5 -21.5t39.5 -54.5q11 33 38.5 54.5t63.5 21.5q35 0 63.5 -21.5t39.5 -54.5q11 33 38.5 54.5t63.5 21.5q44 0 76.5 -32.5t32.5 -76.5q0 -45 -32 -76t-77 -31q-36 0 -63.5 19.5t-38.5 52.5q-10 -32 -39 -52 t-64 -20q-36 0 -63.5 19.5t-38.5 52.5q-10 -32 -39 -52t-64 -20q-36 0 -63.5 19.5t-38.5 52.5q-11 -32 -39 -52t-63 -20q-36 0 -64 20t-39 52q-15 -51 -69 -67q33 -11 54 -39.5t21 -63.5q0 -36 -21 -63.5t-54 -38.5q25 -7 43 -26t26 -44q11 33 39 54.5t64 21.5 q35 0 63 -21.5t39 -54.5q11 33 38.5 54.5t63.5 21.5q35 0 63.5 -21.5t39.5 -54.5q11 33 38.5 54.5t63.5 21.5q44 0 76.5 -32.5t32.5 -76.5q0 -45 -32 -75.5t-77 -30.5q-36 0 -63.5 19.5t-38.5 52.5q-10 -32 -39 -52t-64 -20q-36 0 -63.5 19.5t-38.5 52.5q-11 -32 -39 -52 t-63 -20q-36 0 -64 20t-39 52q-16 -52 -69 -68q33 -11 54 -39t21 -63q0 -36 -21 -64t-54 -39q53 -16 69 -69q11 33 39 54t64 21q35 0 63 -21t39 -54q11 33 38.5 54t63.5 21q35 0 63.5 -21t39.5 -54q11 33 38.5 54t63.5 21q35 0 63.5 -21t39.5 -54q11 33 38.5 54t63.5 21 q44 0 76.5 -32t32.5 -76q0 -45 -32 -76t-77 -31q-36 0 -63.5 19.5t-38.5 52.5q-10 -32 -39 -52t-64 -20q-36 0 -63.5 19.5t-38.5 52.5q-10 -32 -39 -52t-64 -20q-36 0 -63.5 19.5t-38.5 52.5q-11 -32 -39 -52t-63 -20q-36 0 -64 20t-39 52q-11 -32 -39 -52t-63 -20 q-46 0 -76.5 30.5t-30.5 76.5zM174 1305q0 45 31 76.5t76 31.5q35 0 63 -21.5t39 -54.5q11 33 38.5 54.5t63.5 21.5q44 0 76.5 -32t32.5 -76q0 -45 -32 -76t-77 -31q-36 0 -63.5 19.5t-38.5 52.5q-11 -32 -39 -52t-63 -20q-46 0 -76.5 30.5t-30.5 76.5zM584 1509 q0 45 30.5 77t75.5 32q44 0 76.5 -32.5t32.5 -76.5q0 -45 -32 -75.5t-77 -30.5q-46 0 -76 30t-30 76z" />
<glyph unicode="&#xca;" d="M-31 76q0 35 20 63t52 39q-32 11 -52 39t-20 64q0 35 20 63t52 39q-33 11 -52.5 38.5t-19.5 63.5q0 35 20 64t52 39q-33 11 -52.5 38.5t-19.5 63.5q0 35 20 64t52 39q-33 11 -52.5 38.5t-19.5 63.5q0 45 31 77t76 32q35 0 63 -21.5t39 -54.5q11 33 39 54.5t64 21.5 q35 0 63 -21.5t39 -54.5q11 33 38.5 54.5t63.5 21.5q35 0 63.5 -21.5t39.5 -54.5q11 33 38.5 54.5t63.5 21.5q35 0 63.5 -21.5t39.5 -54.5q11 33 38.5 54.5t63.5 21.5q44 0 76.5 -32.5t32.5 -76.5q0 -45 -32 -76t-77 -31q-36 0 -63.5 19.5t-38.5 52.5q-10 -32 -39 -52 t-64 -20q-36 0 -63.5 19.5t-38.5 52.5q-10 -32 -39 -52t-64 -20q-36 0 -63.5 19.5t-38.5 52.5q-11 -32 -39 -52t-63 -20q-36 0 -64 20t-39 52q-15 -51 -69 -67q33 -11 54 -39.5t21 -63.5q0 -36 -21 -63.5t-54 -38.5q25 -7 43 -26t26 -44q11 33 39 54.5t64 21.5 q35 0 63 -21.5t39 -54.5q11 33 38.5 54.5t63.5 21.5q35 0 63.5 -21.5t39.5 -54.5q11 33 38.5 54.5t63.5 21.5q44 0 76.5 -32.5t32.5 -76.5q0 -45 -32 -75.5t-77 -30.5q-36 0 -63.5 19.5t-38.5 52.5q-10 -32 -39 -52t-64 -20q-36 0 -63.5 19.5t-38.5 52.5q-11 -32 -39 -52 t-63 -20q-36 0 -64 20t-39 52q-16 -52 -69 -68q33 -11 54 -39t21 -63q0 -36 -21 -64t-54 -39q53 -16 69 -69q11 33 39 54t64 21q35 0 63 -21t39 -54q11 33 38.5 54t63.5 21q35 0 63.5 -21t39.5 -54q11 33 38.5 54t63.5 21q35 0 63.5 -21t39.5 -54q11 33 38.5 54t63.5 21 q44 0 76.5 -32t32.5 -76q0 -45 -32 -76t-77 -31q-36 0 -63.5 19.5t-38.5 52.5q-10 -32 -39 -52t-64 -20q-36 0 -63.5 19.5t-38.5 52.5q-10 -32 -39 -52t-64 -20q-36 0 -63.5 19.5t-38.5 52.5q-11 -32 -39 -52t-63 -20q-36 0 -64 20t-39 52q-11 -32 -39 -52t-63 -20 q-46 0 -76.5 30.5t-30.5 76.5zM174 1305q0 45 31 76.5t76 31.5q44 0 76 -32t32 -76q0 -45 -31.5 -76t-76.5 -31q-46 0 -76.5 30.5t-30.5 76.5zM379 1509q0 45 30.5 77t75.5 32q44 0 76.5 -32.5t32.5 -76.5q0 -45 -32 -75.5t-77 -30.5q-46 0 -76 30t-30 76zM584 1305 q0 45 30.5 76.5t75.5 31.5q44 0 76.5 -32t32.5 -76q0 -45 -32 -76t-77 -31q-46 0 -76 30.5t-30 76.5z" />
<glyph unicode="&#xcb;" d="M-31 76q0 35 20 63t52 39q-32 11 -52 39t-20 64q0 35 20 63t52 39q-33 11 -52.5 38.5t-19.5 63.5q0 35 20 64t52 39q-33 11 -52.5 38.5t-19.5 63.5q0 35 20 64t52 39q-33 11 -52.5 38.5t-19.5 63.5q0 45 31 77t76 32q35 0 63 -21.5t39 -54.5q11 33 39 54.5t64 21.5 q35 0 63 -21.5t39 -54.5q11 33 38.5 54.5t63.5 21.5q35 0 63.5 -21.5t39.5 -54.5q11 33 38.5 54.5t63.5 21.5q35 0 63.5 -21.5t39.5 -54.5q11 33 38.5 54.5t63.5 21.5q44 0 76.5 -32.5t32.5 -76.5q0 -45 -32 -76t-77 -31q-36 0 -63.5 19.5t-38.5 52.5q-10 -32 -39 -52 t-64 -20q-36 0 -63.5 19.5t-38.5 52.5q-10 -32 -39 -52t-64 -20q-36 0 -63.5 19.5t-38.5 52.5q-11 -32 -39 -52t-63 -20q-36 0 -64 20t-39 52q-15 -51 -69 -67q33 -11 54 -39.5t21 -63.5q0 -36 -21 -63.5t-54 -38.5q25 -7 43 -26t26 -44q11 33 39 54.5t64 21.5 q35 0 63 -21.5t39 -54.5q11 33 38.5 54.5t63.5 21.5q35 0 63.5 -21.5t39.5 -54.5q11 33 38.5 54.5t63.5 21.5q44 0 76.5 -32.5t32.5 -76.5q0 -45 -32 -75.5t-77 -30.5q-36 0 -63.5 19.5t-38.5 52.5q-10 -32 -39 -52t-64 -20q-36 0 -63.5 19.5t-38.5 52.5q-11 -32 -39 -52 t-63 -20q-36 0 -64 20t-39 52q-16 -52 -69 -68q33 -11 54 -39t21 -63q0 -36 -21 -64t-54 -39q53 -16 69 -69q11 33 39 54t64 21q35 0 63 -21t39 -54q11 33 38.5 54t63.5 21q35 0 63.5 -21t39.5 -54q11 33 38.5 54t63.5 21q35 0 63.5 -21t39.5 -54q11 33 38.5 54t63.5 21 q44 0 76.5 -32t32.5 -76q0 -45 -32 -76t-77 -31q-36 0 -63.5 19.5t-38.5 52.5q-10 -32 -39 -52t-64 -20q-36 0 -63.5 19.5t-38.5 52.5q-10 -32 -39 -52t-64 -20q-36 0 -63.5 19.5t-38.5 52.5q-11 -32 -39 -52t-63 -20q-36 0 -64 20t-39 52q-11 -32 -39 -52t-63 -20 q-46 0 -76.5 30.5t-30.5 76.5zM-31 1305q0 35 20 63t52 39q-33 11 -52.5 38.5t-19.5 63.5q0 45 31 77t76 32q44 0 76 -32.5t32 -76.5q0 -36 -21 -63.5t-54 -38.5q33 -11 54 -39t21 -63q0 -45 -31.5 -76t-76.5 -31q-46 0 -76.5 30.5t-30.5 76.5zM788 1305q0 35 20 63t52 39 q-33 11 -52.5 38.5t-19.5 63.5q0 45 31 77t76 32q44 0 76.5 -32.5t32.5 -76.5q0 -36 -21.5 -63.5t-54.5 -38.5q33 -11 54.5 -39t21.5 -63q0 -45 -32 -76t-77 -31q-46 0 -76.5 30.5t-30.5 76.5z" />
<glyph unicode="&#xcc;" d="M-31 76q0 45 31 76.5t76 31.5q35 0 63 -21t39 -54q11 33 39 54t64 21q35 0 63 -21t39 -54q16 53 68 69q-32 11 -52 39t-20 64q0 35 20 63t52 39q-33 11 -52.5 38.5t-19.5 63.5q0 35 20 64t52 39q-33 11 -52.5 38.5t-19.5 63.5q0 35 20 64t52 39q-53 16 -68 67 q-11 -32 -39 -52t-63 -20q-36 0 -64 20t-39 52q-11 -32 -39 -52t-63 -20q-46 0 -76.5 30.5t-30.5 76.5q0 45 31 77t76 32q35 0 63 -21.5t39 -54.5q11 33 39 54.5t64 21.5q35 0 63 -21.5t39 -54.5q11 33 38.5 54.5t63.5 21.5q35 0 63.5 -21.5t39.5 -54.5q11 33 38.5 54.5 t63.5 21.5q35 0 63.5 -21.5t39.5 -54.5q11 33 38.5 54.5t63.5 21.5q44 0 76.5 -32.5t32.5 -76.5q0 -45 -32 -76t-77 -31q-36 0 -63.5 19.5t-38.5 52.5q-10 -32 -39 -52t-64 -20q-36 0 -63.5 19.5t-38.5 52.5q-15 -50 -70 -67q33 -11 54.5 -39.5t21.5 -63.5 q0 -36 -21.5 -63.5t-54.5 -38.5q33 -11 54.5 -39.5t21.5 -63.5q0 -36 -21.5 -63.5t-54.5 -38.5q33 -11 54.5 -39t21.5 -63q0 -36 -21.5 -64t-54.5 -39q25 -8 44 -26t26 -43q11 33 38.5 54t63.5 21q35 0 63.5 -21t39.5 -54q11 33 38.5 54t63.5 21q44 0 76.5 -32t32.5 -76 q0 -45 -32 -76t-77 -31q-36 0 -63.5 19.5t-38.5 52.5q-10 -32 -39 -52t-64 -20q-36 0 -63.5 19.5t-38.5 52.5q-10 -32 -39 -52t-64 -20q-36 0 -63.5 19.5t-38.5 52.5q-11 -32 -39 -52t-63 -20q-36 0 -64 20t-39 52q-11 -32 -39 -52t-63 -20q-46 0 -76.5 30.5t-30.5 76.5z M174 1509q0 45 31 77t76 32q44 0 76 -32.5t32 -76.5q0 -45 -31.5 -75.5t-76.5 -30.5q-46 0 -76.5 30t-30.5 76zM379 1305q0 45 30.5 76.5t75.5 31.5q35 0 63.5 -21.5t39.5 -54.5q11 33 38.5 54.5t63.5 21.5q44 0 76.5 -32t32.5 -76q0 -45 -32 -76t-77 -31q-36 0 -63.5 19.5 t-38.5 52.5q-10 -32 -39 -52t-64 -20q-46 0 -76 30.5t-30 76.5z" />
<glyph unicode="&#xcd;" d="M-31 76q0 45 31 76.5t76 31.5q35 0 63 -21t39 -54q11 33 39 54t64 21q35 0 63 -21t39 -54q16 53 68 69q-32 11 -52 39t-20 64q0 35 20 63t52 39q-33 11 -52.5 38.5t-19.5 63.5q0 35 20 64t52 39q-33 11 -52.5 38.5t-19.5 63.5q0 35 20 64t52 39q-53 16 -68 67 q-11 -32 -39 -52t-63 -20q-36 0 -64 20t-39 52q-11 -32 -39 -52t-63 -20q-46 0 -76.5 30.5t-30.5 76.5q0 45 31 77t76 32q35 0 63 -21.5t39 -54.5q11 33 39 54.5t64 21.5q35 0 63 -21.5t39 -54.5q11 33 38.5 54.5t63.5 21.5q35 0 63.5 -21.5t39.5 -54.5q11 33 38.5 54.5 t63.5 21.5q35 0 63.5 -21.5t39.5 -54.5q11 33 38.5 54.5t63.5 21.5q44 0 76.5 -32.5t32.5 -76.5q0 -45 -32 -76t-77 -31q-36 0 -63.5 19.5t-38.5 52.5q-10 -32 -39 -52t-64 -20q-36 0 -63.5 19.5t-38.5 52.5q-15 -50 -70 -67q33 -11 54.5 -39.5t21.5 -63.5 q0 -36 -21.5 -63.5t-54.5 -38.5q33 -11 54.5 -39.5t21.5 -63.5q0 -36 -21.5 -63.5t-54.5 -38.5q33 -11 54.5 -39t21.5 -63q0 -36 -21.5 -64t-54.5 -39q25 -8 44 -26t26 -43q11 33 38.5 54t63.5 21q35 0 63.5 -21t39.5 -54q11 33 38.5 54t63.5 21q44 0 76.5 -32t32.5 -76 q0 -45 -32 -76t-77 -31q-36 0 -63.5 19.5t-38.5 52.5q-10 -32 -39 -52t-64 -20q-36 0 -63.5 19.5t-38.5 52.5q-10 -32 -39 -52t-64 -20q-36 0 -63.5 19.5t-38.5 52.5q-11 -32 -39 -52t-63 -20q-36 0 -64 20t-39 52q-11 -32 -39 -52t-63 -20q-46 0 -76.5 30.5t-30.5 76.5z M174 1305q0 45 31 76.5t76 31.5q35 0 63 -21.5t39 -54.5q11 33 38.5 54.5t63.5 21.5q44 0 76.5 -32t32.5 -76q0 -45 -32 -76t-77 -31q-36 0 -63.5 19.5t-38.5 52.5q-11 -32 -39 -52t-63 -20q-46 0 -76.5 30.5t-30.5 76.5zM584 1509q0 45 30.5 77t75.5 32q44 0 76.5 -32.5 t32.5 -76.5q0 -45 -32 -75.5t-77 -30.5q-46 0 -76 30t-30 76z" />
<glyph unicode="&#xce;" d="M-31 76q0 45 31 76.5t76 31.5q35 0 63 -21t39 -54q11 33 39 54t64 21q35 0 63 -21t39 -54q16 53 68 69q-32 11 -52 39t-20 64q0 35 20 63t52 39q-33 11 -52.5 38.5t-19.5 63.5q0 35 20 64t52 39q-33 11 -52.5 38.5t-19.5 63.5q0 35 20 64t52 39q-53 16 -68 67 q-11 -32 -39 -52t-63 -20q-36 0 -64 20t-39 52q-11 -32 -39 -52t-63 -20q-46 0 -76.5 30.5t-30.5 76.5q0 45 31 77t76 32q35 0 63 -21.5t39 -54.5q11 33 39 54.5t64 21.5q35 0 63 -21.5t39 -54.5q11 33 38.5 54.5t63.5 21.5q35 0 63.5 -21.5t39.5 -54.5q11 33 38.5 54.5 t63.5 21.5q35 0 63.5 -21.5t39.5 -54.5q11 33 38.5 54.5t63.5 21.5q44 0 76.5 -32.5t32.5 -76.5q0 -45 -32 -76t-77 -31q-36 0 -63.5 19.5t-38.5 52.5q-10 -32 -39 -52t-64 -20q-36 0 -63.5 19.5t-38.5 52.5q-15 -50 -70 -67q33 -11 54.5 -39.5t21.5 -63.5 q0 -36 -21.5 -63.5t-54.5 -38.5q33 -11 54.5 -39.5t21.5 -63.5q0 -36 -21.5 -63.5t-54.5 -38.5q33 -11 54.5 -39t21.5 -63q0 -36 -21.5 -64t-54.5 -39q25 -8 44 -26t26 -43q11 33 38.5 54t63.5 21q35 0 63.5 -21t39.5 -54q11 33 38.5 54t63.5 21q44 0 76.5 -32t32.5 -76 q0 -45 -32 -76t-77 -31q-36 0 -63.5 19.5t-38.5 52.5q-10 -32 -39 -52t-64 -20q-36 0 -63.5 19.5t-38.5 52.5q-10 -32 -39 -52t-64 -20q-36 0 -63.5 19.5t-38.5 52.5q-11 -32 -39 -52t-63 -20q-36 0 -64 20t-39 52q-11 -32 -39 -52t-63 -20q-46 0 -76.5 30.5t-30.5 76.5z M174 1305q0 45 31 76.5t76 31.5q44 0 76 -32t32 -76q0 -45 -31.5 -76t-76.5 -31q-46 0 -76.5 30.5t-30.5 76.5zM379 1509q0 45 30.5 77t75.5 32q44 0 76.5 -32.5t32.5 -76.5q0 -45 -32 -75.5t-77 -30.5q-46 0 -76 30t-30 76zM584 1305q0 45 30.5 76.5t75.5 31.5 q44 0 76.5 -32t32.5 -76q0 -45 -32 -76t-77 -31q-46 0 -76 30.5t-30 76.5z" />
<glyph unicode="&#xcf;" d="M-31 76q0 45 31 76.5t76 31.5q35 0 63 -21t39 -54q11 33 39 54t64 21q35 0 63 -21t39 -54q16 53 68 69q-32 11 -52 39t-20 64q0 35 20 63t52 39q-33 11 -52.5 38.5t-19.5 63.5q0 35 20 64t52 39q-33 11 -52.5 38.5t-19.5 63.5q0 35 20 64t52 39q-53 16 -68 67 q-11 -32 -39 -52t-63 -20q-36 0 -64 20t-39 52q-11 -32 -39 -52t-63 -20q-46 0 -76.5 30.5t-30.5 76.5q0 45 31 77t76 32q35 0 63 -21.5t39 -54.5q11 33 39 54.5t64 21.5q35 0 63 -21.5t39 -54.5q11 33 38.5 54.5t63.5 21.5q35 0 63.5 -21.5t39.5 -54.5q11 33 38.5 54.5 t63.5 21.5q35 0 63.5 -21.5t39.5 -54.5q11 33 38.5 54.5t63.5 21.5q44 0 76.5 -32.5t32.5 -76.5q0 -45 -32 -76t-77 -31q-36 0 -63.5 19.5t-38.5 52.5q-10 -32 -39 -52t-64 -20q-36 0 -63.5 19.5t-38.5 52.5q-15 -50 -70 -67q33 -11 54.5 -39.5t21.5 -63.5 q0 -36 -21.5 -63.5t-54.5 -38.5q33 -11 54.5 -39.5t21.5 -63.5q0 -36 -21.5 -63.5t-54.5 -38.5q33 -11 54.5 -39t21.5 -63q0 -36 -21.5 -64t-54.5 -39q25 -8 44 -26t26 -43q11 33 38.5 54t63.5 21q35 0 63.5 -21t39.5 -54q11 33 38.5 54t63.5 21q44 0 76.5 -32t32.5 -76 q0 -45 -32 -76t-77 -31q-36 0 -63.5 19.5t-38.5 52.5q-10 -32 -39 -52t-64 -20q-36 0 -63.5 19.5t-38.5 52.5q-10 -32 -39 -52t-64 -20q-36 0 -63.5 19.5t-38.5 52.5q-11 -32 -39 -52t-63 -20q-36 0 -64 20t-39 52q-11 -32 -39 -52t-63 -20q-46 0 -76.5 30.5t-30.5 76.5z M-31 1305q0 35 20 63t52 39q-33 11 -52.5 38.5t-19.5 63.5q0 45 31 77t76 32q44 0 76 -32.5t32 -76.5q0 -36 -21 -63.5t-54 -38.5q33 -11 54 -39t21 -63q0 -45 -31.5 -76t-76.5 -31q-46 0 -76.5 30.5t-30.5 76.5zM788 1305q0 35 20 63t52 39q-33 11 -52.5 38.5t-19.5 63.5 q0 45 31 77t76 32q44 0 76.5 -32.5t32.5 -76.5q0 -36 -21.5 -63.5t-54.5 -38.5q33 -11 54.5 -39t21.5 -63q0 -45 -32 -76t-77 -31q-46 0 -76.5 30.5t-30.5 76.5z" />
<glyph unicode="&#xd0;" d="M-31 485q0 45 31 77t76 32q35 0 63 -21.5t39 -54.5q16 54 68 70q-33 11 -52.5 38.5t-19.5 63.5q0 35 20 64t52 39q-33 11 -52.5 38.5t-19.5 63.5q0 45 31 77t76 32q35 0 63 -21.5t39 -54.5q11 33 38.5 54.5t63.5 21.5q35 0 63.5 -21.5t39.5 -54.5q11 33 38.5 54.5 t63.5 21.5q44 0 76.5 -32.5t32.5 -76.5q0 -45 -32 -76t-77 -31q-36 0 -63.5 19.5t-38.5 52.5q-10 -32 -39 -52t-64 -20q-36 0 -63.5 19.5t-38.5 52.5q-15 -50 -70 -67q33 -11 54.5 -39.5t21.5 -63.5q0 -36 -21.5 -63.5t-54.5 -38.5q25 -8 43.5 -26.5t26.5 -43.5 q11 33 38.5 54.5t63.5 21.5q44 0 76.5 -32.5t32.5 -76.5q0 -45 -32 -75.5t-77 -30.5q-36 0 -63.5 19.5t-38.5 52.5q-16 -52 -70 -68q33 -11 54.5 -39t21.5 -63q0 -36 -21.5 -64t-54.5 -39q25 -8 44 -26t26 -43q11 33 38.5 54t63.5 21q35 0 63.5 -21t39.5 -54q11 33 38.5 54 t63.5 21q44 0 76.5 -32t32.5 -76q0 -45 -32 -76t-77 -31q-36 0 -63.5 19.5t-38.5 52.5q-10 -32 -39 -52t-64 -20q-36 0 -63.5 19.5t-38.5 52.5q-11 -32 -39 -52t-63 -20q-46 0 -76.5 30.5t-30.5 76.5q0 35 20 63t52 39q-32 11 -52 39t-20 64q0 35 20 63t52 39q-52 16 -68 68 q-11 -32 -39 -52t-63 -20q-46 0 -76.5 30t-30.5 76zM788 281q0 35 20 63t52 39q-33 11 -52.5 38.5t-19.5 63.5q0 35 20 64t52 39q-33 11 -52.5 38.5t-19.5 63.5q0 45 31 77t76 32q44 0 76.5 -32.5t32.5 -76.5q0 -36 -21.5 -63.5t-54.5 -38.5q33 -11 54.5 -39.5t21.5 -63.5 q0 -36 -21.5 -63.5t-54.5 -38.5q33 -11 54.5 -39t21.5 -63q0 -45 -32 -76t-77 -31q-46 0 -76.5 30.5t-30.5 76.5z" />
<glyph unicode="&#xd1;" d="M-31 76q0 35 20 63t52 39q-32 11 -52 39t-20 64q0 35 20 63t52 39q-33 11 -52.5 38.5t-19.5 63.5q0 35 20 64t52 39q-33 11 -52.5 38.5t-19.5 63.5q0 35 20 64t52 39q-33 11 -52.5 38.5t-19.5 63.5q0 45 31 77t76 32q44 0 76 -32.5t32 -76.5q0 -36 -21 -63.5t-54 -38.5 q25 -7 43 -26t26 -44q11 33 39 54.5t64 21.5q44 0 76 -32.5t32 -76.5q0 -45 -31.5 -75.5t-76.5 -30.5q-37 0 -64.5 19.5t-38.5 51.5q-15 -51 -69 -67q33 -11 54 -39.5t21 -63.5q0 -36 -21 -63.5t-54 -38.5q33 -11 54 -39t21 -63q0 -36 -21 -64t-54 -39q33 -11 54 -39t21 -63 q0 -45 -31.5 -76t-76.5 -31q-46 0 -76.5 30.5t-30.5 76.5zM-31 1305q0 45 31 76.5t76 31.5q44 0 76 -32t32 -76q0 -45 -31.5 -76t-76.5 -31q-46 0 -76.5 30.5t-30.5 76.5zM174 1509q0 45 31 77t76 32q44 0 76 -32.5t32 -76.5q0 -45 -31.5 -75.5t-76.5 -30.5q-46 0 -76.5 30 t-30.5 76zM379 485q0 45 30.5 77t75.5 32q44 0 76.5 -32.5t32.5 -76.5q0 -45 -32 -75.5t-77 -30.5q-46 0 -76 30t-30 76zM379 1305q0 45 30.5 76.5t75.5 31.5q35 0 63.5 -21.5t39.5 -54.5q11 33 38.5 54.5t63.5 21.5q44 0 76.5 -32t32.5 -76q0 -45 -32 -76t-77 -31 q-36 0 -63.5 19.5t-38.5 52.5q-10 -32 -39 -52t-64 -20q-46 0 -76 30.5t-30 76.5zM584 281q0 45 30.5 76.5t75.5 31.5q35 0 63.5 -21.5t39.5 -54.5q17 55 67 70q-33 11 -52.5 38.5t-19.5 63.5q0 35 20 64t52 39q-33 11 -52.5 38.5t-19.5 63.5q0 35 20 64t52 39 q-33 11 -52.5 38.5t-19.5 63.5q0 45 31 77t76 32q44 0 76.5 -32.5t32.5 -76.5q0 -36 -21.5 -63.5t-54.5 -38.5q33 -11 54.5 -39.5t21.5 -63.5q0 -36 -21.5 -63.5t-54.5 -38.5q33 -11 54.5 -39.5t21.5 -63.5q0 -36 -21.5 -63.5t-54.5 -38.5q33 -11 54.5 -39t21.5 -63 q0 -36 -21.5 -64t-54.5 -39q33 -11 54.5 -39t21.5 -63q0 -45 -32 -76t-77 -31q-46 0 -76.5 30.5t-30.5 76.5q0 35 20 63t52 39q-51 15 -67 68q-10 -32 -39 -52t-64 -20q-46 0 -76 30.5t-30 76.5zM788 1509q0 45 31 77t76 32q44 0 76.5 -32.5t32.5 -76.5q0 -45 -32 -75.5 t-77 -30.5q-46 0 -76.5 30t-30.5 76z" />
<glyph unicode="&#xd2;" d="M-31 281q0 35 20 63t52 39q-33 11 -52.5 38.5t-19.5 63.5q0 35 20 64t52 39q-33 11 -52.5 38.5t-19.5 63.5q0 45 31 77t76 32q44 0 76 -32.5t32 -76.5q0 -36 -21 -63.5t-54 -38.5q33 -11 54 -39.5t21 -63.5q0 -36 -21 -63.5t-54 -38.5q33 -11 54 -39t21 -63 q0 -45 -31.5 -76t-76.5 -31q-46 0 -76.5 30.5t-30.5 76.5zM174 76q0 45 31 76.5t76 31.5q35 0 63 -21t39 -54q11 33 38.5 54t63.5 21q35 0 63.5 -21t39.5 -54q11 33 38.5 54t63.5 21q44 0 76.5 -32t32.5 -76q0 -45 -32 -76t-77 -31q-36 0 -63.5 19.5t-38.5 52.5 q-10 -32 -39 -52t-64 -20q-36 0 -63.5 19.5t-38.5 52.5q-11 -32 -39 -52t-63 -20q-46 0 -76.5 30.5t-30.5 76.5zM174 895q0 45 31 77t76 32q35 0 63 -21.5t39 -54.5q11 33 38.5 54.5t63.5 21.5q35 0 63.5 -21.5t39.5 -54.5q11 33 38.5 54.5t63.5 21.5q44 0 76.5 -32.5 t32.5 -76.5q0 -45 -32 -76t-77 -31q-36 0 -63.5 19.5t-38.5 52.5q-10 -32 -39 -52t-64 -20q-36 0 -63.5 19.5t-38.5 52.5q-11 -32 -39 -52t-63 -20q-46 0 -76.5 30.5t-30.5 76.5zM174 1509q0 45 31 77t76 32q44 0 76 -32.5t32 -76.5q0 -45 -31.5 -75.5t-76.5 -30.5 q-46 0 -76.5 30t-30.5 76zM379 1305q0 45 30.5 76.5t75.5 31.5q35 0 63.5 -21.5t39.5 -54.5q11 33 38.5 54.5t63.5 21.5q44 0 76.5 -32t32.5 -76q0 -45 -32 -76t-77 -31q-36 0 -63.5 19.5t-38.5 52.5q-10 -32 -39 -52t-64 -20q-46 0 -76 30.5t-30 76.5zM788 281q0 35 20 63 t52 39q-33 11 -52.5 38.5t-19.5 63.5q0 35 20 64t52 39q-33 11 -52.5 38.5t-19.5 63.5q0 45 31 77t76 32q44 0 76.5 -32.5t32.5 -76.5q0 -36 -21.5 -63.5t-54.5 -38.5q33 -11 54.5 -39.5t21.5 -63.5q0 -36 -21.5 -63.5t-54.5 -38.5q33 -11 54.5 -39t21.5 -63q0 -45 -32 -76 t-77 -31q-46 0 -76.5 30.5t-30.5 76.5z" />
<glyph unicode="&#xd3;" d="M-31 281q0 35 20 63t52 39q-33 11 -52.5 38.5t-19.5 63.5q0 35 20 64t52 39q-33 11 -52.5 38.5t-19.5 63.5q0 45 31 77t76 32q44 0 76 -32.5t32 -76.5q0 -36 -21 -63.5t-54 -38.5q33 -11 54 -39.5t21 -63.5q0 -36 -21 -63.5t-54 -38.5q33 -11 54 -39t21 -63 q0 -45 -31.5 -76t-76.5 -31q-46 0 -76.5 30.5t-30.5 76.5zM174 76q0 45 31 76.5t76 31.5q35 0 63 -21t39 -54q11 33 38.5 54t63.5 21q35 0 63.5 -21t39.5 -54q11 33 38.5 54t63.5 21q44 0 76.5 -32t32.5 -76q0 -45 -32 -76t-77 -31q-36 0 -63.5 19.5t-38.5 52.5 q-10 -32 -39 -52t-64 -20q-36 0 -63.5 19.5t-38.5 52.5q-11 -32 -39 -52t-63 -20q-46 0 -76.5 30.5t-30.5 76.5zM174 895q0 45 31 77t76 32q35 0 63 -21.5t39 -54.5q11 33 38.5 54.5t63.5 21.5q35 0 63.5 -21.5t39.5 -54.5q11 33 38.5 54.5t63.5 21.5q44 0 76.5 -32.5 t32.5 -76.5q0 -45 -32 -76t-77 -31q-36 0 -63.5 19.5t-38.5 52.5q-10 -32 -39 -52t-64 -20q-36 0 -63.5 19.5t-38.5 52.5q-11 -32 -39 -52t-63 -20q-46 0 -76.5 30.5t-30.5 76.5zM174 1305q0 45 31 76.5t76 31.5q35 0 63 -21.5t39 -54.5q11 33 38.5 54.5t63.5 21.5 q44 0 76.5 -32t32.5 -76q0 -45 -32 -76t-77 -31q-36 0 -63.5 19.5t-38.5 52.5q-11 -32 -39 -52t-63 -20q-46 0 -76.5 30.5t-30.5 76.5zM584 1509q0 45 30.5 77t75.5 32q44 0 76.5 -32.5t32.5 -76.5q0 -45 -32 -75.5t-77 -30.5q-46 0 -76 30t-30 76zM788 281q0 35 20 63 t52 39q-33 11 -52.5 38.5t-19.5 63.5q0 35 20 64t52 39q-33 11 -52.5 38.5t-19.5 63.5q0 45 31 77t76 32q44 0 76.5 -32.5t32.5 -76.5q0 -36 -21.5 -63.5t-54.5 -38.5q33 -11 54.5 -39.5t21.5 -63.5q0 -36 -21.5 -63.5t-54.5 -38.5q33 -11 54.5 -39t21.5 -63q0 -45 -32 -76 t-77 -31q-46 0 -76.5 30.5t-30.5 76.5z" />
<glyph unicode="&#xd4;" d="M-31 281q0 35 20 63t52 39q-33 11 -52.5 38.5t-19.5 63.5q0 35 20 64t52 39q-33 11 -52.5 38.5t-19.5 63.5q0 45 31 77t76 32q44 0 76 -32.5t32 -76.5q0 -36 -21 -63.5t-54 -38.5q33 -11 54 -39.5t21 -63.5q0 -36 -21 -63.5t-54 -38.5q33 -11 54 -39t21 -63 q0 -45 -31.5 -76t-76.5 -31q-46 0 -76.5 30.5t-30.5 76.5zM174 76q0 45 31 76.5t76 31.5q35 0 63 -21t39 -54q11 33 38.5 54t63.5 21q35 0 63.5 -21t39.5 -54q11 33 38.5 54t63.5 21q44 0 76.5 -32t32.5 -76q0 -45 -32 -76t-77 -31q-36 0 -63.5 19.5t-38.5 52.5 q-10 -32 -39 -52t-64 -20q-36 0 -63.5 19.5t-38.5 52.5q-11 -32 -39 -52t-63 -20q-46 0 -76.5 30.5t-30.5 76.5zM174 895q0 45 31 77t76 32q35 0 63 -21.5t39 -54.5q11 33 38.5 54.5t63.5 21.5q35 0 63.5 -21.5t39.5 -54.5q11 33 38.5 54.5t63.5 21.5q44 0 76.5 -32.5 t32.5 -76.5q0 -45 -32 -76t-77 -31q-36 0 -63.5 19.5t-38.5 52.5q-10 -32 -39 -52t-64 -20q-36 0 -63.5 19.5t-38.5 52.5q-11 -32 -39 -52t-63 -20q-46 0 -76.5 30.5t-30.5 76.5zM174 1305q0 45 31 76.5t76 31.5q44 0 76 -32t32 -76q0 -45 -31.5 -76t-76.5 -31 q-46 0 -76.5 30.5t-30.5 76.5zM379 1509q0 45 30.5 77t75.5 32q44 0 76.5 -32.5t32.5 -76.5q0 -45 -32 -75.5t-77 -30.5q-46 0 -76 30t-30 76zM584 1305q0 45 30.5 76.5t75.5 31.5q44 0 76.5 -32t32.5 -76q0 -45 -32 -76t-77 -31q-46 0 -76 30.5t-30 76.5zM788 281 q0 35 20 63t52 39q-33 11 -52.5 38.5t-19.5 63.5q0 35 20 64t52 39q-33 11 -52.5 38.5t-19.5 63.5q0 45 31 77t76 32q44 0 76.5 -32.5t32.5 -76.5q0 -36 -21.5 -63.5t-54.5 -38.5q33 -11 54.5 -39.5t21.5 -63.5q0 -36 -21.5 -63.5t-54.5 -38.5q33 -11 54.5 -39t21.5 -63 q0 -45 -32 -76t-77 -31q-46 0 -76.5 30.5t-30.5 76.5z" />
<glyph unicode="&#xd5;" d="M-31 281q0 35 20 63t52 39q-33 11 -52.5 38.5t-19.5 63.5q0 35 20 64t52 39q-33 11 -52.5 38.5t-19.5 63.5q0 45 31 77t76 32q44 0 76 -32.5t32 -76.5q0 -36 -21 -63.5t-54 -38.5q33 -11 54 -39.5t21 -63.5q0 -36 -21 -63.5t-54 -38.5q33 -11 54 -39t21 -63 q0 -45 -31.5 -76t-76.5 -31q-46 0 -76.5 30.5t-30.5 76.5zM-31 1305q0 45 31 76.5t76 31.5q44 0 76 -32t32 -76q0 -45 -31.5 -76t-76.5 -31q-46 0 -76.5 30.5t-30.5 76.5zM174 76q0 45 31 76.5t76 31.5q35 0 63 -21t39 -54q11 33 38.5 54t63.5 21q35 0 63.5 -21t39.5 -54 q11 33 38.5 54t63.5 21q44 0 76.5 -32t32.5 -76q0 -45 -32 -76t-77 -31q-36 0 -63.5 19.5t-38.5 52.5q-10 -32 -39 -52t-64 -20q-36 0 -63.5 19.5t-38.5 52.5q-11 -32 -39 -52t-63 -20q-46 0 -76.5 30.5t-30.5 76.5zM174 895q0 45 31 77t76 32q35 0 63 -21.5t39 -54.5 q11 33 38.5 54.5t63.5 21.5q35 0 63.5 -21.5t39.5 -54.5q11 33 38.5 54.5t63.5 21.5q44 0 76.5 -32.5t32.5 -76.5q0 -45 -32 -76t-77 -31q-36 0 -63.5 19.5t-38.5 52.5q-10 -32 -39 -52t-64 -20q-36 0 -63.5 19.5t-38.5 52.5q-11 -32 -39 -52t-63 -20q-46 0 -76.5 30.5 t-30.5 76.5zM174 1509q0 45 31 77t76 32q44 0 76 -32.5t32 -76.5q0 -45 -31.5 -75.5t-76.5 -30.5q-46 0 -76.5 30t-30.5 76zM379 1305q0 45 30.5 76.5t75.5 31.5q35 0 63.5 -21.5t39.5 -54.5q11 33 38.5 54.5t63.5 21.5q44 0 76.5 -32t32.5 -76q0 -45 -32 -76t-77 -31 q-36 0 -63.5 19.5t-38.5 52.5q-10 -32 -39 -52t-64 -20q-46 0 -76 30.5t-30 76.5zM788 281q0 35 20 63t52 39q-33 11 -52.5 38.5t-19.5 63.5q0 35 20 64t52 39q-33 11 -52.5 38.5t-19.5 63.5q0 45 31 77t76 32q44 0 76.5 -32.5t32.5 -76.5q0 -36 -21.5 -63.5t-54.5 -38.5 q33 -11 54.5 -39.5t21.5 -63.5q0 -36 -21.5 -63.5t-54.5 -38.5q33 -11 54.5 -39t21.5 -63q0 -45 -32 -76t-77 -31q-46 0 -76.5 30.5t-30.5 76.5zM788 1509q0 45 31 77t76 32q44 0 76.5 -32.5t32.5 -76.5q0 -45 -32 -75.5t-77 -30.5q-46 0 -76.5 30t-30.5 76z" />
<glyph unicode="&#xd6;" d="M-31 281q0 35 20 63t52 39q-33 11 -52.5 38.5t-19.5 63.5q0 35 20 64t52 39q-33 11 -52.5 38.5t-19.5 63.5q0 45 31 77t76 32q44 0 76 -32.5t32 -76.5q0 -36 -21 -63.5t-54 -38.5q33 -11 54 -39.5t21 -63.5q0 -36 -21 -63.5t-54 -38.5q33 -11 54 -39t21 -63 q0 -45 -31.5 -76t-76.5 -31q-46 0 -76.5 30.5t-30.5 76.5zM-31 1305q0 35 20 63t52 39q-33 11 -52.5 38.5t-19.5 63.5q0 45 31 77t76 32q44 0 76 -32.5t32 -76.5q0 -36 -21 -63.5t-54 -38.5q33 -11 54 -39t21 -63q0 -45 -31.5 -76t-76.5 -31q-46 0 -76.5 30.5t-30.5 76.5z M174 76q0 45 31 76.5t76 31.5q35 0 63 -21t39 -54q11 33 38.5 54t63.5 21q35 0 63.5 -21t39.5 -54q11 33 38.5 54t63.5 21q44 0 76.5 -32t32.5 -76q0 -45 -32 -76t-77 -31q-36 0 -63.5 19.5t-38.5 52.5q-10 -32 -39 -52t-64 -20q-36 0 -63.5 19.5t-38.5 52.5 q-11 -32 -39 -52t-63 -20q-46 0 -76.5 30.5t-30.5 76.5zM174 895q0 45 31 77t76 32q35 0 63 -21.5t39 -54.5q11 33 38.5 54.5t63.5 21.5q35 0 63.5 -21.5t39.5 -54.5q11 33 38.5 54.5t63.5 21.5q44 0 76.5 -32.5t32.5 -76.5q0 -45 -32 -76t-77 -31q-36 0 -63.5 19.5 t-38.5 52.5q-10 -32 -39 -52t-64 -20q-36 0 -63.5 19.5t-38.5 52.5q-11 -32 -39 -52t-63 -20q-46 0 -76.5 30.5t-30.5 76.5zM788 281q0 35 20 63t52 39q-33 11 -52.5 38.5t-19.5 63.5q0 35 20 64t52 39q-33 11 -52.5 38.5t-19.5 63.5q0 45 31 77t76 32q44 0 76.5 -32.5 t32.5 -76.5q0 -36 -21.5 -63.5t-54.5 -38.5q33 -11 54.5 -39.5t21.5 -63.5q0 -36 -21.5 -63.5t-54.5 -38.5q33 -11 54.5 -39t21.5 -63q0 -45 -32 -76t-77 -31q-46 0 -76.5 30.5t-30.5 76.5zM788 1305q0 35 20 63t52 39q-33 11 -52.5 38.5t-19.5 63.5q0 45 31 77t76 32 q44 0 76.5 -32.5t32.5 -76.5q0 -36 -21.5 -63.5t-54.5 -38.5q33 -11 54.5 -39t21.5 -63q0 -45 -32 -76t-77 -31q-46 0 -76.5 30.5t-30.5 76.5z" />
<glyph unicode="&#xd7;" d="M-31 76q0 45 31 76.5t76 31.5q44 0 76 -32t32 -76q0 -45 -31.5 -76t-76.5 -31q-46 0 -76.5 30.5t-30.5 76.5zM-31 895q0 45 31 77t76 32q44 0 76 -32.5t32 -76.5q0 -45 -31.5 -76t-76.5 -31q-46 0 -76.5 30.5t-30.5 76.5zM174 281q0 45 31 76.5t76 31.5q44 0 76 -32 t32 -76q0 -45 -31.5 -76t-76.5 -31q-46 0 -76.5 30.5t-30.5 76.5zM174 690q0 45 31 77t76 32q44 0 76 -32.5t32 -76.5q0 -45 -31.5 -75.5t-76.5 -30.5q-46 0 -76.5 30t-30.5 76zM379 485q0 45 30.5 77t75.5 32q44 0 76.5 -32.5t32.5 -76.5q0 -45 -32 -75.5t-77 -30.5 q-46 0 -76 30t-30 76zM584 281q0 45 30.5 76.5t75.5 31.5q44 0 76.5 -32t32.5 -76q0 -45 -32 -76t-77 -31q-46 0 -76 30.5t-30 76.5zM584 690q0 45 30.5 77t75.5 32q44 0 76.5 -32.5t32.5 -76.5q0 -45 -32 -75.5t-77 -30.5q-46 0 -76 30t-30 76zM788 76q0 45 31 76.5 t76 31.5q44 0 76.5 -32t32.5 -76q0 -45 -32 -76t-77 -31q-46 0 -76.5 30.5t-30.5 76.5zM788 895q0 45 31 77t76 32q44 0 76.5 -32.5t32.5 -76.5q0 -45 -32 -76t-77 -31q-46 0 -76.5 30.5t-30.5 76.5z" />
<glyph unicode="&#xd8;" d="M-31 281q0 35 20 63t52 39q-33 11 -52.5 38.5t-19.5 63.5q0 35 20 64t52 39q-33 11 -52.5 38.5t-19.5 63.5q0 45 31 77t76 32q44 0 76 -32.5t32 -76.5q0 -36 -21 -63.5t-54 -38.5q33 -11 54 -39.5t21 -63.5q0 -36 -21 -63.5t-54 -38.5q33 -11 54 -39t21 -63 q0 -45 -31.5 -76t-76.5 -31q-46 0 -76.5 30.5t-30.5 76.5zM174 76q0 45 31 76.5t76 31.5q35 0 63 -21t39 -54q11 33 38.5 54t63.5 21q35 0 63.5 -21t39.5 -54q11 33 38.5 54t63.5 21q44 0 76.5 -32t32.5 -76q0 -45 -32 -76t-77 -31q-36 0 -63.5 19.5t-38.5 52.5 q-10 -32 -39 -52t-64 -20q-36 0 -63.5 19.5t-38.5 52.5q-11 -32 -39 -52t-63 -20q-46 0 -76.5 30.5t-30.5 76.5zM174 895q0 45 31 77t76 32q35 0 63 -21.5t39 -54.5q11 33 38.5 54.5t63.5 21.5q35 0 63.5 -21.5t39.5 -54.5q11 33 38.5 54.5t63.5 21.5q44 0 76.5 -32.5 t32.5 -76.5q0 -45 -32 -76t-77 -31q-36 0 -63.5 19.5t-38.5 52.5q-10 -32 -39 -52t-64 -20q-36 0 -63.5 19.5t-38.5 52.5q-11 -32 -39 -52t-63 -20q-46 0 -76.5 30.5t-30.5 76.5zM178 281q0 45 31 76.5t76 31.5q44 0 76 -32t32 -76q0 -45 -31.5 -76t-76.5 -31 q-46 0 -76.5 30.5t-30.5 76.5zM383 485q0 35 20 64t52 39q-33 11 -52.5 38.5t-19.5 63.5q0 35 20 64t52 39q-33 11 -52.5 38.5t-19.5 63.5q0 45 30.5 77t75.5 32q44 0 76.5 -32.5t32.5 -76.5q0 -36 -21.5 -63.5t-54.5 -38.5q33 -11 54.5 -39.5t21.5 -63.5q0 -36 -21.5 -63.5 t-54.5 -38.5q33 -11 54.5 -39.5t21.5 -63.5q0 -45 -32 -75.5t-77 -30.5q-46 0 -76 30t-30 76zM588 1100q0 45 30.5 76.5t75.5 31.5q44 0 76.5 -32t32.5 -76q0 -45 -32 -76t-77 -31q-46 0 -76 30.5t-30 76.5zM788 281q0 35 20 63t52 39q-33 11 -52.5 38.5t-19.5 63.5 q0 35 20 64t52 39q-33 11 -52.5 38.5t-19.5 63.5q0 45 31 77t76 32q44 0 76.5 -32.5t32.5 -76.5q0 -36 -21.5 -63.5t-54.5 -38.5q33 -11 54.5 -39.5t21.5 -63.5q0 -36 -21.5 -63.5t-54.5 -38.5q33 -11 54.5 -39t21.5 -63q0 -45 -32 -76t-77 -31q-46 0 -76.5 30.5t-30.5 76.5 z" />
<glyph unicode="&#xd9;" d="M-31 281q0 35 20 63t52 39q-33 11 -52.5 38.5t-19.5 63.5q0 35 20 64t52 39q-33 11 -52.5 38.5t-19.5 63.5q0 35 20 64t52 39q-33 11 -52.5 38.5t-19.5 63.5q0 45 31 77t76 32q44 0 76 -32.5t32 -76.5q0 -36 -21 -63.5t-54 -38.5q33 -11 54 -39.5t21 -63.5 q0 -36 -21 -63.5t-54 -38.5q33 -11 54 -39.5t21 -63.5q0 -36 -21 -63.5t-54 -38.5q33 -11 54 -39t21 -63q0 -45 -31.5 -76t-76.5 -31q-46 0 -76.5 30.5t-30.5 76.5zM174 76q0 45 31 76.5t76 31.5q35 0 63 -21t39 -54q11 33 38.5 54t63.5 21q35 0 63.5 -21t39.5 -54 q11 33 38.5 54t63.5 21q44 0 76.5 -32t32.5 -76q0 -45 -32 -76t-77 -31q-36 0 -63.5 19.5t-38.5 52.5q-10 -32 -39 -52t-64 -20q-36 0 -63.5 19.5t-38.5 52.5q-11 -32 -39 -52t-63 -20q-46 0 -76.5 30.5t-30.5 76.5zM174 1509q0 45 31 77t76 32q44 0 76 -32.5t32 -76.5 q0 -45 -31.5 -75.5t-76.5 -30.5q-46 0 -76.5 30t-30.5 76zM379 1305q0 45 30.5 76.5t75.5 31.5q35 0 63.5 -21.5t39.5 -54.5q11 33 38.5 54.5t63.5 21.5q44 0 76.5 -32t32.5 -76q0 -45 -32 -76t-77 -31q-36 0 -63.5 19.5t-38.5 52.5q-10 -32 -39 -52t-64 -20q-46 0 -76 30.5 t-30 76.5zM788 281q0 35 20 63t52 39q-33 11 -52.5 38.5t-19.5 63.5q0 35 20 64t52 39q-33 11 -52.5 38.5t-19.5 63.5q0 35 20 64t52 39q-33 11 -52.5 38.5t-19.5 63.5q0 45 31 77t76 32q44 0 76.5 -32.5t32.5 -76.5q0 -36 -21.5 -63.5t-54.5 -38.5q33 -11 54.5 -39.5 t21.5 -63.5q0 -36 -21.5 -63.5t-54.5 -38.5q33 -11 54.5 -39.5t21.5 -63.5q0 -36 -21.5 -63.5t-54.5 -38.5q33 -11 54.5 -39t21.5 -63q0 -45 -32 -76t-77 -31q-46 0 -76.5 30.5t-30.5 76.5z" />
<glyph unicode="&#xda;" d="M-31 281q0 35 20 63t52 39q-33 11 -52.5 38.5t-19.5 63.5q0 35 20 64t52 39q-33 11 -52.5 38.5t-19.5 63.5q0 35 20 64t52 39q-33 11 -52.5 38.5t-19.5 63.5q0 45 31 77t76 32q44 0 76 -32.5t32 -76.5q0 -36 -21 -63.5t-54 -38.5q33 -11 54 -39.5t21 -63.5 q0 -36 -21 -63.5t-54 -38.5q33 -11 54 -39.5t21 -63.5q0 -36 -21 -63.5t-54 -38.5q33 -11 54 -39t21 -63q0 -45 -31.5 -76t-76.5 -31q-46 0 -76.5 30.5t-30.5 76.5zM174 76q0 45 31 76.5t76 31.5q35 0 63 -21t39 -54q11 33 38.5 54t63.5 21q35 0 63.5 -21t39.5 -54 q11 33 38.5 54t63.5 21q44 0 76.5 -32t32.5 -76q0 -45 -32 -76t-77 -31q-36 0 -63.5 19.5t-38.5 52.5q-10 -32 -39 -52t-64 -20q-36 0 -63.5 19.5t-38.5 52.5q-11 -32 -39 -52t-63 -20q-46 0 -76.5 30.5t-30.5 76.5zM174 1305q0 45 31 76.5t76 31.5q35 0 63 -21.5t39 -54.5 q11 33 38.5 54.5t63.5 21.5q44 0 76.5 -32t32.5 -76q0 -45 -32 -76t-77 -31q-36 0 -63.5 19.5t-38.5 52.5q-11 -32 -39 -52t-63 -20q-46 0 -76.5 30.5t-30.5 76.5zM584 1509q0 45 30.5 77t75.5 32q44 0 76.5 -32.5t32.5 -76.5q0 -45 -32 -75.5t-77 -30.5q-46 0 -76 30 t-30 76zM788 281q0 35 20 63t52 39q-33 11 -52.5 38.5t-19.5 63.5q0 35 20 64t52 39q-33 11 -52.5 38.5t-19.5 63.5q0 35 20 64t52 39q-33 11 -52.5 38.5t-19.5 63.5q0 45 31 77t76 32q44 0 76.5 -32.5t32.5 -76.5q0 -36 -21.5 -63.5t-54.5 -38.5q33 -11 54.5 -39.5 t21.5 -63.5q0 -36 -21.5 -63.5t-54.5 -38.5q33 -11 54.5 -39.5t21.5 -63.5q0 -36 -21.5 -63.5t-54.5 -38.5q33 -11 54.5 -39t21.5 -63q0 -45 -32 -76t-77 -31q-46 0 -76.5 30.5t-30.5 76.5z" />
<glyph unicode="&#xdb;" d="M-31 281q0 35 20 63t52 39q-33 11 -52.5 38.5t-19.5 63.5q0 35 20 64t52 39q-33 11 -52.5 38.5t-19.5 63.5q0 35 20 64t52 39q-33 11 -52.5 38.5t-19.5 63.5q0 45 31 77t76 32q44 0 76 -32.5t32 -76.5q0 -36 -21 -63.5t-54 -38.5q33 -11 54 -39.5t21 -63.5 q0 -36 -21 -63.5t-54 -38.5q33 -11 54 -39.5t21 -63.5q0 -36 -21 -63.5t-54 -38.5q33 -11 54 -39t21 -63q0 -45 -31.5 -76t-76.5 -31q-46 0 -76.5 30.5t-30.5 76.5zM174 76q0 45 31 76.5t76 31.5q35 0 63 -21t39 -54q11 33 38.5 54t63.5 21q35 0 63.5 -21t39.5 -54 q11 33 38.5 54t63.5 21q44 0 76.5 -32t32.5 -76q0 -45 -32 -76t-77 -31q-36 0 -63.5 19.5t-38.5 52.5q-10 -32 -39 -52t-64 -20q-36 0 -63.5 19.5t-38.5 52.5q-11 -32 -39 -52t-63 -20q-46 0 -76.5 30.5t-30.5 76.5zM174 1305q0 45 31 76.5t76 31.5q44 0 76 -32t32 -76 q0 -45 -31.5 -76t-76.5 -31q-46 0 -76.5 30.5t-30.5 76.5zM379 1509q0 45 30.5 77t75.5 32q44 0 76.5 -32.5t32.5 -76.5q0 -45 -32 -75.5t-77 -30.5q-46 0 -76 30t-30 76zM584 1305q0 45 30.5 76.5t75.5 31.5q44 0 76.5 -32t32.5 -76q0 -45 -32 -76t-77 -31q-46 0 -76 30.5 t-30 76.5zM788 281q0 35 20 63t52 39q-33 11 -52.5 38.5t-19.5 63.5q0 35 20 64t52 39q-33 11 -52.5 38.5t-19.5 63.5q0 35 20 64t52 39q-33 11 -52.5 38.5t-19.5 63.5q0 45 31 77t76 32q44 0 76.5 -32.5t32.5 -76.5q0 -36 -21.5 -63.5t-54.5 -38.5q33 -11 54.5 -39.5 t21.5 -63.5q0 -36 -21.5 -63.5t-54.5 -38.5q33 -11 54.5 -39.5t21.5 -63.5q0 -36 -21.5 -63.5t-54.5 -38.5q33 -11 54.5 -39t21.5 -63q0 -45 -32 -76t-77 -31q-46 0 -76.5 30.5t-30.5 76.5z" />
<glyph unicode="&#xdc;" d="M-31 281q0 35 20 63t52 39q-33 11 -52.5 38.5t-19.5 63.5q0 35 20 64t52 39q-33 11 -52.5 38.5t-19.5 63.5q0 35 20 64t52 39q-33 11 -52.5 38.5t-19.5 63.5q0 45 31 77t76 32q44 0 76 -32.5t32 -76.5q0 -36 -21 -63.5t-54 -38.5q33 -11 54 -39.5t21 -63.5 q0 -36 -21 -63.5t-54 -38.5q33 -11 54 -39.5t21 -63.5q0 -36 -21 -63.5t-54 -38.5q33 -11 54 -39t21 -63q0 -45 -31.5 -76t-76.5 -31q-46 0 -76.5 30.5t-30.5 76.5zM-31 1305q0 35 20 63t52 39q-33 11 -52.5 38.5t-19.5 63.5q0 45 31 77t76 32q44 0 76 -32.5t32 -76.5 q0 -36 -21 -63.5t-54 -38.5q33 -11 54 -39t21 -63q0 -45 -31.5 -76t-76.5 -31q-46 0 -76.5 30.5t-30.5 76.5zM174 76q0 45 31 76.5t76 31.5q35 0 63 -21t39 -54q11 33 38.5 54t63.5 21q35 0 63.5 -21t39.5 -54q11 33 38.5 54t63.5 21q44 0 76.5 -32t32.5 -76q0 -45 -32 -76 t-77 -31q-36 0 -63.5 19.5t-38.5 52.5q-10 -32 -39 -52t-64 -20q-36 0 -63.5 19.5t-38.5 52.5q-11 -32 -39 -52t-63 -20q-46 0 -76.5 30.5t-30.5 76.5zM788 281q0 35 20 63t52 39q-33 11 -52.5 38.5t-19.5 63.5q0 35 20 64t52 39q-33 11 -52.5 38.5t-19.5 63.5q0 35 20 64 t52 39q-33 11 -52.5 38.5t-19.5 63.5q0 45 31 77t76 32q44 0 76.5 -32.5t32.5 -76.5q0 -36 -21.5 -63.5t-54.5 -38.5q33 -11 54.5 -39.5t21.5 -63.5q0 -36 -21.5 -63.5t-54.5 -38.5q33 -11 54.5 -39.5t21.5 -63.5q0 -36 -21.5 -63.5t-54.5 -38.5q33 -11 54.5 -39t21.5 -63 q0 -45 -32 -76t-77 -31q-46 0 -76.5 30.5t-30.5 76.5zM788 1305q0 35 20 63t52 39q-33 11 -52.5 38.5t-19.5 63.5q0 45 31 77t76 32q44 0 76.5 -32.5t32.5 -76.5q0 -36 -21.5 -63.5t-54.5 -38.5q33 -11 54.5 -39t21.5 -63q0 -45 -32 -76t-77 -31q-46 0 -76.5 30.5 t-30.5 76.5z" />
<glyph unicode="&#xdd;" d="M-31 690q0 35 20 64t52 39q-33 11 -52.5 38.5t-19.5 63.5q0 45 31 77t76 32q44 0 76 -32.5t32 -76.5q0 -36 -21 -63.5t-54 -38.5q33 -11 54 -39.5t21 -63.5q0 -45 -31.5 -75.5t-76.5 -30.5q-46 0 -76.5 30t-30.5 76zM174 485q0 45 31 77t76 32q44 0 76 -32.5t32 -76.5 q0 -45 -31.5 -75.5t-76.5 -30.5q-46 0 -76.5 30t-30.5 76zM174 1305q0 45 31 76.5t76 31.5q35 0 63 -21.5t39 -54.5q11 33 38.5 54.5t63.5 21.5q44 0 76.5 -32t32.5 -76q0 -45 -32 -76t-77 -31q-36 0 -63.5 19.5t-38.5 52.5q-11 -32 -39 -52t-63 -20q-46 0 -76.5 30.5 t-30.5 76.5zM379 76q0 35 20 63t52 39q-32 11 -52 39t-20 64q0 45 30.5 76.5t75.5 31.5q44 0 76.5 -32t32.5 -76q0 -36 -21.5 -64t-54.5 -39q33 -11 54.5 -39t21.5 -63q0 -45 -32 -76t-77 -31q-46 0 -76 30.5t-30 76.5zM584 485q0 45 30.5 77t75.5 32q44 0 76.5 -32.5 t32.5 -76.5q0 -45 -32 -75.5t-77 -30.5q-46 0 -76 30t-30 76zM584 1509q0 45 30.5 77t75.5 32q44 0 76.5 -32.5t32.5 -76.5q0 -45 -32 -75.5t-77 -30.5q-46 0 -76 30t-30 76zM788 690q0 35 20 64t52 39q-33 11 -52.5 38.5t-19.5 63.5q0 45 31 77t76 32q44 0 76.5 -32.5 t32.5 -76.5q0 -36 -21.5 -63.5t-54.5 -38.5q33 -11 54.5 -39.5t21.5 -63.5q0 -45 -32 -75.5t-77 -30.5q-46 0 -76.5 30t-30.5 76z" />
<glyph unicode="&#xde;" d="M-31 76q0 35 20 63t52 39q-32 11 -52 39t-20 64q0 35 20 63t52 39q-33 11 -52.5 38.5t-19.5 63.5q0 35 20 64t52 39q-33 11 -52.5 38.5t-19.5 63.5q0 35 20 64t52 39q-33 11 -52.5 38.5t-19.5 63.5q0 45 31 77t76 32q44 0 76 -32.5t32 -76.5q0 -36 -21 -63.5t-54 -38.5 q25 -7 43 -26t26 -44q11 33 39 54.5t64 21.5q35 0 63 -21.5t39 -54.5q11 33 38.5 54.5t63.5 21.5q35 0 63.5 -21.5t39.5 -54.5q11 33 38.5 54.5t63.5 21.5q44 0 76.5 -32.5t32.5 -76.5q0 -45 -32 -75.5t-77 -30.5q-37 0 -64 19.5t-38 51.5q-10 -32 -39 -51.5t-64 -19.5 q-37 0 -64 19.5t-38 51.5q-10 -32 -38.5 -51.5t-63.5 -19.5q-37 0 -64.5 19.5t-38.5 51.5q-15 -51 -69 -67q33 -11 54 -39.5t21 -63.5q0 -36 -21 -63.5t-54 -38.5q25 -7 43 -26t26 -44q11 33 39 54.5t64 21.5q35 0 63 -21.5t39 -54.5q11 33 38.5 54.5t63.5 21.5 q35 0 63.5 -21.5t39.5 -54.5q11 33 38.5 54.5t63.5 21.5q44 0 76.5 -32t32.5 -76q0 -45 -32 -76t-77 -31q-36 0 -63.5 19.5t-38.5 52.5q-10 -32 -39 -52t-64 -20q-36 0 -63.5 19.5t-38.5 52.5q-11 -32 -39 -52t-63 -20q-36 0 -64 20t-39 52q-16 -52 -69 -68q33 -11 54 -39 t21 -63q0 -45 -31.5 -76t-76.5 -31q-46 0 -76.5 30.5t-30.5 76.5zM788 485q0 45 31 77t76 32q44 0 76.5 -32.5t32.5 -76.5q0 -45 -32 -75.5t-77 -30.5q-46 0 -76.5 30t-30.5 76z" />
<glyph unicode="&#xdf;" d="M-31 76q0 35 20 63t52 39q-32 11 -52 39t-20 64q0 35 20 63t52 39q-33 11 -52.5 38.5t-19.5 63.5q0 35 20 64t52 39q-33 11 -52.5 38.5t-19.5 63.5q0 45 31 77t76 32q44 0 76 -32.5t32 -76.5q0 -36 -21 -63.5t-54 -38.5q33 -11 54 -39.5t21 -63.5q0 -36 -21 -63.5 t-54 -38.5q33 -11 54 -39t21 -63q0 -36 -21 -64t-54 -39q33 -11 54 -39t21 -63q0 -45 -31.5 -76t-76.5 -31q-46 0 -76.5 30.5t-30.5 76.5zM174 895q0 45 31 77t76 32q35 0 63 -21.5t39 -54.5q11 33 38.5 54.5t63.5 21.5q44 0 76.5 -32.5t32.5 -76.5q0 -45 -32 -76t-77 -31 q-36 0 -63.5 19.5t-38.5 52.5q-11 -32 -39 -52t-63 -20q-46 0 -76.5 30.5t-30.5 76.5zM379 76q0 45 30.5 76.5t75.5 31.5q44 0 76.5 -32t32.5 -76q0 -45 -32 -76t-77 -31q-46 0 -76 30.5t-30 76.5zM379 485q0 45 30.5 77t75.5 32q44 0 76.5 -32.5t32.5 -76.5 q0 -45 -32 -75.5t-77 -30.5q-46 0 -76 30t-30 76zM584 281q0 45 30.5 76.5t75.5 31.5q44 0 76.5 -32t32.5 -76q0 -45 -32 -76t-77 -31q-46 0 -76 30.5t-30 76.5zM584 690q0 45 30.5 77t75.5 32q44 0 76.5 -32.5t32.5 -76.5q0 -45 -32 -75.5t-77 -30.5q-46 0 -76 30t-30 76z " />
<glyph unicode="&#xe0;" d="M-31 281q0 45 31 76.5t76 31.5q44 0 76 -32t32 -76q0 -45 -31.5 -76t-76.5 -31q-46 0 -76.5 30.5t-30.5 76.5zM174 76q0 45 31 76.5t76 31.5q35 0 63 -21t39 -54q11 33 38.5 54t63.5 21q35 0 63.5 -21t39.5 -54q11 33 38.5 54t63.5 21q35 0 63.5 -21t39.5 -54 q16 54 67 69q-32 11 -52 39t-20 64q0 35 20 63t52 39q-51 15 -67 68q-10 -32 -39 -52t-64 -20q-36 0 -63.5 19.5t-38.5 52.5q-10 -32 -39 -52t-64 -20q-36 0 -63.5 19.5t-38.5 52.5q-11 -32 -39 -52t-63 -20q-46 0 -76.5 30t-30.5 76q0 45 31 77t76 32q35 0 63 -21.5 t39 -54.5q11 33 38.5 54.5t63.5 21.5q35 0 63.5 -21.5t39.5 -54.5q11 33 38.5 54.5t63.5 21.5q35 0 63.5 -21.5t39.5 -54.5q17 55 67 70q-33 11 -52.5 38.5t-19.5 63.5q0 45 31 77t76 32q44 0 76.5 -32.5t32.5 -76.5q0 -36 -21.5 -63.5t-54.5 -38.5q33 -11 54.5 -39.5 t21.5 -63.5q0 -36 -21.5 -63.5t-54.5 -38.5q33 -11 54.5 -39t21.5 -63q0 -36 -21.5 -64t-54.5 -39q33 -11 54.5 -39t21.5 -63q0 -45 -32 -76t-77 -31q-36 0 -63.5 19.5t-38.5 52.5q-10 -32 -39 -52t-64 -20q-36 0 -63.5 19.5t-38.5 52.5q-10 -32 -39 -52t-64 -20 q-36 0 -63.5 19.5t-38.5 52.5q-11 -32 -39 -52t-63 -20q-46 0 -76.5 30.5t-30.5 76.5zM174 895q0 45 31 77t76 32q35 0 63 -21.5t39 -54.5q11 33 38.5 54.5t63.5 21.5q35 0 63.5 -21.5t39.5 -54.5q11 33 38.5 54.5t63.5 21.5q44 0 76.5 -32.5t32.5 -76.5q0 -45 -32 -76 t-77 -31q-36 0 -63.5 19.5t-38.5 52.5q-10 -32 -39 -52t-64 -20q-36 0 -63.5 19.5t-38.5 52.5q-11 -32 -39 -52t-63 -20q-46 0 -76.5 30.5t-30.5 76.5zM174 1509q0 45 31 77t76 32q44 0 76 -32.5t32 -76.5q0 -45 -31.5 -75.5t-76.5 -30.5q-46 0 -76.5 30t-30.5 76zM379 1305 q0 45 30.5 76.5t75.5 31.5q35 0 63.5 -21.5t39.5 -54.5q11 33 38.5 54.5t63.5 21.5q44 0 76.5 -32t32.5 -76q0 -45 -32 -76t-77 -31q-36 0 -63.5 19.5t-38.5 52.5q-10 -32 -39 -52t-64 -20q-46 0 -76 30.5t-30 76.5z" />
<glyph unicode="&#xe1;" d="M-31 281q0 45 31 76.5t76 31.5q44 0 76 -32t32 -76q0 -45 -31.5 -76t-76.5 -31q-46 0 -76.5 30.5t-30.5 76.5zM174 76q0 45 31 76.5t76 31.5q35 0 63 -21t39 -54q11 33 38.5 54t63.5 21q35 0 63.5 -21t39.5 -54q11 33 38.5 54t63.5 21q35 0 63.5 -21t39.5 -54 q16 54 67 69q-32 11 -52 39t-20 64q0 35 20 63t52 39q-51 15 -67 68q-10 -32 -39 -52t-64 -20q-36 0 -63.5 19.5t-38.5 52.5q-10 -32 -39 -52t-64 -20q-36 0 -63.5 19.5t-38.5 52.5q-11 -32 -39 -52t-63 -20q-46 0 -76.5 30t-30.5 76q0 45 31 77t76 32q35 0 63 -21.5 t39 -54.5q11 33 38.5 54.5t63.5 21.5q35 0 63.5 -21.5t39.5 -54.5q11 33 38.5 54.5t63.5 21.5q35 0 63.5 -21.5t39.5 -54.5q17 55 67 70q-33 11 -52.5 38.5t-19.5 63.5q0 45 31 77t76 32q44 0 76.5 -32.5t32.5 -76.5q0 -36 -21.5 -63.5t-54.5 -38.5q33 -11 54.5 -39.5 t21.5 -63.5q0 -36 -21.5 -63.5t-54.5 -38.5q33 -11 54.5 -39t21.5 -63q0 -36 -21.5 -64t-54.5 -39q33 -11 54.5 -39t21.5 -63q0 -45 -32 -76t-77 -31q-36 0 -63.5 19.5t-38.5 52.5q-10 -32 -39 -52t-64 -20q-36 0 -63.5 19.5t-38.5 52.5q-10 -32 -39 -52t-64 -20 q-36 0 -63.5 19.5t-38.5 52.5q-11 -32 -39 -52t-63 -20q-46 0 -76.5 30.5t-30.5 76.5zM174 895q0 45 31 77t76 32q35 0 63 -21.5t39 -54.5q11 33 38.5 54.5t63.5 21.5q35 0 63.5 -21.5t39.5 -54.5q11 33 38.5 54.5t63.5 21.5q44 0 76.5 -32.5t32.5 -76.5q0 -45 -32 -76 t-77 -31q-36 0 -63.5 19.5t-38.5 52.5q-10 -32 -39 -52t-64 -20q-36 0 -63.5 19.5t-38.5 52.5q-11 -32 -39 -52t-63 -20q-46 0 -76.5 30.5t-30.5 76.5zM174 1305q0 45 31 76.5t76 31.5q35 0 63 -21.5t39 -54.5q11 33 38.5 54.5t63.5 21.5q44 0 76.5 -32t32.5 -76 q0 -45 -32 -76t-77 -31q-36 0 -63.5 19.5t-38.5 52.5q-11 -32 -39 -52t-63 -20q-46 0 -76.5 30.5t-30.5 76.5zM584 1509q0 45 30.5 77t75.5 32q44 0 76.5 -32.5t32.5 -76.5q0 -45 -32 -75.5t-77 -30.5q-46 0 -76 30t-30 76z" />
<glyph unicode="&#xe2;" d="M-31 281q0 45 31 76.5t76 31.5q44 0 76 -32t32 -76q0 -45 -31.5 -76t-76.5 -31q-46 0 -76.5 30.5t-30.5 76.5zM174 76q0 45 31 76.5t76 31.5q35 0 63 -21t39 -54q11 33 38.5 54t63.5 21q35 0 63.5 -21t39.5 -54q11 33 38.5 54t63.5 21q35 0 63.5 -21t39.5 -54 q16 54 67 69q-32 11 -52 39t-20 64q0 35 20 63t52 39q-51 15 -67 68q-10 -32 -39 -52t-64 -20q-36 0 -63.5 19.5t-38.5 52.5q-10 -32 -39 -52t-64 -20q-36 0 -63.5 19.5t-38.5 52.5q-11 -32 -39 -52t-63 -20q-46 0 -76.5 30t-30.5 76q0 45 31 77t76 32q35 0 63 -21.5 t39 -54.5q11 33 38.5 54.5t63.5 21.5q35 0 63.5 -21.5t39.5 -54.5q11 33 38.5 54.5t63.5 21.5q35 0 63.5 -21.5t39.5 -54.5q17 55 67 70q-33 11 -52.5 38.5t-19.5 63.5q0 45 31 77t76 32q44 0 76.5 -32.5t32.5 -76.5q0 -36 -21.5 -63.5t-54.5 -38.5q33 -11 54.5 -39.5 t21.5 -63.5q0 -36 -21.5 -63.5t-54.5 -38.5q33 -11 54.5 -39t21.5 -63q0 -36 -21.5 -64t-54.5 -39q33 -11 54.5 -39t21.5 -63q0 -45 -32 -76t-77 -31q-36 0 -63.5 19.5t-38.5 52.5q-10 -32 -39 -52t-64 -20q-36 0 -63.5 19.5t-38.5 52.5q-10 -32 -39 -52t-64 -20 q-36 0 -63.5 19.5t-38.5 52.5q-11 -32 -39 -52t-63 -20q-46 0 -76.5 30.5t-30.5 76.5zM174 895q0 45 31 77t76 32q35 0 63 -21.5t39 -54.5q11 33 38.5 54.5t63.5 21.5q35 0 63.5 -21.5t39.5 -54.5q11 33 38.5 54.5t63.5 21.5q44 0 76.5 -32.5t32.5 -76.5q0 -45 -32 -76 t-77 -31q-36 0 -63.5 19.5t-38.5 52.5q-10 -32 -39 -52t-64 -20q-36 0 -63.5 19.5t-38.5 52.5q-11 -32 -39 -52t-63 -20q-46 0 -76.5 30.5t-30.5 76.5z" />
<glyph unicode="&#xe3;" d="M-31 281q0 45 31 76.5t76 31.5q44 0 76 -32t32 -76q0 -45 -31.5 -76t-76.5 -31q-46 0 -76.5 30.5t-30.5 76.5zM-31 1305q0 45 31 76.5t76 31.5q44 0 76 -32t32 -76q0 -45 -31.5 -76t-76.5 -31q-46 0 -76.5 30.5t-30.5 76.5zM174 76q0 45 31 76.5t76 31.5q35 0 63 -21 t39 -54q11 33 38.5 54t63.5 21q35 0 63.5 -21t39.5 -54q11 33 38.5 54t63.5 21q35 0 63.5 -21t39.5 -54q16 54 67 69q-32 11 -52 39t-20 64q0 35 20 63t52 39q-51 15 -67 68q-10 -32 -39 -52t-64 -20q-36 0 -63.5 19.5t-38.5 52.5q-10 -32 -39 -52t-64 -20q-36 0 -63.5 19.5 t-38.5 52.5q-11 -32 -39 -52t-63 -20q-46 0 -76.5 30t-30.5 76q0 45 31 77t76 32q35 0 63 -21.5t39 -54.5q11 33 38.5 54.5t63.5 21.5q35 0 63.5 -21.5t39.5 -54.5q11 33 38.5 54.5t63.5 21.5q35 0 63.5 -21.5t39.5 -54.5q17 55 67 70q-33 11 -52.5 38.5t-19.5 63.5 q0 45 31 77t76 32q44 0 76.5 -32.5t32.5 -76.5q0 -36 -21.5 -63.5t-54.5 -38.5q33 -11 54.5 -39.5t21.5 -63.5q0 -36 -21.5 -63.5t-54.5 -38.5q33 -11 54.5 -39t21.5 -63q0 -36 -21.5 -64t-54.5 -39q33 -11 54.5 -39t21.5 -63q0 -45 -32 -76t-77 -31q-36 0 -63.5 19.5 t-38.5 52.5q-10 -32 -39 -52t-64 -20q-36 0 -63.5 19.5t-38.5 52.5q-10 -32 -39 -52t-64 -20q-36 0 -63.5 19.5t-38.5 52.5q-11 -32 -39 -52t-63 -20q-46 0 -76.5 30.5t-30.5 76.5zM174 895q0 45 31 77t76 32q35 0 63 -21.5t39 -54.5q11 33 38.5 54.5t63.5 21.5 q35 0 63.5 -21.5t39.5 -54.5q11 33 38.5 54.5t63.5 21.5q44 0 76.5 -32.5t32.5 -76.5q0 -45 -32 -76t-77 -31q-36 0 -63.5 19.5t-38.5 52.5q-10 -32 -39 -52t-64 -20q-36 0 -63.5 19.5t-38.5 52.5q-11 -32 -39 -52t-63 -20q-46 0 -76.5 30.5t-30.5 76.5zM174 1509 q0 45 31 77t76 32q44 0 76 -32.5t32 -76.5q0 -45 -31.5 -75.5t-76.5 -30.5q-46 0 -76.5 30t-30.5 76zM379 1305q0 45 30.5 76.5t75.5 31.5q35 0 63.5 -21.5t39.5 -54.5q11 33 38.5 54.5t63.5 21.5q44 0 76.5 -32t32.5 -76q0 -45 -32 -76t-77 -31q-36 0 -63.5 19.5 t-38.5 52.5q-10 -32 -39 -52t-64 -20q-46 0 -76 30.5t-30 76.5zM788 1509q0 45 31 77t76 32q44 0 76.5 -32.5t32.5 -76.5q0 -45 -32 -75.5t-77 -30.5q-46 0 -76.5 30t-30.5 76z" />
<glyph unicode="&#xe4;" d="M-31 281q0 45 31 76.5t76 31.5q44 0 76 -32t32 -76q0 -45 -31.5 -76t-76.5 -31q-46 0 -76.5 30.5t-30.5 76.5zM-31 1305q0 35 20 63t52 39q-33 11 -52.5 38.5t-19.5 63.5q0 45 31 77t76 32q44 0 76 -32.5t32 -76.5q0 -36 -21 -63.5t-54 -38.5q33 -11 54 -39t21 -63 q0 -45 -31.5 -76t-76.5 -31q-46 0 -76.5 30.5t-30.5 76.5zM174 76q0 45 31 76.5t76 31.5q35 0 63 -21t39 -54q11 33 38.5 54t63.5 21q35 0 63.5 -21t39.5 -54q11 33 38.5 54t63.5 21q35 0 63.5 -21t39.5 -54q16 54 67 69q-32 11 -52 39t-20 64q0 35 20 63t52 39 q-51 15 -67 68q-10 -32 -39 -52t-64 -20q-36 0 -63.5 19.5t-38.5 52.5q-10 -32 -39 -52t-64 -20q-36 0 -63.5 19.5t-38.5 52.5q-11 -32 -39 -52t-63 -20q-46 0 -76.5 30t-30.5 76q0 45 31 77t76 32q35 0 63 -21.5t39 -54.5q11 33 38.5 54.5t63.5 21.5q35 0 63.5 -21.5 t39.5 -54.5q11 33 38.5 54.5t63.5 21.5q35 0 63.5 -21.5t39.5 -54.5q17 55 67 70q-33 11 -52.5 38.5t-19.5 63.5q0 45 31 77t76 32q44 0 76.5 -32.5t32.5 -76.5q0 -36 -21.5 -63.5t-54.5 -38.5q33 -11 54.5 -39.5t21.5 -63.5q0 -36 -21.5 -63.5t-54.5 -38.5q33 -11 54.5 -39 t21.5 -63q0 -36 -21.5 -64t-54.5 -39q33 -11 54.5 -39t21.5 -63q0 -45 -32 -76t-77 -31q-36 0 -63.5 19.5t-38.5 52.5q-10 -32 -39 -52t-64 -20q-36 0 -63.5 19.5t-38.5 52.5q-10 -32 -39 -52t-64 -20q-36 0 -63.5 19.5t-38.5 52.5q-11 -32 -39 -52t-63 -20 q-46 0 -76.5 30.5t-30.5 76.5zM174 895q0 45 31 77t76 32q35 0 63 -21.5t39 -54.5q11 33 38.5 54.5t63.5 21.5q35 0 63.5 -21.5t39.5 -54.5q11 33 38.5 54.5t63.5 21.5q44 0 76.5 -32.5t32.5 -76.5q0 -45 -32 -76t-77 -31q-36 0 -63.5 19.5t-38.5 52.5q-10 -32 -39 -52 t-64 -20q-36 0 -63.5 19.5t-38.5 52.5q-11 -32 -39 -52t-63 -20q-46 0 -76.5 30.5t-30.5 76.5zM788 1305q0 35 20 63t52 39q-33 11 -52.5 38.5t-19.5 63.5q0 45 31 77t76 32q44 0 76.5 -32.5t32.5 -76.5q0 -36 -21.5 -63.5t-54.5 -38.5q33 -11 54.5 -39t21.5 -63 q0 -45 -32 -76t-77 -31q-46 0 -76.5 30.5t-30.5 76.5z" />
<glyph unicode="&#xe5;" d="M-31 281q0 45 31 76.5t76 31.5q44 0 76 -32t32 -76q0 -45 -31.5 -76t-76.5 -31q-46 0 -76.5 30.5t-30.5 76.5zM174 76q0 45 31 76.5t76 31.5q35 0 63 -21t39 -54q11 33 38.5 54t63.5 21q35 0 63.5 -21t39.5 -54q11 33 38.5 54t63.5 21q35 0 63.5 -21t39.5 -54 q16 54 67 69q-32 11 -52 39t-20 64q0 35 20 63t52 39q-51 15 -67 68q-10 -32 -39 -52t-64 -20q-36 0 -63.5 19.5t-38.5 52.5q-10 -32 -39 -52t-64 -20q-36 0 -63.5 19.5t-38.5 52.5q-11 -32 -39 -52t-63 -20q-46 0 -76.5 30t-30.5 76q0 45 31 77t76 32q35 0 63 -21.5 t39 -54.5q11 33 38.5 54.5t63.5 21.5q35 0 63.5 -21.5t39.5 -54.5q11 33 38.5 54.5t63.5 21.5q35 0 63.5 -21.5t39.5 -54.5q17 55 67 70q-33 11 -52.5 38.5t-19.5 63.5q0 45 31 77t76 32q44 0 76.5 -32.5t32.5 -76.5q0 -36 -21.5 -63.5t-54.5 -38.5q33 -11 54.5 -39.5 t21.5 -63.5q0 -36 -21.5 -63.5t-54.5 -38.5q33 -11 54.5 -39t21.5 -63q0 -36 -21.5 -64t-54.5 -39q33 -11 54.5 -39t21.5 -63q0 -45 -32 -76t-77 -31q-36 0 -63.5 19.5t-38.5 52.5q-10 -32 -39 -52t-64 -20q-36 0 -63.5 19.5t-38.5 52.5q-10 -32 -39 -52t-64 -20 q-36 0 -63.5 19.5t-38.5 52.5q-11 -32 -39 -52t-63 -20q-46 0 -76.5 30.5t-30.5 76.5zM174 895q0 45 31 77t76 32q35 0 63 -21.5t39 -54.5q11 33 38.5 54.5t63.5 21.5q35 0 63.5 -21.5t39.5 -54.5q11 33 38.5 54.5t63.5 21.5q44 0 76.5 -32.5t32.5 -76.5q0 -45 -32 -76 t-77 -31q-36 0 -63.5 19.5t-38.5 52.5q-10 -32 -39 -52t-64 -20q-36 0 -63.5 19.5t-38.5 52.5q-11 -32 -39 -52t-63 -20q-46 0 -76.5 30.5t-30.5 76.5zM174 1509q0 45 31 77t76 32q44 0 76 -32.5t32 -76.5q0 -45 -31.5 -75.5t-76.5 -30.5q-46 0 -76.5 30t-30.5 76zM379 1305 q0 45 30.5 76.5t75.5 31.5q44 0 76.5 -32t32.5 -76q0 -45 -32 -76t-77 -31q-46 0 -76 30.5t-30 76.5zM379 1714q0 45 30.5 77t75.5 32q44 0 76.5 -32.5t32.5 -76.5q0 -45 -32 -75.5t-77 -30.5q-46 0 -76 30t-30 76zM584 1509q0 45 30.5 77t75.5 32q44 0 76.5 -32.5 t32.5 -76.5q0 -45 -32 -75.5t-77 -30.5q-46 0 -76 30t-30 76z" />
<glyph unicode="&#xe6;" d="M-31 281q0 45 31 76.5t76 31.5q44 0 76 -32t32 -76q0 -45 -31.5 -76t-76.5 -31q-46 0 -76.5 30.5t-30.5 76.5zM174 76q0 45 31 76.5t76 31.5q35 0 63 -21t39 -54q16 53 68 69q-32 11 -52 39t-20 64q0 35 20 63t52 39q-52 16 -68 68q-11 -32 -39 -52t-63 -20 q-46 0 -76.5 30t-30.5 76q0 45 31 77t76 32q35 0 63 -21.5t39 -54.5q16 54 68 70q-33 11 -52.5 38.5t-19.5 63.5q0 45 30.5 77t75.5 32q44 0 76.5 -32.5t32.5 -76.5q0 -36 -21.5 -63.5t-54.5 -38.5q25 -8 43.5 -26.5t26.5 -43.5q11 33 38.5 54.5t63.5 21.5q44 0 76.5 -32.5 t32.5 -76.5q0 -45 -32 -75.5t-77 -30.5q-36 0 -63.5 19.5t-38.5 52.5q-16 -52 -70 -68q33 -11 54.5 -39t21.5 -63q0 -36 -21.5 -64t-54.5 -39q25 -8 44 -26t26 -43q11 33 38.5 54t63.5 21q35 0 63.5 -21t39.5 -54q11 33 38.5 54t63.5 21q44 0 76.5 -32t32.5 -76 q0 -45 -32 -76t-77 -31q-36 0 -63.5 19.5t-38.5 52.5q-10 -32 -39 -52t-64 -20q-36 0 -63.5 19.5t-38.5 52.5q-10 -32 -39 -52t-64 -20q-36 0 -63.5 19.5t-38.5 52.5q-11 -32 -39 -52t-63 -20q-46 0 -76.5 30.5t-30.5 76.5zM174 895q0 45 31 77t76 32q44 0 76 -32.5 t32 -76.5q0 -45 -31.5 -76t-76.5 -31q-46 0 -76.5 30.5t-30.5 76.5zM584 895q0 45 30.5 77t75.5 32q44 0 76.5 -32.5t32.5 -76.5q0 -45 -32 -76t-77 -31q-46 0 -76 30.5t-30 76.5zM788 690q0 45 31 77t76 32q44 0 76.5 -32.5t32.5 -76.5q0 -45 -32 -75.5t-77 -30.5 q-46 0 -76.5 30t-30.5 76z" />
<glyph unicode="&#xe7;" d="M-31 281q0 35 20 63t52 39q-33 11 -52.5 38.5t-19.5 63.5q0 35 20 64t52 39q-33 11 -52.5 38.5t-19.5 63.5q0 45 31 77t76 32q44 0 76 -32.5t32 -76.5q0 -36 -21 -63.5t-54 -38.5q33 -11 54 -39.5t21 -63.5q0 -36 -21 -63.5t-54 -38.5q33 -11 54 -39t21 -63 q0 -45 -31.5 -76t-76.5 -31q-46 0 -76.5 30.5t-30.5 76.5zM174 76q0 45 31 76.5t76 31.5q35 0 63 -21t39 -54q11 33 38.5 54t63.5 21q35 0 63.5 -21t39.5 -54q11 33 38.5 54t63.5 21q44 0 76.5 -32t32.5 -76q0 -45 -32 -76t-77 -31q-36 0 -63.5 19.5t-38.5 52.5 q-10 -32 -39 -52t-64 -20q-36 0 -63.5 19.5t-38.5 52.5q-11 -32 -39 -52t-63 -20q-46 0 -76.5 30.5t-30.5 76.5zM174 -334q0 45 31 77t76 32q44 0 76 -32.5t32 -76.5q0 -45 -31.5 -75.5t-76.5 -30.5q-46 0 -76.5 30t-30.5 76zM174 895q0 45 31 77t76 32q35 0 63 -21.5 t39 -54.5q11 33 38.5 54.5t63.5 21.5q35 0 63.5 -21.5t39.5 -54.5q11 33 38.5 54.5t63.5 21.5q44 0 76.5 -32.5t32.5 -76.5q0 -45 -32 -76t-77 -31q-36 0 -63.5 19.5t-38.5 52.5q-10 -32 -39 -52t-64 -20q-36 0 -63.5 19.5t-38.5 52.5q-11 -32 -39 -52t-63 -20 q-46 0 -76.5 30.5t-30.5 76.5zM379 -129q0 45 30.5 77t75.5 32q44 0 76.5 -32.5t32.5 -76.5q0 -45 -32 -76t-77 -31q-46 0 -76 30.5t-30 76.5zM788 281q0 45 31 76.5t76 31.5q44 0 76.5 -32t32.5 -76q0 -45 -32 -76t-77 -31q-46 0 -76.5 30.5t-30.5 76.5zM788 690 q0 45 31 77t76 32q44 0 76.5 -32.5t32.5 -76.5q0 -45 -32 -75.5t-77 -30.5q-46 0 -76.5 30t-30.5 76z" />
<glyph unicode="&#xe8;" d="M-31 281q0 35 20 63t52 39q-33 11 -52.5 38.5t-19.5 63.5q0 35 20 64t52 39q-33 11 -52.5 38.5t-19.5 63.5q0 45 31 77t76 32q44 0 76 -32.5t32 -76.5q0 -36 -21 -63.5t-54 -38.5q25 -7 43 -26t26 -44q11 33 39 54.5t64 21.5q35 0 63 -21.5t39 -54.5q11 33 38.5 54.5 t63.5 21.5q35 0 63.5 -21.5t39.5 -54.5q11 33 38.5 54.5t63.5 21.5q35 0 63.5 -21.5t39.5 -54.5q17 55 67 70q-33 11 -52.5 38.5t-19.5 63.5q0 45 31 77t76 32q44 0 76.5 -32.5t32.5 -76.5q0 -36 -21.5 -63.5t-54.5 -38.5q33 -11 54.5 -39.5t21.5 -63.5q0 -45 -32 -75.5 t-77 -30.5q-36 0 -63.5 19.5t-38.5 52.5q-10 -32 -39 -52t-64 -20q-36 0 -63.5 19.5t-38.5 52.5q-10 -32 -39 -52t-64 -20q-36 0 -63.5 19.5t-38.5 52.5q-11 -32 -39 -52t-63 -20q-36 0 -64 20t-39 52q-16 -52 -69 -68q33 -11 54 -39t21 -63q0 -45 -31.5 -76t-76.5 -31 q-46 0 -76.5 30.5t-30.5 76.5zM174 76q0 45 31 76.5t76 31.5q35 0 63 -21t39 -54q11 33 38.5 54t63.5 21q35 0 63.5 -21t39.5 -54q11 33 38.5 54t63.5 21q35 0 63.5 -21t39.5 -54q11 33 38.5 54t63.5 21q44 0 76.5 -32t32.5 -76q0 -45 -32 -76t-77 -31q-36 0 -63.5 19.5 t-38.5 52.5q-10 -32 -39 -52t-64 -20q-36 0 -63.5 19.5t-38.5 52.5q-10 -32 -39 -52t-64 -20q-36 0 -63.5 19.5t-38.5 52.5q-11 -32 -39 -52t-63 -20q-46 0 -76.5 30.5t-30.5 76.5zM174 895q0 45 31 77t76 32q35 0 63 -21.5t39 -54.5q11 33 38.5 54.5t63.5 21.5 q35 0 63.5 -21.5t39.5 -54.5q11 33 38.5 54.5t63.5 21.5q44 0 76.5 -32.5t32.5 -76.5q0 -45 -32 -76t-77 -31q-36 0 -63.5 19.5t-38.5 52.5q-10 -32 -39 -52t-64 -20q-36 0 -63.5 19.5t-38.5 52.5q-11 -32 -39 -52t-63 -20q-46 0 -76.5 30.5t-30.5 76.5zM174 1509 q0 45 31 77t76 32q44 0 76 -32.5t32 -76.5q0 -45 -31.5 -75.5t-76.5 -30.5q-46 0 -76.5 30t-30.5 76zM379 1305q0 45 30.5 76.5t75.5 31.5q35 0 63.5 -21.5t39.5 -54.5q11 33 38.5 54.5t63.5 21.5q44 0 76.5 -32t32.5 -76q0 -45 -32 -76t-77 -31q-36 0 -63.5 19.5 t-38.5 52.5q-10 -32 -39 -52t-64 -20q-46 0 -76 30.5t-30 76.5z" />
<glyph unicode="&#xe9;" d="M-31 281q0 35 20 63t52 39q-33 11 -52.5 38.5t-19.5 63.5q0 35 20 64t52 39q-33 11 -52.5 38.5t-19.5 63.5q0 45 31 77t76 32q44 0 76 -32.5t32 -76.5q0 -36 -21 -63.5t-54 -38.5q25 -7 43 -26t26 -44q11 33 39 54.5t64 21.5q35 0 63 -21.5t39 -54.5q11 33 38.5 54.5 t63.5 21.5q35 0 63.5 -21.5t39.5 -54.5q11 33 38.5 54.5t63.5 21.5q35 0 63.5 -21.5t39.5 -54.5q17 55 67 70q-33 11 -52.5 38.5t-19.5 63.5q0 45 31 77t76 32q44 0 76.5 -32.5t32.5 -76.5q0 -36 -21.5 -63.5t-54.5 -38.5q33 -11 54.5 -39.5t21.5 -63.5q0 -45 -32 -75.5 t-77 -30.5q-36 0 -63.5 19.5t-38.5 52.5q-10 -32 -39 -52t-64 -20q-36 0 -63.5 19.5t-38.5 52.5q-10 -32 -39 -52t-64 -20q-36 0 -63.5 19.5t-38.5 52.5q-11 -32 -39 -52t-63 -20q-36 0 -64 20t-39 52q-16 -52 -69 -68q33 -11 54 -39t21 -63q0 -45 -31.5 -76t-76.5 -31 q-46 0 -76.5 30.5t-30.5 76.5zM174 76q0 45 31 76.5t76 31.5q35 0 63 -21t39 -54q11 33 38.5 54t63.5 21q35 0 63.5 -21t39.5 -54q11 33 38.5 54t63.5 21q35 0 63.5 -21t39.5 -54q11 33 38.5 54t63.5 21q44 0 76.5 -32t32.5 -76q0 -45 -32 -76t-77 -31q-36 0 -63.5 19.5 t-38.5 52.5q-10 -32 -39 -52t-64 -20q-36 0 -63.5 19.5t-38.5 52.5q-10 -32 -39 -52t-64 -20q-36 0 -63.5 19.5t-38.5 52.5q-11 -32 -39 -52t-63 -20q-46 0 -76.5 30.5t-30.5 76.5zM174 895q0 45 31 77t76 32q35 0 63 -21.5t39 -54.5q11 33 38.5 54.5t63.5 21.5 q35 0 63.5 -21.5t39.5 -54.5q11 33 38.5 54.5t63.5 21.5q44 0 76.5 -32.5t32.5 -76.5q0 -45 -32 -76t-77 -31q-36 0 -63.5 19.5t-38.5 52.5q-10 -32 -39 -52t-64 -20q-36 0 -63.5 19.5t-38.5 52.5q-11 -32 -39 -52t-63 -20q-46 0 -76.5 30.5t-30.5 76.5zM174 1305 q0 45 31 76.5t76 31.5q35 0 63 -21.5t39 -54.5q11 33 38.5 54.5t63.5 21.5q44 0 76.5 -32t32.5 -76q0 -45 -32 -76t-77 -31q-36 0 -63.5 19.5t-38.5 52.5q-11 -32 -39 -52t-63 -20q-46 0 -76.5 30.5t-30.5 76.5zM584 1509q0 45 30.5 77t75.5 32q44 0 76.5 -32.5t32.5 -76.5 q0 -45 -32 -75.5t-77 -30.5q-46 0 -76 30t-30 76z" />
<glyph unicode="&#xea;" d="M-31 281q0 35 20 63t52 39q-33 11 -52.5 38.5t-19.5 63.5q0 35 20 64t52 39q-33 11 -52.5 38.5t-19.5 63.5q0 45 31 77t76 32q44 0 76 -32.5t32 -76.5q0 -36 -21 -63.5t-54 -38.5q25 -7 43 -26t26 -44q11 33 39 54.5t64 21.5q35 0 63 -21.5t39 -54.5q11 33 38.5 54.5 t63.5 21.5q35 0 63.5 -21.5t39.5 -54.5q11 33 38.5 54.5t63.5 21.5q35 0 63.5 -21.5t39.5 -54.5q17 55 67 70q-33 11 -52.5 38.5t-19.5 63.5q0 45 31 77t76 32q44 0 76.5 -32.5t32.5 -76.5q0 -36 -21.5 -63.5t-54.5 -38.5q33 -11 54.5 -39.5t21.5 -63.5q0 -45 -32 -75.5 t-77 -30.5q-36 0 -63.5 19.5t-38.5 52.5q-10 -32 -39 -52t-64 -20q-36 0 -63.5 19.5t-38.5 52.5q-10 -32 -39 -52t-64 -20q-36 0 -63.5 19.5t-38.5 52.5q-11 -32 -39 -52t-63 -20q-36 0 -64 20t-39 52q-16 -52 -69 -68q33 -11 54 -39t21 -63q0 -45 -31.5 -76t-76.5 -31 q-46 0 -76.5 30.5t-30.5 76.5zM174 76q0 45 31 76.5t76 31.5q35 0 63 -21t39 -54q11 33 38.5 54t63.5 21q35 0 63.5 -21t39.5 -54q11 33 38.5 54t63.5 21q35 0 63.5 -21t39.5 -54q11 33 38.5 54t63.5 21q44 0 76.5 -32t32.5 -76q0 -45 -32 -76t-77 -31q-36 0 -63.5 19.5 t-38.5 52.5q-10 -32 -39 -52t-64 -20q-36 0 -63.5 19.5t-38.5 52.5q-10 -32 -39 -52t-64 -20q-36 0 -63.5 19.5t-38.5 52.5q-11 -32 -39 -52t-63 -20q-46 0 -76.5 30.5t-30.5 76.5zM174 895q0 45 31 77t76 32q35 0 63 -21.5t39 -54.5q11 33 38.5 54.5t63.5 21.5 q35 0 63.5 -21.5t39.5 -54.5q11 33 38.5 54.5t63.5 21.5q44 0 76.5 -32.5t32.5 -76.5q0 -45 -32 -76t-77 -31q-36 0 -63.5 19.5t-38.5 52.5q-10 -32 -39 -52t-64 -20q-36 0 -63.5 19.5t-38.5 52.5q-11 -32 -39 -52t-63 -20q-46 0 -76.5 30.5t-30.5 76.5zM174 1305 q0 45 31 76.5t76 31.5q44 0 76 -32t32 -76q0 -45 -31.5 -76t-76.5 -31q-46 0 -76.5 30.5t-30.5 76.5zM379 1509q0 45 30.5 77t75.5 32q44 0 76.5 -32.5t32.5 -76.5q0 -45 -32 -75.5t-77 -30.5q-46 0 -76 30t-30 76zM584 1305q0 45 30.5 76.5t75.5 31.5q44 0 76.5 -32 t32.5 -76q0 -45 -32 -76t-77 -31q-46 0 -76 30.5t-30 76.5z" />
<glyph unicode="&#xeb;" d="M-31 281q0 35 20 63t52 39q-33 11 -52.5 38.5t-19.5 63.5q0 35 20 64t52 39q-33 11 -52.5 38.5t-19.5 63.5q0 45 31 77t76 32q44 0 76 -32.5t32 -76.5q0 -36 -21 -63.5t-54 -38.5q25 -7 43 -26t26 -44q11 33 39 54.5t64 21.5q35 0 63 -21.5t39 -54.5q11 33 38.5 54.5 t63.5 21.5q35 0 63.5 -21.5t39.5 -54.5q11 33 38.5 54.5t63.5 21.5q35 0 63.5 -21.5t39.5 -54.5q17 55 67 70q-33 11 -52.5 38.5t-19.5 63.5q0 45 31 77t76 32q44 0 76.5 -32.5t32.5 -76.5q0 -36 -21.5 -63.5t-54.5 -38.5q33 -11 54.5 -39.5t21.5 -63.5q0 -45 -32 -75.5 t-77 -30.5q-36 0 -63.5 19.5t-38.5 52.5q-10 -32 -39 -52t-64 -20q-36 0 -63.5 19.5t-38.5 52.5q-10 -32 -39 -52t-64 -20q-36 0 -63.5 19.5t-38.5 52.5q-11 -32 -39 -52t-63 -20q-36 0 -64 20t-39 52q-16 -52 -69 -68q33 -11 54 -39t21 -63q0 -45 -31.5 -76t-76.5 -31 q-46 0 -76.5 30.5t-30.5 76.5zM-31 1305q0 35 20 63t52 39q-33 11 -52.5 38.5t-19.5 63.5q0 45 31 77t76 32q44 0 76 -32.5t32 -76.5q0 -36 -21 -63.5t-54 -38.5q33 -11 54 -39t21 -63q0 -45 -31.5 -76t-76.5 -31q-46 0 -76.5 30.5t-30.5 76.5zM174 76q0 45 31 76.5t76 31.5 q35 0 63 -21t39 -54q11 33 38.5 54t63.5 21q35 0 63.5 -21t39.5 -54q11 33 38.5 54t63.5 21q35 0 63.5 -21t39.5 -54q11 33 38.5 54t63.5 21q44 0 76.5 -32t32.5 -76q0 -45 -32 -76t-77 -31q-36 0 -63.5 19.5t-38.5 52.5q-10 -32 -39 -52t-64 -20q-36 0 -63.5 19.5 t-38.5 52.5q-10 -32 -39 -52t-64 -20q-36 0 -63.5 19.5t-38.5 52.5q-11 -32 -39 -52t-63 -20q-46 0 -76.5 30.5t-30.5 76.5zM174 895q0 45 31 77t76 32q35 0 63 -21.5t39 -54.5q11 33 38.5 54.5t63.5 21.5q35 0 63.5 -21.5t39.5 -54.5q11 33 38.5 54.5t63.5 21.5 q44 0 76.5 -32.5t32.5 -76.5q0 -45 -32 -76t-77 -31q-36 0 -63.5 19.5t-38.5 52.5q-10 -32 -39 -52t-64 -20q-36 0 -63.5 19.5t-38.5 52.5q-11 -32 -39 -52t-63 -20q-46 0 -76.5 30.5t-30.5 76.5zM788 1305q0 35 20 63t52 39q-33 11 -52.5 38.5t-19.5 63.5q0 45 31 77t76 32 q44 0 76.5 -32.5t32.5 -76.5q0 -36 -21.5 -63.5t-54.5 -38.5q33 -11 54.5 -39t21.5 -63q0 -45 -32 -76t-77 -31q-46 0 -76.5 30.5t-30.5 76.5z" />
</font>
</defs>
</svg>
